<svg width="500" height="500" viewBox="0 0 500 500" fill="none" xmlns="http://www.w3.org/2000/svg">
<g clip-path="url(#clip0_526_79)">
<path fill-rule="evenodd" clip-rule="evenodd" d="M249.737 441.203C261.361 441.203 270.776 448.486 270.776 457.479C270.776 466.471 261.361 473.755 249.737 473.755C238.113 473.755 228.698 466.471 228.698 457.479C228.698 448.486 238.113 441.203 249.737 441.203ZM113.823 274.577C113.507 274.089 113.139 273.641 112.718 273.193C110.877 270.874 109.036 268.555 107.195 265.91C105.355 263.062 103.514 260.376 101.883 257.894C100.252 255.208 98.6745 252.36 97.307 249.512C96.1498 247.03 94.7822 244.181 93.4147 240.804C91.3633 236.003 85.5775 232.992 79.3709 232.992H39.554C38.1864 232.992 36.8189 232.829 35.8721 232.463C34.9779 232.096 33.8207 231.567 33.137 230.876C32.2428 230.143 31.5064 229.452 31.0856 228.76C30.6122 228.068 30.4019 226.969 30.4019 225.911V187.093C30.4019 186.035 30.6122 185.14 30.8752 184.408C31.3486 183.675 32.0324 182.821 33.1896 181.925C34.0837 181.234 35.0305 180.664 35.9247 180.501C36.8714 180.135 38.239 179.972 39.6066 179.972H76.1624C83.5262 179.972 89.5224 175.863 90.89 170.532C91.7841 167.521 92.7309 164.673 93.6251 162.15C94.7822 159.302 95.9394 156.616 97.307 153.768C98.6745 151.082 100.042 148.234 101.883 145.589C103.514 142.741 105.355 140.259 106.932 137.777C110.141 133.138 108.984 127.808 104.408 124.268L75.8994 102.01C75.689 101.847 75.689 101.847 75.426 101.847C74.5319 101.156 73.7955 100.423 73.3747 99.7315C72.9013 99.0397 72.9013 98.3073 72.9013 97.2494C72.9013 96.1914 73.1117 95.2962 73.5851 94.5638C74.0585 93.6686 74.7423 92.9769 75.8994 92.0817L111.088 65.0228C112.245 64.1276 113.139 63.5986 114.296 63.2324C115.243 62.8662 116.348 62.7035 117.768 62.7035C119.135 62.7035 120.292 62.8662 121.239 63.2324C122.186 63.5986 123.291 64.1276 124.237 64.8193H124.448L150.431 84.9203C155.481 88.8265 163.528 89.3555 169.314 86.1816C172.312 84.7575 175.31 83.3333 178.729 81.9092C182.411 80.485 185.883 79.0609 189.091 77.7995C192.563 76.5381 196.244 75.3174 199.926 74.2594C203.135 73.3643 206.817 72.3063 211.182 71.2484C217.389 69.6615 221.281 65.1856 221.281 60.3841V29.541C221.281 28.4831 221.492 27.4251 221.965 26.6927C222.438 26.001 223.122 25.2686 223.806 24.5768C224.753 23.8851 225.647 23.3154 226.541 23.1527C227.435 22.7865 228.855 22.6237 230.223 22.6237H265.569H265.99H269.619C270.987 22.6237 272.354 22.7865 273.301 23.1527C274.195 23.3154 275.142 23.8851 276.036 24.5768C276.72 25.2686 277.404 26.001 277.877 26.6927C278.351 27.3844 278.561 28.4831 278.561 29.541V60.3434C278.561 65.1449 282.453 69.5801 288.66 71.2077C293.025 72.2656 296.707 73.3236 299.916 74.2188C303.598 75.2767 307.28 76.5381 310.751 77.7588C313.96 79.0202 317.431 80.4443 321.113 81.8685C324.584 83.2927 327.53 84.7168 330.528 86.141C336.261 89.3555 344.309 88.8265 349.411 84.8796L375.394 64.7787H375.605C376.499 64.0869 377.656 63.5173 378.603 63.1917C379.497 62.8255 380.654 62.6628 382.074 62.6628C383.442 62.6628 384.599 62.8255 385.546 63.1917C386.703 63.5579 387.597 64.0869 388.754 64.9821L423.943 92.041C425.1 92.9362 425.784 93.6279 426.257 94.5231C426.73 95.2148 426.941 96.11 426.941 97.2087C426.941 98.2666 426.941 98.999 426.467 99.6908C425.994 100.423 425.31 101.115 424.416 101.807C424.206 101.807 424.206 101.807 423.943 101.969L395.434 124.227C390.858 127.767 389.701 133.138 392.91 137.736C394.54 140.218 396.381 142.7 397.959 145.549C399.8 148.234 401.168 151.082 402.535 153.727C403.903 156.576 405.06 159.261 406.217 162.109C407.111 164.591 408.058 167.44 408.952 170.492C410.32 175.822 416.316 179.932 423.68 179.932H460.236C461.603 179.932 462.971 180.094 463.917 180.461C464.812 180.623 465.758 181.152 466.653 181.885C467.81 182.78 468.494 183.675 468.967 184.367C469.177 185.059 469.44 185.954 469.44 187.052V225.871C469.44 226.929 469.23 227.987 468.757 228.719C468.283 229.452 467.599 230.143 466.705 230.835C466.021 231.527 464.864 232.096 463.97 232.422C463.023 232.788 461.656 232.951 460.288 232.951H420.471C414.265 232.951 408.531 235.962 406.427 240.763C405.06 244.141 403.692 246.989 402.535 249.471C401.168 252.319 399.537 255.168 397.959 257.853C396.329 260.335 394.488 263.021 392.647 265.869C390.806 268.555 388.965 270.874 387.124 273.153C386.703 273.6 386.335 274.048 386.019 274.536H420.839C422.312 272.258 423.785 269.816 425.31 267.293C427.151 264.079 428.992 260.905 430.623 257.69C430.833 257.161 431.307 256.429 431.57 255.9H461.025C466.337 255.9 471.386 255.208 475.963 253.784C480.539 252.36 484.957 250.041 488.639 247.192C492.321 244.344 495.319 241.13 497.16 237.386C499.001 233.643 499.895 229.899 499.895 225.83V187.052C499.895 183.146 498.738 179.24 496.897 175.659C495.056 172.119 492.321 168.905 488.639 166.056L488.428 165.894C484.746 163.045 480.591 160.726 476.015 159.302C471.439 157.715 466.337 156.982 461.077 156.982H435.988C435.988 156.453 435.777 156.087 435.514 155.558C434.147 152.181 432.779 148.804 431.149 145.589C429.308 142.212 427.677 138.997 425.836 135.986C425.626 135.62 425.153 135.091 424.942 134.562L445.666 118.368C449.558 115.682 452.346 112.508 454.397 108.927C456.238 105.387 457.395 101.44 457.395 97.3714C457.395 93.2617 456.501 89.5589 454.397 85.8154C452.346 82.2754 449.558 79.0609 445.876 76.2126H445.666L410.478 49.1536C406.796 46.3053 402.64 44.1895 397.801 42.5619C392.962 40.9749 388.123 40.2425 382.863 40.2425C377.814 40.2425 372.765 40.9342 367.925 42.5619C363.086 43.986 358.931 46.3053 355.249 49.1536L337.313 62.8662L335.946 62.3372C332.264 60.7503 328.109 59.3262 323.743 57.6986C319.588 56.2744 315.485 54.8503 311.33 53.5889C310.646 53.4261 309.699 53.0599 309.015 52.8564V30.07C309.015 25.9603 308.121 22.054 306.28 18.514C304.439 14.9333 301.441 11.556 297.759 8.70768C293.867 5.85938 289.712 3.54004 285.083 2.11589C280.297 0.691732 275.458 0 270.145 0H251.999H247.949H229.802C224.49 0 219.703 0.691732 214.864 2.11589C210.288 3.54004 206.133 5.85938 202.188 8.70768C198.506 11.556 195.508 14.9333 193.667 18.514C191.826 22.054 190.932 26.001 190.932 30.07V52.8564C190.248 53.0192 189.301 53.3854 188.618 53.5889C184.462 54.8503 180.36 56.2744 176.204 57.6986C171.839 59.2855 167.684 60.7096 164.002 62.3372L162.634 62.8662L144.698 49.1536C141.016 46.3053 136.861 43.986 132.022 42.5619C127.183 40.9749 122.133 40.2425 117.084 40.2425C111.772 40.2425 106.985 40.9342 102.146 42.5619C97.307 44.1488 93.1517 46.3053 89.4698 49.1536L54.2815 76.2126H54.0711C50.3892 79.0609 47.6541 82.2754 45.5502 85.8154C43.4988 89.5182 42.5521 93.2617 42.5521 97.3307C42.5521 101.44 43.7092 105.347 45.5502 108.887C47.6015 112.427 50.3892 115.641 54.2815 118.327L75.0053 134.522C74.7949 135.05 74.3215 135.579 74.1111 135.946C72.2701 138.957 70.6396 142.171 68.7987 145.549C67.1681 148.763 65.8005 152.14 64.433 155.518C64.2226 156.047 63.9596 156.413 63.9596 156.942H38.8702C33.5578 156.942 28.5083 157.674 23.9323 159.261C19.3562 160.685 15.2009 163.005 11.519 165.853L11.3086 166.016C7.62676 168.864 4.89165 172.078 3.0507 175.619C1.15716 179.199 0 183.146 0 187.052V225.83C0 229.94 0.894172 233.643 2.73511 237.386C4.57606 241.13 7.57416 244.344 11.256 247.192C14.9379 250.041 19.3036 252.36 23.9323 253.784C28.5083 255.208 33.6103 255.9 38.8702 255.9H68.3253C68.5357 256.429 69.009 257.161 69.272 257.69C70.9026 260.905 72.7435 264.079 74.5845 267.293C76.1624 269.857 77.5826 272.298 79.0553 274.536H113.823V274.577ZM170.787 238.566C166.421 238.688 163.055 239.38 160.793 240.601C159.478 241.292 158.531 242.147 157.953 243.164C157.269 244.303 156.953 245.687 157.006 247.274C157.164 251.912 160.32 258.016 166.421 265.055L166.526 265.137L186.303 289.51C194.246 299.276 202.556 309.245 212.918 316.528C222.859 323.568 234.904 328.328 250.894 328.369C268.146 328.41 280.823 323.446 291.079 316.04C301.757 308.309 310.173 297.73 318.43 287.15L340.732 258.748C344.887 251.424 346.413 246.501 345.466 243.612C344.887 241.903 342.468 241.048 338.26 240.885C337.366 240.845 336.472 240.845 335.525 240.845C334.526 240.885 333.474 240.926 332.422 241.008C331.843 241.048 331.264 241.008 330.686 240.926C328.687 241.008 326.636 240.885 324.584 240.682L332.211 214.518C275.563 221.436 233.169 188.883 173.259 208.008L177.572 238.81C175.205 238.851 172.891 238.81 170.787 238.566ZM345.887 233.073C351.357 234.375 354.881 237.061 356.354 241.414C357.932 246.257 356.196 253.052 350.936 262.329C350.831 262.492 350.726 262.655 350.621 262.817L328.056 291.545C319.377 302.612 310.541 313.721 298.759 322.266L298.18 322.673C299.285 323.934 300.547 325.317 301.809 326.782C305.702 331.217 310.173 336.304 314.328 340.251C338.839 352.051 392.752 355.225 413.844 364.299C467.494 387.451 447.928 443.685 451.82 484.131C450.663 493.693 443.667 499.186 429.886 500H415.001L431.359 404.093C432.621 396.606 425.784 390.503 417.315 390.503H302.283C305.123 374.837 307.174 359.863 308.174 348.551C302.809 343.953 297.076 337.443 292.131 331.828C291.027 330.607 289.975 329.386 288.975 328.288C278.613 333.659 266.305 336.995 250.894 336.955C233.695 336.914 220.282 332.357 209.184 325.399C206.08 332.601 201.504 342.529 197.086 347.29C196.718 347.697 196.244 348.063 195.718 348.348C197.612 360.026 200.242 375 203.345 390.544H85.5249C77.1092 390.544 70.2188 396.647 71.4812 404.134L87.8393 500.041H72.9013C59.1206 499.227 52.125 493.734 50.9678 484.172C51.6516 441.325 30.6122 389.486 88.9438 364.339C110.299 355.103 165.369 351.969 189.407 339.803C193.089 334.473 197.139 324.87 199.611 319.173C199.874 318.522 199.453 319.58 199.874 318.644C191.037 311.32 183.831 302.653 176.888 294.108L157.111 269.775C149.853 261.434 146.118 253.784 145.855 247.518C145.75 244.588 146.381 241.903 147.801 239.543C149.274 237.101 151.536 235.026 154.587 233.439C156.007 232.707 157.637 232.056 159.373 231.527C158.111 218.302 157.585 201.66 158.426 187.744C158.847 184.448 159.689 181.112 160.846 177.816C168.104 157.796 190.353 143.351 215.758 136.556C228.066 133.26 223.333 125.407 235.798 125.936C265.359 127.197 310.909 141.927 328.424 157.552C353.04 179.403 346.676 206.34 345.887 233.073ZM210.604 366.984C200.61 358.195 199.769 348.999 210.604 339.274C223.122 341.716 234.589 345.907 245.161 351.563C247.423 350.789 250.105 350.464 252.683 350.627C263.676 344.605 277.667 342.163 289.922 337.647C304.544 348.674 302.967 358.805 288.607 368.205C280.56 366.781 272.933 364.583 265.622 361.694C265.411 363.159 264.938 364.746 264.044 366.455L267.778 390.503H237.955L241.689 366.455C239.375 363.403 238.481 360.799 238.534 358.643C229.855 362.671 220.44 365.275 210.604 366.984Z" fill="#1B6C1B"/>
</g>
<defs>
<clipPath id="clip0_526_79">
<rect width="500" height="500" fill="white"/>
</clipPath>
</defs>
</svg>
