<svg width="800" height="800" viewBox="0 0 800 800" fill="none" xmlns="http://www.w3.org/2000/svg">
<path d="M337.812 354.297L324.531 390.781H351.406L337.812 354.297Z" fill="white"/>
<path d="M566.641 202.891H243.906C231.016 202.891 220.469 213.438 220.469 226.328V549.062C220.469 561.953 231.016 572.5 243.906 572.5H566.641C579.531 572.5 590.078 561.953 590.078 549.062V226.328C590.078 213.359 579.531 202.891 566.641 202.891ZM489.453 331.406H509.297V429.687H489.453V331.406ZM398.437 331.406H430.312C442.422 331.406 450.234 331.875 453.906 332.891C459.531 334.375 464.219 337.578 468.047 342.5C471.875 347.422 473.75 353.828 473.75 361.641C473.75 367.656 472.656 372.734 470.469 376.875C468.281 381.016 465.469 384.219 462.109 386.562C458.75 388.906 455.312 390.469 451.797 391.25C447.031 392.187 440.234 392.656 431.172 392.656H418.203V429.687H398.437V331.406ZM327.578 331.406H348.594L387.891 429.687H366.328L357.734 407.344H318.437L310.312 429.687H289.219L327.578 331.406ZM506.563 544.922H275.469C260.312 544.922 248.047 532.656 248.047 517.5V287.031C248.047 282.734 251.562 279.219 255.859 279.219C260.156 279.219 263.672 282.734 263.672 287.031V517.5C263.672 523.984 268.984 529.297 275.469 529.297H506.563C510.859 529.297 514.375 532.812 514.375 537.109C514.375 541.406 510.938 544.922 506.563 544.922Z" fill="white"/>
<path d="M444.844 374.375C447.5 373.359 449.531 371.719 451.016 369.531C452.5 367.344 453.281 364.766 453.281 361.875C453.281 358.281 452.266 355.313 450.156 353.047C448.047 350.703 445.391 349.297 442.187 348.672C439.844 348.203 435.078 347.969 427.891 347.969H418.281V375.859H429.141C436.953 375.938 442.188 375.391 444.844 374.375Z" fill="white"/>
<path d="M506.563 529.297H275.469C268.984 529.297 263.672 523.984 263.672 517.5V287.031C263.672 282.734 260.156 279.219 255.859 279.219C251.563 279.219 248.047 282.734 248.047 287.031V517.5C248.047 532.656 260.313 544.922 275.469 544.922H506.563C510.859 544.922 514.375 541.406 514.375 537.109C514.375 532.813 510.938 529.297 506.563 529.297Z" fill="#1B6C1B"/>
<path d="M675.781 301.953C684.375 301.953 691.406 294.922 691.406 286.328C691.406 277.734 684.375 270.703 675.781 270.703H621.328V226.328C621.328 196.172 596.797 171.641 566.641 171.641H544.922V119.062C544.922 110.469 537.891 103.438 529.297 103.438C520.703 103.438 513.672 110.469 513.672 119.062V171.641H477.344V119.062C477.344 110.469 470.312 103.438 461.719 103.438C453.125 103.438 446.094 110.469 446.094 119.062V171.641H409.766V119.062C409.766 110.469 402.734 103.438 394.141 103.438C385.547 103.438 378.516 110.469 378.516 119.062V171.641H342.188V119.062C342.188 110.469 335.156 103.438 326.562 103.438C317.969 103.438 310.938 110.469 310.938 119.062V171.641H243.906C213.75 171.641 189.219 196.172 189.219 226.328V270.703H134.766C126.172 270.703 119.141 277.734 119.141 286.328C119.141 294.922 126.172 301.953 134.766 301.953H189.219V338.281H134.766C126.172 338.281 119.141 345.313 119.141 353.906C119.141 362.5 126.172 369.531 134.766 369.531H189.219V405.859H134.766C126.172 405.859 119.141 412.891 119.141 421.484C119.141 430.078 126.172 437.109 134.766 437.109H189.219V473.438H134.766C126.172 473.438 119.141 480.469 119.141 489.063C119.141 497.656 126.172 504.687 134.766 504.687H189.219V549.063C189.219 579.219 213.75 603.75 243.906 603.75H267.969V660.391C267.969 668.984 275 676.016 283.594 676.016C292.188 676.016 299.219 668.984 299.219 660.391V603.75H335.547V660.391C335.547 668.984 342.578 676.016 351.172 676.016C359.766 676.016 366.797 668.984 366.797 660.391V603.75H403.125V660.391C403.125 668.984 410.156 676.016 418.75 676.016C427.344 676.016 434.375 668.984 434.375 660.391V603.75H470.703V660.391C470.703 668.984 477.734 676.016 486.328 676.016C494.922 676.016 501.953 668.984 501.953 660.391V603.75H566.641C596.797 603.75 621.328 579.219 621.328 549.063V504.687H675.781C684.375 504.687 691.406 497.656 691.406 489.063C691.406 480.469 684.375 473.438 675.781 473.438H621.328V437.109H675.781C684.375 437.109 691.406 430.078 691.406 421.484C691.406 412.891 684.375 405.859 675.781 405.859H621.328V369.531H675.781C684.375 369.531 691.406 362.5 691.406 353.906C691.406 345.313 684.375 338.281 675.781 338.281H621.328V301.953H675.781ZM590.078 548.984C590.078 561.875 579.531 572.422 566.641 572.422H243.906C231.016 572.422 220.469 561.875 220.469 548.984V226.328C220.469 213.438 231.016 202.891 243.906 202.891H566.641C579.531 202.891 590.078 213.438 590.078 226.328V548.984Z" fill="#1B6C1B"/>
<path d="M318.437 407.344H357.734L366.328 429.687H387.891L348.516 331.406H327.5L289.219 429.687H310.312L318.437 407.344ZM337.812 354.297L351.328 390.781H324.531L337.812 354.297ZM418.281 392.656H431.25C440.234 392.656 447.109 392.187 451.875 391.25C455.391 390.469 458.828 388.906 462.187 386.562C465.547 384.219 468.359 381.016 470.547 376.875C472.734 372.734 473.828 367.656 473.828 361.641C473.828 353.828 471.953 347.422 468.125 342.5C464.297 337.578 459.609 334.375 453.984 332.891C450.312 331.875 442.422 331.406 430.391 331.406H398.437V429.687H418.281V392.656ZM418.281 348.047H427.891C435.078 348.047 439.766 348.281 442.187 348.75C445.391 349.297 448.047 350.781 450.156 353.125C452.266 355.469 453.281 358.437 453.281 361.953C453.281 364.844 452.5 367.422 451.016 369.609C449.531 371.797 447.422 373.437 444.844 374.453C442.188 375.469 436.953 376.016 429.141 376.016H418.281V348.047ZM489.453 331.406H509.297V429.687H489.453V331.406Z" fill="#1B6C1B"/>
</svg>
