<svg width="800" height="800" viewBox="0 0 800 800" fill="none" xmlns="http://www.w3.org/2000/svg">
<g clip-path="url(#clip0_528_88)">
<path fill-rule="evenodd" clip-rule="evenodd" d="M50.0016 0H688.63C716.13 0 738.631 30.5179 738.631 67.8149V271.702C728.746 269.377 718.834 267.271 708.898 265.385V189.876H709.112H31.7766V682.764C31.765 685.232 32.1169 687.679 32.8115 689.96C33.5062 692.241 34.5296 694.312 35.8219 696.049C37.1033 697.802 38.6297 699.19 40.3117 700.132C41.9937 701.074 43.7974 701.551 45.6172 701.536H450.745C453.658 715.993 457.308 730.157 461.831 743.972H50.0016C22.5016 743.972 0 713.454 0 676.157V67.8149C0 30.5179 22.5016 0 50.0016 0ZM565.503 433.866C588.806 444.419 621.241 450.942 657.272 450.942C693.305 450.942 725.736 444.419 749.042 433.866C769.497 424.608 782.148 413.395 782.148 402.426C782.148 391.466 769.497 380.254 749.042 370.993C725.736 360.442 693.305 353.913 657.272 353.913C621.241 353.913 588.806 360.442 565.503 370.993C522.103 390.64 520.911 413.679 565.503 433.866ZM740.456 485.126C748.166 485.126 754.419 493.605 754.419 504.061C754.419 514.517 748.166 522.991 740.456 522.991C738.623 522.991 736.808 522.502 735.115 521.551C733.421 520.6 731.882 519.205 730.586 517.447C729.29 515.689 728.262 513.602 727.56 511.305C726.859 509.009 726.498 506.547 726.498 504.061C726.498 493.605 732.747 485.126 740.456 485.126ZM740.456 596.589C748.166 596.589 754.419 605.07 754.419 615.524C754.419 625.98 748.166 634.454 740.456 634.454C738.623 634.454 736.808 633.965 735.115 633.014C733.421 632.062 731.882 630.668 730.586 628.91C729.29 627.152 728.262 625.065 727.56 622.769C726.859 620.472 726.498 618.01 726.498 615.524C726.498 605.07 732.747 596.589 740.456 596.589ZM740.456 703.613C744.159 703.614 747.71 705.609 750.328 709.16C752.947 712.711 754.418 717.527 754.419 722.549C754.419 733.005 748.166 741.48 740.456 741.48C738.623 741.48 736.808 740.99 735.115 740.039C733.421 739.088 731.882 737.694 730.586 735.936C729.29 734.178 728.262 732.091 727.56 729.794C726.859 727.497 726.498 725.035 726.498 722.549C726.498 712.093 732.747 703.613 740.456 703.613ZM782.195 657.318C774.909 664.08 765.631 670.039 754.658 675.006C729.558 686.373 695.109 693.403 657.272 693.403C619.433 693.403 584.987 686.373 559.884 675.006C549.053 670.1 539.825 664.232 532.581 657.58V729.693C534.192 739.92 546.469 750.227 565.503 758.844C588.806 769.391 621.241 775.918 657.272 775.918C693.305 775.918 725.736 769.395 749.042 758.844C763.167 752.446 773.57 745.12 778.658 737.591C782.855 731.376 782.195 727.279 782.195 719.852V657.318ZM514.641 402.426C514.641 379.951 531.931 360.885 559.884 348.227C584.987 336.866 619.437 329.831 657.272 329.831C695.109 329.831 729.558 336.866 754.661 348.227C780.105 359.747 796.714 376.581 799.489 396.463C799.82 397.726 800 399.087 800 400.509V732.384C800 755.394 767.591 775.755 754.658 781.606C729.558 792.971 695.109 800 657.272 800C619.433 800 584.987 792.971 559.884 781.606C546.648 775.611 514.827 755.924 514.827 732.384V724.673C514.827 617.261 514.641 509.827 514.641 402.426ZM532.581 623.093C534.192 633.316 546.469 643.624 565.503 652.24C588.806 662.794 621.241 669.321 657.272 669.321C693.305 669.321 725.736 662.794 749.042 652.24C769.497 642.982 782.148 631.769 782.148 620.807H782.245V550.72C774.959 557.482 765.631 563.435 754.658 568.405C729.558 579.772 695.109 586.799 657.272 586.799C619.433 586.799 584.987 579.772 559.884 568.405C549.053 563.503 539.825 557.635 532.581 550.983V623.093ZM532.581 516.492C534.192 526.719 546.469 537.026 565.503 545.643C588.806 556.19 621.241 562.719 657.272 562.719C693.305 562.719 725.736 556.196 749.042 545.643C769.497 536.384 782.148 525.172 782.148 514.203H782.245V438.944C774.959 445.706 765.631 451.665 754.658 456.628C729.558 467.995 695.109 475.022 657.272 475.022C619.437 475.022 584.987 467.995 559.884 456.628C549.053 451.726 539.825 445.858 532.581 439.206V516.492ZM206.834 487.072C213.612 495.114 214.295 509.098 208.366 518.289C202.436 527.482 192.127 528.41 185.348 520.368L123.331 446.668C116.555 438.626 115.87 424.641 121.8 415.449C122.314 414.652 122.87 413.906 123.463 413.217L185.348 339.676C192.127 331.634 202.436 332.562 208.366 341.755C214.295 350.948 213.612 364.93 206.834 372.972L158.827 430.02L206.834 487.072ZM339.155 520.368C332.378 528.41 322.067 527.482 316.138 518.289C310.208 509.098 310.892 495.114 317.669 487.072L365.677 430.02L317.669 372.972C310.892 364.93 310.208 350.948 316.138 341.755C322.067 332.562 332.378 331.634 339.155 339.676L401.041 413.217C401.625 413.895 402.183 414.641 402.703 415.449C408.633 424.641 407.948 438.626 401.172 446.668L339.155 520.368ZM268.347 309.529C270.5 297.651 279.347 290.389 288.105 293.309C296.862 296.227 302.217 308.226 300.064 320.104L260.1 538.238C257.948 550.118 249.102 557.379 240.344 554.461C231.586 551.54 226.231 539.542 228.383 527.664L268.347 309.529ZM641.041 76.2322C654.68 76.2322 665.737 91.2294 665.737 109.727C665.737 128.225 654.68 143.216 641.041 143.216C627.402 143.216 616.344 128.225 616.344 109.727C616.344 91.2294 627.402 76.2322 641.041 76.2322ZM473.653 76.2322C487.292 76.2322 498.35 91.2294 498.35 109.727C498.35 128.225 487.292 143.216 473.653 143.216C460.016 143.216 448.958 128.225 448.958 109.727C448.958 91.2294 460.016 76.2322 473.653 76.2322ZM557.35 76.2322C570.988 76.2322 582.042 91.2294 582.042 109.727C582.042 128.225 570.988 143.216 557.35 143.216C543.711 143.216 532.653 128.225 532.653 109.727C532.653 91.2294 543.711 76.2322 557.35 76.2322Z" fill="#1B6C1B"/>
</g>
<defs>
<clipPath id="clip0_528_88">
<rect width="800" height="800" fill="white"/>
</clipPath>
</defs>
</svg>
