<svg width="274" height="85" viewBox="0 0 274 85" fill="none" xmlns="http://www.w3.org/2000/svg">
<rect width="273.084" height="84.9808" rx="40" fill="#333333"/>
<path d="M45.43 38.8041L44.055 42.5991H47.135C47.927 42.5991 48.3084 43.3691 48.4 43.7541V51.1791C48.4 52.0041 48.235 52.8841 47.685 52.9941C47.9967 52.8291 47.74 53.1591 45.1 52.9941C42.328 54.5341 43.945 56.2757 45.1 56.9541C46.0534 56.9724 48.444 56.9981 50.38 56.9541C52.316 56.9101 52.6167 54.6624 52.525 53.5441V41.6641C52.789 39.7281 51.205 38.9507 50.38 38.8041H45.43Z" fill="#7FC37E" stroke="#7FC37E" stroke-width="0.11"/>
<path d="M36.85 38.8042V33.1942C39.93 32.3582 41.0667 34.4226 41.25 35.5592V38.8042H44.935L43.56 42.5442H41.25V51.4542C41.195 52.1692 41.69 52.7926 42.02 52.9942H43.945C42.097 54.6662 43.175 56.3309 43.945 56.9542H39.985C37.565 57.2182 36.8867 54.7909 36.85 53.5442V42.5442C34.034 42.5002 33.11 40.0326 33 38.8042H36.85Z" fill="#7FC37E" stroke="#7FC37E" stroke-width="0.11"/>
<path d="M15.8 34.8288C18.0469 36.0211 25.5419 37.539 28.8315 33.2079C35.8578 35.6948 38.9296 25.3912 37.3969 24.4288C39.3934 22.5729 44.5959 17.2288 38.9967 11.6288" stroke="#7FC37E" stroke-width="1.59989" stroke-linecap="round"/>
<path d="M15.0076 60.1413V35.6198C15.0076 32.2761 16.1177 35.6198 18.3378 35.6198H19.4478V56.7974C19.4478 62.1475 23.888 62.742 26.1081 62.3704C34.9885 61.9989 54.0814 61.4787 59.4096 62.3704C64.7378 63.2621 65.3299 59.0266 64.9598 56.7974V27.8175C64.9598 27.4459 64.5158 25.8112 62.7397 22.2445C66.2919 16.8945 63.4798 14.8137 61.6297 14.4422C54.2294 14.8137 40.5159 14.9207 41.4039 14.029C42.292 13.1373 38.2044 12.4286 39.0043 10.8287C39.0043 9.22865 53.4023 10.8291 62.7397 10.0287C70.3417 9.37704 67.1799 20.0153 68.29 22.2445C69.178 24.0279 69.4 25.9599 69.4 26.703V60.1413C69.4 65.4914 65.6999 66.829 63.8498 66.829H20.5579C16.1177 66.829 15.0076 62.3705 15.0076 60.1413Z" fill="#7FC37E"/>
<path d="M18.3301 32.5555C17.0817 32.1286 17.1798 30.6148 18.3263 29.9661L20.6195 28.6684L23.4729 27.7307C24.7534 28.0045 25.0577 29.7073 24.7944 30.1976C24.4381 30.8611 21.1172 33.5088 18.3301 32.5555Z" fill="#7FC37E"/>
<path d="M65.5557 71.2662C66.225 72.5288 64.7212 72.2923 64.1993 72.3404L63.2028 71.6554L62.2064 70.9705C61.732 70.2376 62.3077 69.7024 62.79 69.6995L62.79 69.6995C63.2997 69.6964 64.7191 69.6879 65.5557 71.2662Z" fill="#7FC37E"/>
<path d="M60.2808 51.2139C59.0952 52.0116 59.1732 50.4911 59.0708 49.9769L59.6478 48.9142L60.2247 47.8515C60.9039 47.3031 61.4963 47.8197 61.5496 48.2991L61.5496 48.2992C61.6059 48.8058 61.7628 50.2168 60.2808 51.2139Z" fill="#7FC37E"/>
<path d="M57.2141 57.9082C57.8834 59.1709 56.3796 58.9344 55.8577 58.9825L54.8612 58.2975L53.8648 57.6126C53.3904 56.8797 53.9661 56.3444 54.4484 56.3415L54.4484 56.3415C54.9581 56.3385 56.3775 56.33 57.2141 57.9082Z" fill="#7FC37E"/>
<path d="M36.2537 58.4318C37.5708 58.9861 36.2566 59.7545 35.8829 60.122L34.6779 60.2222L33.473 60.3223C32.642 60.0549 32.7492 59.2762 33.1208 58.9687L33.1209 58.9687C33.5136 58.6438 34.6074 57.739 36.2537 58.4318Z" fill="#7FC37E"/>
<path d="M48.3619 70.7326C46.9781 71.0888 47.5591 69.6815 47.6342 69.1627L48.5328 68.3535L49.4313 67.5444C50.2545 67.2542 50.6406 67.939 50.5308 68.4087L50.5308 68.4087C50.4148 68.9051 50.0917 70.2875 48.3619 70.7326Z" fill="#7FC37E"/>
<path d="M48.4919 22.3988C47.108 22.7549 47.689 21.3476 47.7642 20.8288L48.6627 20.0197L49.5612 19.2106C50.3845 18.9203 50.7705 19.6051 50.6607 20.0748L50.6607 20.0749C50.5447 20.5712 50.2217 21.9536 48.4919 22.3988Z" fill="#7FC37E"/>
<path d="M28.8233 28.0434C27.2428 27.0512 28.9564 26.0657 29.4591 25.5627H30.9679H32.4765C33.4822 26.0657 33.2686 27.2166 32.7746 27.63L32.7746 27.63C32.2806 28.0435 30.799 29.2836 28.8233 28.0434Z" fill="#7FC37E"/>
<path d="M32.1973 20.97C30.6167 19.9778 31.2949 17.7318 31.7976 17.2288L32.5975 16.4288L33.7059 15.6288C36.5969 14.8288 36.291 18.4153 35.7971 18.8288C35.3031 19.2422 34.173 22.2103 32.1973 20.97Z" fill="#7FC37E"/>
<path d="M26.9513 70.8203C26.3704 69.6355 27.3034 69.5506 28.5728 69.9027L31.1117 70.6069L33.7924 71.9618C34.5043 73.061 33.9731 73.071 33.4403 73.2314C32.7193 73.4486 28.2481 73.4655 26.9513 70.8203Z" fill="#7FC37E"/>
<path d="M14.9999 70.0422C14.9999 68.4328 15.6704 68.3657 16.0057 68.5334C16.3434 68.5904 17.0114 68.0304 17.5143 69.0363C18.0171 70.0422 17.5143 70.0422 17.5143 70.5451C17.5143 71.048 16.5085 72.0539 16.0057 71.551C15.5028 71.048 15.5028 71.551 14.9999 70.0422Z" fill="#7FC37E"/>
<path d="M26.1984 47.6423C26.1984 46.0329 26.8689 45.9658 27.2042 46.1335C27.5418 46.1905 28.2099 45.6305 28.7128 46.6364C29.2156 47.6423 28.7128 47.6423 28.7128 48.1452C28.7128 48.6481 27.707 49.654 27.2042 49.1511C26.7013 48.6481 26.7013 49.1511 26.1984 47.6423Z" fill="#7FC37E"/>
<path d="M74.3201 63.751V15.5474C75.4559 9.12027 76.6863 12.8694 77.1596 15.5474V25.813V36.5249V48.1295V54.3781V63.751C76.0238 69.8211 74.7934 66.2802 74.3201 63.751Z" fill="#7FC37E"/>
<path d="M88.711 54.6034C88.711 55.4242 88.6102 56.0794 88.4086 56.569C88.207 57.0442 87.9262 57.3754 87.5662 57.5626C87.2206 57.7498 86.7598 57.8434 86.1838 57.8434C85.3342 57.8434 84.715 57.6202 84.3262 57.1738C83.9518 56.713 83.7574 55.9066 83.743 54.7546L83.6998 46.7842H81.8638C80.9566 46.7842 80.2726 46.6402 79.8118 46.3522C79.3654 46.0642 79.1422 45.553 79.1422 44.8186C79.1422 44.3722 79.2286 44.0194 79.4014 43.7602C79.5886 43.501 79.8622 43.321 80.2222 43.2202C80.5822 43.105 81.0646 43.0474 81.6694 43.0474H90.9142C91.7206 43.0474 92.3038 43.1914 92.6638 43.4794C93.0238 43.7674 93.2038 44.2642 93.2038 44.9698C93.2038 45.445 93.0958 45.8194 92.8798 46.093C92.6782 46.3522 92.4046 46.5322 92.059 46.633C91.7134 46.7338 91.267 46.7842 90.7198 46.7842H88.711V54.6034ZM104.183 49.0738C104.946 49.0738 105.479 49.1962 105.782 49.441C106.098 49.6858 106.257 50.1034 106.257 50.6938C106.257 51.1834 106.07 51.5362 105.695 51.7522C105.335 51.9538 104.766 52.0546 103.989 52.0546H100.49V54.3442L105.177 54.3658C105.983 54.3658 106.559 54.4882 106.905 54.733C107.265 54.9634 107.445 55.381 107.445 55.9858C107.445 56.677 107.236 57.1594 106.818 57.433C106.415 57.7066 105.796 57.8434 104.961 57.8434H97.9624C97.1128 57.8434 96.4864 57.6202 96.0832 57.1738C95.6944 56.713 95.5 55.9066 95.5 54.7546V45.6394C95.5 43.9114 96.3208 43.0474 97.9624 43.0474H104.961C105.796 43.0474 106.415 43.177 106.818 43.4362C107.236 43.6954 107.445 44.1634 107.445 44.8402C107.445 45.4738 107.265 45.9202 106.905 46.1794C106.559 46.4242 105.983 46.5466 105.177 46.5466H100.468V49.0738H104.183ZM117.853 47.1082C117.853 46.8058 117.723 46.5466 117.464 46.3306C117.219 46.1146 116.924 46.0066 116.579 46.0066C115.887 46.0066 115.319 46.4026 114.872 47.1946C114.426 47.9722 114.203 48.8578 114.203 49.8514C114.203 50.6146 114.347 51.3058 114.635 51.925C114.923 52.5298 115.34 53.0122 115.887 53.3722C116.435 53.7322 117.068 53.9122 117.788 53.9122C118.321 53.9122 118.832 53.8114 119.322 53.6098C119.811 53.3938 120.207 53.1634 120.51 52.9186C120.812 52.6594 121.122 52.429 121.439 52.2274C121.77 52.0114 122.058 51.9034 122.303 51.9034C122.619 51.9034 122.893 52.033 123.123 52.2922C123.354 52.537 123.469 52.7962 123.469 53.0698C123.469 53.3722 123.375 53.725 123.188 54.1282C123.015 54.5314 122.735 54.9634 122.346 55.4242C121.957 55.8706 121.503 56.2882 120.985 56.677C120.467 57.0514 119.819 57.3682 119.041 57.6274C118.278 57.8722 117.471 57.9946 116.622 57.9946C115.499 57.9946 114.455 57.829 113.49 57.4978C112.539 57.1522 111.711 56.6698 111.006 56.0506C110.3 55.417 109.746 54.625 109.343 53.6746C108.939 52.7242 108.738 51.6586 108.738 50.4778C108.738 48.145 109.436 46.3018 110.833 44.9482C112.23 43.5946 114.059 42.9178 116.319 42.9178C117.471 42.9178 118.537 43.1122 119.516 43.501C120.495 43.8898 121.273 44.4298 121.849 45.121C122.425 45.8122 122.713 46.5682 122.713 47.389C122.713 48.3394 122.396 49.2034 121.763 49.981C121.129 50.7442 120.308 51.1258 119.3 51.1258C118.724 51.1258 118.206 50.9674 117.745 50.6506C117.284 50.3338 117.054 49.8802 117.054 49.2898C117.054 49.0162 117.183 48.6346 117.443 48.145C117.716 47.6554 117.853 47.3098 117.853 47.1082ZM140.17 54.6034C140.17 55.7698 139.961 56.605 139.544 57.109C139.126 57.5986 138.492 57.8434 137.643 57.8434C136.808 57.8434 136.196 57.6202 135.807 57.1738C135.418 56.713 135.224 55.9066 135.224 54.7546L135.202 52.3138H130.796V54.6034C130.796 55.7842 130.594 56.6194 130.191 57.109C129.788 57.5986 129.147 57.8434 128.268 57.8434C127.433 57.8434 126.821 57.6202 126.432 57.1738C126.044 56.713 125.849 55.9066 125.849 54.7546L125.784 45.6394C125.784 44.7466 126.008 44.0914 126.454 43.6738C126.915 43.2562 127.52 43.0474 128.268 43.0474C129.132 43.0474 129.766 43.2058 130.169 43.5226C130.587 43.8394 130.796 44.4802 130.796 45.445V49.0738H135.18V45.6394C135.18 45.0346 135.288 44.5378 135.504 44.149C135.735 43.7458 136.023 43.465 136.368 43.3066C136.728 43.1338 137.153 43.0474 137.643 43.0474C138.478 43.0474 139.104 43.2058 139.522 43.5226C139.954 43.8394 140.17 44.4802 140.17 45.445V54.6034ZM156.657 55.7914C156.657 56.425 156.47 56.929 156.095 57.3034C155.721 57.6634 155.174 57.8434 154.454 57.8434C154.266 57.8434 154.079 57.8218 153.892 57.7786C153.705 57.7354 153.503 57.6562 153.287 57.541C153.086 57.4258 152.906 57.3178 152.747 57.217C152.589 57.1162 152.387 56.965 152.142 56.7634C151.912 56.5474 151.725 56.3818 151.581 56.2666C151.451 56.137 151.242 55.9354 150.954 55.6618C150.666 55.3882 150.458 55.1866 150.328 55.057L146.375 51.3202V56.0074C146.375 56.713 146.238 57.1954 145.965 57.4546C145.706 57.7138 145.288 57.8434 144.712 57.8434C144.078 57.8434 143.61 57.6994 143.308 57.4114C143.006 57.1234 142.854 56.641 142.854 55.9642V45.5314C142.854 44.7106 143.063 44.0914 143.481 43.6738C143.898 43.2562 144.496 43.0474 145.274 43.0474C145.806 43.0474 146.231 43.1338 146.548 43.3066C146.879 43.465 147.268 43.7602 147.714 44.1922L153.179 49.6354V44.9266C153.179 44.3074 153.33 43.8466 153.633 43.5442C153.95 43.2274 154.374 43.069 154.907 43.069C155.526 43.069 155.973 43.213 156.246 43.501C156.52 43.789 156.657 44.257 156.657 44.905V55.7914ZM166.48 54.8194C166.97 54.8194 167.387 54.6034 167.733 54.1714C168.093 53.7394 168.345 53.2066 168.489 52.573C168.647 51.9394 168.727 51.2626 168.727 50.5426C168.727 49.8082 168.647 49.117 168.489 48.469C168.331 47.8066 168.071 47.245 167.711 46.7842C167.366 46.3234 166.955 46.093 166.48 46.093C166.019 46.093 165.616 46.3234 165.271 46.7842C164.925 47.245 164.666 47.8066 164.493 48.469C164.32 49.1314 164.234 49.8226 164.234 50.5426C164.234 51.2626 164.313 51.9394 164.471 52.573C164.644 53.2066 164.903 53.7394 165.249 54.1714C165.609 54.6034 166.019 54.8194 166.48 54.8194ZM170.303 57.1306C169.166 57.6922 167.884 57.973 166.459 57.973C165.047 57.973 163.773 57.6922 162.635 57.1306C161.512 56.5546 160.612 55.6978 159.935 54.5602C159.259 53.4226 158.92 52.0834 158.92 50.5426C158.92 48.2098 159.619 46.3594 161.015 44.9914C162.427 43.609 164.248 42.9178 166.48 42.9178C168.712 42.9178 170.534 43.609 171.945 44.9914C173.356 46.3594 174.062 48.2098 174.062 50.5426C174.062 52.0834 173.716 53.4226 173.025 54.5602C172.348 55.6978 171.441 56.5546 170.303 57.1306ZM179.325 57.8434C178.663 57.829 178.13 57.7282 177.727 57.541C177.324 57.3394 177.021 57.0154 176.82 56.569C176.618 56.1226 176.517 55.525 176.517 54.7762V45.6394C176.517 44.8762 176.741 44.257 177.187 43.7818C177.633 43.2922 178.224 43.0474 178.958 43.0474C179.822 43.0474 180.456 43.2058 180.859 43.5226C181.277 43.8394 181.485 44.4802 181.485 45.445V54.1066H185.179C186.014 54.1066 186.597 54.229 186.929 54.4738C187.274 54.7186 187.447 55.2226 187.447 55.9858C187.447 56.7634 187.253 57.2674 186.864 57.4978C186.475 57.7282 185.841 57.8434 184.963 57.8434H179.325ZM195.484 54.8194C195.974 54.8194 196.391 54.6034 196.737 54.1714C197.097 53.7394 197.349 53.2066 197.493 52.573C197.651 51.9394 197.73 51.2626 197.73 50.5426C197.73 49.8082 197.651 49.117 197.493 48.469C197.334 47.8066 197.075 47.245 196.715 46.7842C196.37 46.3234 195.959 46.093 195.484 46.093C195.023 46.093 194.62 46.3234 194.274 46.7842C193.929 47.245 193.67 47.8066 193.497 48.469C193.324 49.1314 193.238 49.8226 193.238 50.5426C193.238 51.2626 193.317 51.9394 193.475 52.573C193.648 53.2066 193.907 53.7394 194.253 54.1714C194.613 54.6034 195.023 54.8194 195.484 54.8194ZM199.307 57.1306C198.17 57.6922 196.888 57.973 195.462 57.973C194.051 57.973 192.777 57.6922 191.639 57.1306C190.516 56.5546 189.616 55.6978 188.939 54.5602C188.262 53.4226 187.924 52.0834 187.924 50.5426C187.924 48.2098 188.622 46.3594 190.019 44.9914C191.43 43.609 193.252 42.9178 195.484 42.9178C197.716 42.9178 199.538 43.609 200.949 44.9914C202.36 46.3594 203.066 48.2098 203.066 50.5426C203.066 52.0834 202.72 53.4226 202.029 54.5602C201.352 55.6978 200.445 56.5546 199.307 57.1306ZM213.945 46.6762C213.945 46.2298 213.65 46.0066 213.06 46.0066C212.455 46.0066 211.937 46.345 211.505 47.0218C211.073 47.6986 210.857 48.829 210.857 50.413C210.857 51.8818 211.101 52.9546 211.591 53.6314C212.095 54.2938 212.685 54.625 213.362 54.625C213.578 54.625 213.773 54.5818 213.945 54.4954C214.133 54.409 214.284 54.2794 214.399 54.1066C214.514 53.9338 214.572 53.725 214.572 53.4802C214.226 53.4802 213.924 53.4154 213.665 53.2858C213.42 53.1562 213.24 52.9978 213.125 52.8106C213.009 52.609 212.952 52.393 212.952 52.1626C212.952 51.6442 213.089 51.2554 213.362 50.9962C213.636 50.737 214.104 50.6074 214.766 50.6074H217.38C218.215 50.6074 218.863 50.7874 219.324 51.1474C219.785 51.5074 220.015 52.141 220.015 53.0482C220.015 54.373 219.381 55.5322 218.114 56.5258C216.847 57.505 215.342 57.9946 213.6 57.9946C212.001 57.9946 210.576 57.7066 209.323 57.1306C208.085 56.5546 207.098 55.6978 206.364 54.5602C205.644 53.4082 205.284 52.0474 205.284 50.4778C205.284 48.145 205.989 46.3018 207.401 44.9482C208.812 43.5946 210.684 42.9178 213.017 42.9178C213.938 42.9178 214.766 42.9898 215.501 43.1338C216.235 43.2634 216.84 43.4434 217.315 43.6738C217.805 43.9042 218.208 44.185 218.525 44.5162C218.856 44.833 219.086 45.1714 219.216 45.5314C219.36 45.8914 219.432 46.2658 219.432 46.6546C219.432 46.9282 219.389 47.1946 219.302 47.4538C219.216 47.6986 219.057 47.9506 218.827 48.2098C218.611 48.4546 218.273 48.6562 217.812 48.8146C217.351 48.973 216.797 49.0522 216.149 49.0522C215.198 49.0522 214.593 48.9154 214.334 48.6418C214.075 48.3538 213.945 47.6986 213.945 46.6762ZM227.558 54.6034C227.558 55.7266 227.349 56.5474 226.932 57.0658C226.514 57.5842 225.881 57.8434 225.031 57.8434C224.196 57.8434 223.577 57.6202 223.173 57.1738C222.785 56.7274 222.59 55.9282 222.59 54.7762V45.6394C222.59 43.9114 223.404 43.0474 225.031 43.0474C225.866 43.0474 226.493 43.2058 226.91 43.5226C227.342 43.8394 227.558 44.4802 227.558 45.445V54.6034ZM239.12 49.0738C239.883 49.0738 240.416 49.1962 240.718 49.441C241.035 49.6858 241.193 50.1034 241.193 50.6938C241.193 51.1834 241.006 51.5362 240.632 51.7522C240.272 51.9538 239.703 52.0546 238.925 52.0546H235.426V54.3442L240.113 54.3658C240.92 54.3658 241.496 54.4882 241.841 54.733C242.201 54.9634 242.381 55.381 242.381 55.9858C242.381 56.677 242.173 57.1594 241.755 57.433C241.352 57.7066 240.733 57.8434 239.897 57.8434H232.899C232.049 57.8434 231.423 57.6202 231.02 57.1738C230.631 56.713 230.437 55.9066 230.437 54.7546V45.6394C230.437 43.9114 231.257 43.0474 232.899 43.0474H239.897C240.733 43.0474 241.352 43.177 241.755 43.4362C242.173 43.6954 242.381 44.1634 242.381 44.8402C242.381 45.4738 242.201 45.9202 241.841 46.1794C241.496 46.4242 240.92 46.5466 240.113 46.5466H235.405V49.0738H239.12ZM250.424 42.8962C252.138 42.8962 253.599 43.249 254.809 43.9546C256.018 44.6602 256.623 45.409 256.623 46.201C256.623 46.417 256.573 46.6042 256.472 46.7626C256.386 46.9066 256.27 47.0146 256.126 47.0866C255.997 47.1442 255.853 47.173 255.694 47.173C255.435 47.173 255.046 47.0434 254.528 46.7842C254.01 46.5106 253.434 46.2442 252.8 45.985C252.166 45.7114 251.583 45.5746 251.05 45.5746C250.201 45.5746 249.776 45.9202 249.776 46.6114C249.776 46.8274 249.841 47.0362 249.97 47.2378C250.114 47.425 250.338 47.6266 250.64 47.8426C250.942 48.0442 251.238 48.2242 251.526 48.3826C251.814 48.541 252.21 48.757 252.714 49.0306C253.218 49.2898 253.642 49.5202 253.988 49.7218C255.097 50.3554 255.874 50.9602 256.321 51.5362C256.767 52.1122 256.99 52.7746 256.99 53.5234C256.99 56.5042 254.982 57.9946 250.964 57.9946C250.172 57.9946 249.402 57.9154 248.653 57.757C247.918 57.5986 247.27 57.3898 246.709 57.1306C246.162 56.8714 245.672 56.5834 245.24 56.2666C244.822 55.9498 244.506 55.6258 244.29 55.2946C244.074 54.9634 243.966 54.6538 243.966 54.3658C243.966 54.049 244.066 53.7826 244.268 53.5666C244.484 53.3362 244.794 53.221 245.197 53.221C245.499 53.221 246.226 53.4154 247.378 53.8042C248.53 54.1786 249.459 54.3658 250.165 54.3658C250.813 54.3658 251.137 54.1426 251.137 53.6962C251.137 53.5666 251.108 53.4514 251.05 53.3506C251.007 53.2354 250.921 53.1274 250.791 53.0266C250.676 52.9114 250.539 52.8106 250.381 52.7242C250.237 52.6234 250.028 52.501 249.754 52.357C249.495 52.213 249.229 52.069 248.955 51.925C248.696 51.781 248.35 51.5938 247.918 51.3634C247.486 51.133 247.069 50.9026 246.666 50.6722C246.133 50.3698 245.672 49.9954 245.283 49.549C244.909 49.1026 244.635 48.6634 244.462 48.2314C244.29 47.785 244.203 47.3746 244.203 47.0002C244.203 45.7906 244.743 44.8042 245.823 44.041C246.903 43.2778 248.437 42.8962 250.424 42.8962Z" fill="#7FC37E"/>
<path d="M88.9854 27.5418C88.9854 26.8732 88.7228 26.4195 88.1975 26.1807C87.688 25.926 86.8284 25.7986 85.6186 25.7986V29.452C86.3668 29.452 86.9717 29.3963 87.4333 29.2849C87.9109 29.1734 88.285 28.9824 88.5556 28.7118C88.8422 28.4253 88.9854 28.0352 88.9854 27.5418ZM89.2959 33.9173C89.2959 33.392 89.1605 32.986 88.8899 32.6995C88.6193 32.4129 88.2293 32.214 87.7199 32.1025C87.2105 31.9752 86.51 31.9115 85.6186 31.9115V36.0425C86.8603 36.0425 87.7836 35.8912 88.3885 35.5888C88.9934 35.2704 89.2959 34.7132 89.2959 33.9173ZM92.2329 30.7892C93.7134 31.6648 94.4536 32.8348 94.4536 34.2993C94.4536 34.9361 94.3262 35.549 94.0715 36.138C93.8327 36.7111 93.4666 37.2364 92.9731 37.7139C92.4956 38.1915 91.8588 38.5736 91.0629 38.8601C90.2669 39.1307 89.3675 39.266 88.3646 39.266H82.8248C81.8538 39.266 81.1533 39.0193 80.7235 38.5258C80.3096 38.0323 80.1027 37.1488 80.1027 35.8753V25.7748C80.1027 25.2335 80.1982 24.7559 80.3892 24.3421C80.5802 23.9282 80.8827 23.5939 81.2966 23.3392C81.7264 23.0845 82.2358 22.9571 82.8248 22.9571H88.293C89.8849 22.973 91.2061 23.4108 92.2568 24.2704C93.3233 25.1141 93.8566 26.2046 93.8566 27.5418C93.8566 27.9716 93.8168 28.3536 93.7372 28.6879C93.6736 29.0063 93.5701 29.2928 93.4268 29.5475C93.2835 29.8022 93.1164 30.0251 92.9254 30.2161C92.7343 30.4072 92.5035 30.5982 92.2329 30.7892ZM106.474 27.685C106.474 26.9209 106.195 26.3956 105.638 26.1091C105.081 25.8225 104.142 25.6792 102.821 25.6792V29.8102C104.062 29.8102 104.978 29.659 105.567 29.3565C106.171 29.0381 106.474 28.481 106.474 27.685ZM102.821 35.7082C102.821 38.096 101.889 39.2899 100.027 39.2899C99.0875 39.2899 98.3951 39.0432 97.9493 38.5497C97.5195 38.0403 97.3046 37.1488 97.3046 35.8753V25.7986C97.3046 24.8753 97.5514 24.1749 98.0449 23.6973C98.5543 23.2038 99.2149 22.9571 100.027 22.9571H105.041C106.999 22.9571 108.583 23.4188 109.793 24.3421C111.003 25.2494 111.608 26.4195 111.608 27.8522C111.608 28.9347 111.377 29.7863 110.915 30.4072C110.47 31.0121 109.745 31.4578 108.742 31.7443C109.506 31.7921 110.215 32.1662 110.868 32.8666C111.52 33.5511 111.847 34.4108 111.847 35.4455C111.847 36.4961 111.743 37.308 111.536 37.8811C111.345 38.4383 111.067 38.8123 110.7 39.0034C110.334 39.1944 109.817 39.2899 109.148 39.2899C108.209 39.2899 107.517 39.0989 107.071 38.7168C106.641 38.3189 106.426 37.7219 106.426 36.926C106.426 35.939 106.331 35.1828 106.14 34.6575C105.949 34.1163 105.702 33.7661 105.399 33.6069C105.097 33.4477 104.675 33.3681 104.134 33.3681L102.821 33.392V35.7082ZM124.305 29.5953C125.148 29.5953 125.737 29.7306 126.072 30.0012C126.422 30.2718 126.597 30.7335 126.597 31.3862C126.597 31.9274 126.39 32.3174 125.976 32.5562C125.578 32.7791 124.949 32.8905 124.09 32.8905H120.221V35.4216L125.403 35.4455C126.294 35.4455 126.931 35.5808 127.313 35.8514C127.711 36.1061 127.91 36.5678 127.91 37.2364C127.91 38.0005 127.679 38.5338 127.218 38.8362C126.772 39.1387 126.087 39.2899 125.164 39.2899H117.428C116.488 39.2899 115.796 39.0432 115.35 38.5497C114.92 38.0403 114.705 37.1488 114.705 35.8753V25.7986C114.705 23.8884 115.613 22.9332 117.428 22.9332H125.164C126.087 22.9332 126.772 23.0765 127.218 23.363C127.679 23.6496 127.91 24.1669 127.91 24.9151C127.91 25.6156 127.711 26.1091 127.313 26.3956C126.931 26.6662 126.294 26.8015 125.403 26.8015H120.197V29.5953H124.305ZM137.65 26.8254C136.965 26.8254 136.456 27.0244 136.121 27.4224C135.803 27.8203 135.644 28.5287 135.644 29.5475V32.3652H139.608V29.4998C139.608 28.8312 139.528 28.2979 139.369 27.8999C139.21 27.486 138.987 27.2075 138.7 27.0642C138.43 26.905 138.079 26.8254 137.65 26.8254ZM139.608 35.6604H135.644V36.926C135.644 37.7378 135.429 38.3348 134.999 38.7168C134.569 39.0989 133.829 39.2899 132.778 39.2899C132.333 39.2899 131.967 39.2262 131.68 39.0989C131.393 38.9715 131.139 38.7566 130.916 38.4542C130.709 38.1517 130.55 37.7139 130.438 37.1409C130.343 36.5519 130.263 35.8514 130.2 35.0396C130.152 34.2118 130.128 33.1691 130.128 31.9115C130.128 30.8131 130.239 29.8102 130.462 28.9028C130.701 27.9795 131.011 27.1995 131.393 26.5627C131.791 25.926 132.237 25.3688 132.731 24.8913C133.224 24.3978 133.757 24.0157 134.33 23.7451C134.919 23.4745 135.485 23.2755 136.026 23.1481C136.583 23.0049 137.14 22.9332 137.697 22.9332C138.366 22.9332 139.027 23.0287 139.679 23.2198C140.332 23.3949 140.993 23.7053 141.661 24.151C142.33 24.5968 142.911 25.1539 143.404 25.8225C143.914 26.4752 144.328 27.3268 144.646 28.3775C144.964 29.4281 145.124 30.6061 145.124 31.9115C145.124 34.0128 145.044 35.5728 144.885 36.5917C144.741 37.5946 144.487 38.295 144.121 38.693C143.77 39.0909 143.221 39.2899 142.473 39.2899C141.422 39.2899 140.682 39.0989 140.252 38.7168C139.823 38.3348 139.608 37.7378 139.608 36.926V35.6604ZM153.24 36.0425C153.654 36.0425 154.012 36.0027 154.315 35.9231C154.633 35.8276 154.928 35.6684 155.198 35.4455C155.485 35.2067 155.715 34.8963 155.891 34.5142C156.066 34.1322 156.201 33.6467 156.297 33.0577C156.408 32.4527 156.464 31.7443 156.464 30.9325C156.464 30.0251 156.384 29.261 156.225 28.6402C156.066 28.0034 155.835 27.5258 155.532 27.2075C155.23 26.8732 154.896 26.6423 154.53 26.515C154.179 26.3717 153.75 26.2921 153.24 26.2762V36.0425ZM153.956 22.9571C156.44 22.9571 158.43 23.6735 159.926 25.1062C161.438 26.5389 162.194 28.5128 162.194 31.028C162.194 31.8399 162.115 32.6278 161.956 33.392C161.812 34.1561 161.566 34.9043 161.215 35.6365C160.865 36.3529 160.427 36.9817 159.902 37.5229C159.377 38.0482 158.708 38.4781 157.896 38.8123C157.085 39.1307 156.169 39.2899 155.15 39.2899H150.446C149.475 39.2899 148.775 39.0432 148.345 38.5497C147.931 38.0562 147.724 37.1647 147.724 35.8753V25.7986C147.724 23.9043 148.632 22.9571 150.446 22.9571H153.956ZM174.581 27.4224C174.581 27.0881 174.438 26.8015 174.151 26.5627C173.88 26.324 173.554 26.2046 173.172 26.2046C172.408 26.2046 171.779 26.6423 171.286 27.5179C170.792 28.3775 170.545 29.3565 170.545 30.4549C170.545 31.2986 170.705 32.0627 171.023 32.7472C171.341 33.4158 171.803 33.9491 172.408 34.3471C173.013 34.7451 173.713 34.9441 174.509 34.9441C175.098 34.9441 175.663 34.8326 176.205 34.6098C176.746 34.371 177.184 34.1163 177.518 33.8456C177.852 33.5591 178.194 33.3044 178.545 33.0815C178.911 32.8428 179.229 32.7234 179.5 32.7234C179.85 32.7234 180.152 32.8666 180.407 33.1532C180.662 33.4238 180.789 33.7103 180.789 34.0128C180.789 34.3471 180.686 34.7371 180.479 35.1828C180.288 35.6286 179.977 36.1061 179.548 36.6155C179.118 37.109 178.616 37.5707 178.043 38.0005C177.47 38.4144 176.754 38.7646 175.894 39.0511C175.05 39.3218 174.159 39.4571 173.22 39.4571C171.978 39.4571 170.824 39.274 169.757 38.9079C168.707 38.5258 167.791 37.9925 167.011 37.308C166.231 36.6076 165.618 35.732 165.173 34.6814C164.727 33.6307 164.504 32.4527 164.504 31.1474C164.504 28.5685 165.276 26.5309 166.82 25.0345C168.365 23.5381 170.386 22.79 172.885 22.79C174.159 22.79 175.337 23.0049 176.419 23.4347C177.502 23.8645 178.362 24.4614 178.998 25.2256C179.635 25.9897 179.953 26.8254 179.953 27.7328C179.953 28.7834 179.603 29.7386 178.903 30.5982C178.202 31.4419 177.295 31.8637 176.181 31.8637C175.544 31.8637 174.971 31.6886 174.461 31.3384C173.952 30.9882 173.697 30.4868 173.697 29.8341C173.697 29.5316 173.841 29.1098 174.127 28.5685C174.43 28.0273 174.581 27.6452 174.581 27.4224ZM192.59 27.685C192.59 26.9209 192.311 26.3956 191.754 26.1091C191.197 25.8225 190.258 25.6792 188.937 25.6792V29.8102C190.178 29.8102 191.094 29.659 191.683 29.3565C192.288 29.0381 192.59 28.481 192.59 27.685ZM188.937 35.7082C188.937 38.096 188.005 39.2899 186.143 39.2899C185.204 39.2899 184.511 39.0432 184.065 38.5497C183.636 38.0403 183.421 37.1488 183.421 35.8753V25.7986C183.421 24.8753 183.667 24.1749 184.161 23.6973C184.67 23.2038 185.331 22.9571 186.143 22.9571H191.157C193.115 22.9571 194.699 23.4188 195.909 24.3421C197.119 25.2494 197.724 26.4195 197.724 27.8522C197.724 28.9347 197.493 29.7863 197.031 30.4072C196.586 31.0121 195.861 31.4578 194.858 31.7443C195.623 31.7921 196.331 32.1662 196.984 32.8666C197.636 33.5511 197.963 34.4108 197.963 35.4455C197.963 36.4961 197.859 37.308 197.652 37.8811C197.461 38.4383 197.183 38.8123 196.816 39.0034C196.45 39.1944 195.933 39.2899 195.264 39.2899C194.325 39.2899 193.633 39.0989 193.187 38.7168C192.757 38.3189 192.542 37.7219 192.542 36.926C192.542 35.939 192.447 35.1828 192.256 34.6575C192.065 34.1163 191.818 33.7661 191.515 33.6069C191.213 33.4477 190.791 33.3681 190.25 33.3681L188.937 33.392V35.7082ZM215.268 25.7986V32.9144C215.268 35.2386 214.703 36.91 213.573 37.9288C212.458 38.9317 210.572 39.4332 207.913 39.4332C205.382 39.4332 203.52 38.8919 202.326 37.8095C201.148 36.727 200.559 35.0953 200.559 32.9144V25.7986C200.559 24.9549 200.806 24.2704 201.299 23.7451C201.808 23.2038 202.445 22.9332 203.209 22.9332C204.149 22.9332 204.857 23.1083 205.335 23.4586C205.828 23.8088 206.075 24.5172 206.075 25.5837V33.3681C206.091 33.8775 206.17 34.2834 206.314 34.5859C206.473 34.8883 206.68 35.1032 206.934 35.2306C207.189 35.342 207.515 35.3977 207.913 35.3977C208.311 35.3977 208.638 35.35 208.892 35.2545C209.147 35.159 209.33 35.0077 209.442 34.8008C209.569 34.5938 209.649 34.3869 209.68 34.1799C209.728 33.973 209.752 33.7024 209.752 33.3681V25.5598C209.752 25.0186 209.816 24.5649 209.943 24.1988C210.086 23.8326 210.293 23.562 210.564 23.3869C210.85 23.2118 211.137 23.0924 211.423 23.0287C211.726 22.9651 212.084 22.9332 212.498 22.9332C213.421 22.9332 214.114 23.1561 214.575 23.6018C215.037 24.0476 215.268 24.7798 215.268 25.7986ZM232.468 30.5504L229.483 36.6633C229.228 37.1727 228.958 37.5388 228.671 37.7617C228.384 37.9686 228.042 38.0721 227.644 38.0721C227.135 38.0721 226.705 37.897 226.355 37.5468C226.005 37.1807 225.551 36.528 224.994 35.5888L222.224 30.5504V37.308C222.224 37.9925 222.065 38.494 221.746 38.8123C221.444 39.1307 220.982 39.2899 220.361 39.2899C219.661 39.2899 219.151 39.1387 218.833 38.8362C218.515 38.5178 218.356 37.905 218.356 36.9976V26.5866C218.356 25.3609 218.634 24.4376 219.191 23.8167C219.748 23.1959 220.688 22.8855 222.009 22.8855C222.502 22.8855 222.932 22.973 223.298 23.1481C223.664 23.3073 223.935 23.4983 224.11 23.7212C224.301 23.9282 224.484 24.1908 224.659 24.5092L227.859 31.5056L231.25 24.6286C231.839 23.4824 232.897 22.9093 234.426 22.9093C235.142 22.9093 235.755 23.0367 236.264 23.2914C236.774 23.5302 237.172 23.9282 237.458 24.4853C237.761 25.0266 237.912 25.7111 237.912 26.5389V36.926C237.896 38.5019 236.901 39.2899 234.927 39.2899C234.211 39.2899 233.622 39.0989 233.16 38.7168C232.714 38.3189 232.484 37.6821 232.468 36.8066V30.5504ZM250.071 27.5418C250.071 26.8732 249.809 26.4195 249.283 26.1807C248.774 25.926 247.914 25.7986 246.704 25.7986V29.452C247.453 29.452 248.057 29.3963 248.519 29.2849C248.997 29.1734 249.371 28.9824 249.641 28.7118C249.928 28.4253 250.071 28.0352 250.071 27.5418ZM250.382 33.9173C250.382 33.392 250.246 32.986 249.976 32.6995C249.705 32.4129 249.315 32.214 248.806 32.1025C248.296 31.9752 247.596 31.9115 246.704 31.9115V36.0425C247.946 36.0425 248.869 35.8912 249.474 35.5888C250.079 35.2704 250.382 34.7132 250.382 33.9173ZM253.319 30.7892C254.799 31.6648 255.539 32.8348 255.539 34.2993C255.539 34.9361 255.412 35.549 255.157 36.138C254.919 36.7111 254.552 37.2364 254.059 37.7139C253.581 38.1915 252.945 38.5736 252.149 38.8601C251.353 39.1307 250.453 39.266 249.45 39.266H243.911C242.94 39.266 242.239 39.0193 241.809 38.5258C241.395 38.0323 241.188 37.1488 241.188 35.8753V25.7748C241.188 25.2335 241.284 24.7559 241.475 24.3421C241.666 23.9282 241.968 23.5939 242.382 23.3392C242.812 23.0845 243.322 22.9571 243.911 22.9571H249.379C250.971 22.973 252.292 23.4108 253.343 24.2704C254.409 25.1141 254.942 26.2046 254.942 27.5418C254.942 27.9716 254.903 28.3536 254.823 28.6879C254.759 29.0063 254.656 29.2928 254.513 29.5475C254.369 29.8022 254.202 30.0251 254.011 30.2161C253.82 30.4072 253.589 30.5982 253.319 30.7892Z" fill="#7FC37E"/>
</svg>
