<svg width="800" height="800" viewBox="0 0 800 800" fill="none" xmlns="http://www.w3.org/2000/svg">
<g clip-path="url(#clip0_526_76)">
<path d="M450 784H350C346.8 784 343.8 782.275 342.2 779.475L292.2 692.875C290.6 690.1 290.6 686.675 292.2 683.9L342.2 597.3C343.8 594.525 346.775 592.775 350 592.775H444.8L517.2 467.375C519.7 463.025 525.2 461.6 529.475 464.075C533.8 466.575 535.25 472.05 532.775 476.35L460.375 601.775L507.775 683.875C509.375 686.65 509.375 690.075 507.775 692.85L457.775 779.45C456.175 782.275 453.225 784 450 784ZM355.2 766H444.8L489.6 688.4L444.8 610.8H355.2L310.4 688.4L355.2 766ZM700 639.825H600C596.775 639.825 593.825 638.1 592.2 635.3L542.2 548.675C540.6 545.9 540.6 542.475 542.2 539.7L589.6 457.6L517.2 332.2C514.7 327.9 516.175 322.375 520.5 319.9C524.775 317.4 530.3 318.875 532.775 323.175L605.175 448.575H700C703.225 448.575 706.175 450.3 707.8 453.1L757.8 539.7C759.4 542.475 759.4 545.9 757.8 548.675L707.8 635.3C706.175 638.075 703.225 639.825 700 639.825ZM605.2 621.8H694.8L739.6 544.2L694.8 466.6H605.2L560.4 544.2L605.2 621.8ZM200 639.825H100C96.8 639.825 93.8 638.1 92.2 635.3L42.2 548.675C40.6 545.9 40.6 542.475 42.2 539.7L92.2 453.1C93.8 450.325 96.8 448.575 100 448.575H200C203.2 448.575 206.2 450.3 207.8 453.1L255.2 535.175H400C404.975 535.175 409 539.2 409 544.175C409 549.15 404.975 553.175 400 553.175H255.2L207.8 635.275C206.2 638.075 203.2 639.825 200 639.825ZM105.2 621.8H194.8L239.6 544.2L194.8 466.6H105.2L60.4 544.2L105.2 621.8ZM275 481.325C271.875 481.325 268.85 479.725 267.2 476.8L194.8 351.4H100C96.8 351.4 93.8 349.7 92.2 346.9L42.2 260.3C40.6 257.525 40.6 254.075 42.2 251.3L92.2 164.7C93.8 161.925 96.8 160.2 100 160.2H200C203.2 160.2 206.2 161.9 207.8 164.7L257.8 251.3C259.4 254.075 259.4 257.525 257.8 260.3L210.4 342.4L282.8 467.825C285.275 472.125 283.8 477.625 279.5 480.1C278.1 480.925 276.55 481.325 275 481.325ZM105.2 333.4H194.8L239.6 255.8L194.8 178.2H105.2L60.4 255.8L105.2 333.4ZM700 351.4H600C596.775 351.4 593.825 349.7 592.2 346.9L544.8 264.775H400C395.025 264.775 391 260.75 391 255.775C391 250.8 395.025 246.775 400 246.775H544.8L592.2 164.675C593.8 161.9 596.775 160.175 600 160.175H700C703.225 160.175 706.175 161.875 707.8 164.675L757.8 251.275C759.4 254.05 759.4 257.5 757.8 260.275L707.8 346.875C706.175 349.7 703.225 351.4 700 351.4ZM605.2 333.4H694.8L739.6 255.8L694.8 178.2H605.2L560.4 255.8L605.2 333.4ZM275 337.1C273.475 337.1 271.925 336.725 270.5 335.9C266.2 333.4 264.725 327.9 267.2 323.6L339.6 198.2L292.2 116.1C290.6 113.3 290.6 109.875 292.2 107.1L342.2 20.5C343.8 17.7 346.8 16 350 16H450C453.225 16 456.175 17.7 457.8 20.5L507.8 107.1C509.4 109.875 509.4 113.325 507.8 116.1L457.8 202.7C456.175 205.5 453.225 207.2 450 207.2H355.2L282.8 332.625C281.125 335.5 278.1 337.1 275 337.1ZM355.2 189.2H444.8L489.6 111.6L444.8 34H355.2L310.4 111.6L355.2 189.2Z" fill="#1B6C1B"/>
</g>
<defs>
<clipPath id="clip0_526_76">
<rect width="800" height="800" fill="white"/>
</clipPath>
</defs>
</svg>
