<svg width="800" height="800" viewBox="0 0 800 800" fill="none" xmlns="http://www.w3.org/2000/svg">
<g clip-path="url(#clip0_522_219)">
<path d="M766.667 400C766.667 346.957 745.595 296.086 708.088 258.579C670.581 221.071 619.71 200 566.667 200C480 200 408.333 268.333 368.333 390C338.333 481.667 288.333 533.333 233.333 533.333C197.971 533.333 164.057 519.286 139.053 494.281C114.048 469.276 100 435.362 100 400C100 364.638 114.048 330.724 139.053 305.719C164.057 280.714 197.971 266.667 233.333 266.667H253.333L226.667 293.333C223.044 296.54 220.204 300.535 218.365 305.011C216.526 309.486 215.737 314.324 216.059 319.152C216.381 323.98 217.805 328.67 220.221 332.861C222.638 337.053 225.983 340.636 230 343.333C236.689 348.175 244.874 350.497 253.109 349.887C261.344 349.277 269.098 345.775 275 340L356.667 256.667C359.9 253.7 362.481 250.094 364.247 246.078C366.013 242.061 366.925 237.721 366.925 233.333C366.925 228.946 366.013 224.606 364.247 220.589C362.481 216.572 359.9 212.966 356.667 210L275 126.667C269.098 120.892 261.344 117.39 253.109 116.78C244.874 116.17 236.689 118.491 230 123.333C225.983 126.031 222.638 129.613 220.221 133.805C217.805 137.997 216.381 142.687 216.059 147.515C215.737 152.343 216.526 157.18 218.365 161.656C220.204 166.132 223.044 170.126 226.667 173.333L253.333 200H233.333C180.29 200 129.419 221.071 91.9121 258.579C54.4049 296.086 33.3335 346.957 33.3335 400C33.3335 453.043 54.4049 503.914 91.9121 541.421C129.419 578.929 180.29 600 233.333 600C320 600 391.667 531.667 431.667 410C461.667 318.333 511.667 266.667 566.667 266.667C602.029 266.667 635.943 280.714 660.948 305.719C685.953 330.724 700 364.638 700 400C700 435.362 685.953 469.276 660.948 494.281C635.943 519.286 602.029 533.333 566.667 533.333H546.667L573.333 506.667C576.957 503.46 579.797 499.465 581.636 494.989C583.474 490.514 584.263 485.676 583.941 480.848C583.619 476.021 582.195 471.331 579.779 467.139C577.362 462.947 574.017 459.364 570 456.667C563.311 451.825 555.126 449.504 546.891 450.114C538.656 450.724 530.902 454.225 525 460L443.333 543.333C440.1 546.3 437.519 549.906 435.753 553.922C433.987 557.939 433.076 562.279 433.076 566.667C433.076 571.054 433.987 575.394 435.753 579.411C437.519 583.428 440.1 587.034 443.333 590L525 673.333C530.902 679.108 538.656 682.61 546.891 683.22C555.126 683.83 563.311 681.509 570 676.667C574.017 673.969 577.362 670.387 579.779 666.195C582.195 662.003 583.619 657.313 583.941 652.485C584.263 647.657 583.474 642.82 581.636 638.344C579.797 633.868 576.957 629.874 573.333 626.667L546.667 600H566.667C619.71 600 670.581 578.929 708.088 541.421C745.595 503.914 766.667 453.043 766.667 400Z" fill="#1B6C1B"/>
<path d="M766.667 400C766.667 346.957 745.595 296.086 708.088 258.579C670.581 221.071 619.71 200 566.667 200C480 200 408.333 268.333 368.333 390C338.333 481.667 288.333 533.333 233.333 533.333C197.971 533.333 164.057 519.286 139.053 494.281C114.048 469.276 100 435.362 100 400C100 364.638 114.048 330.724 139.053 305.719C164.057 280.714 197.971 266.667 233.333 266.667H253.333L226.667 293.333C223.044 296.54 220.204 300.535 218.365 305.011C216.526 309.486 215.737 314.324 216.059 319.152C216.381 323.98 217.805 328.67 220.221 332.861C222.638 337.053 225.983 340.636 230 343.333C236.689 348.175 244.874 350.497 253.109 349.887C261.344 349.277 269.098 345.775 275 340L356.667 256.667C359.9 253.7 362.481 250.094 364.247 246.078C366.013 242.061 366.925 237.721 366.925 233.333C366.925 228.946 366.013 224.606 364.247 220.589C362.481 216.572 359.9 212.966 356.667 210L275 126.667C269.098 120.892 261.344 117.39 253.109 116.78C244.874 116.17 236.689 118.491 230 123.333C225.983 126.031 222.638 129.613 220.221 133.805C217.805 137.997 216.381 142.687 216.059 147.515C215.737 152.343 216.526 157.18 218.365 161.656C220.204 166.132 223.044 170.126 226.667 173.333L253.333 200H233.333C180.29 200 129.419 221.071 91.9121 258.579C54.4049 296.086 33.3335 346.957 33.3335 400C33.3335 453.043 54.4049 503.914 91.9121 541.421C129.419 578.929 180.29 600 233.333 600C320 600 391.667 531.667 431.667 410C461.667 318.333 511.667 266.667 566.667 266.667C602.029 266.667 635.943 280.714 660.948 305.719C685.953 330.724 700 364.638 700 400C700 435.362 685.953 469.276 660.948 494.281C635.943 519.286 602.029 533.333 566.667 533.333H546.667L573.333 506.667C576.957 503.46 579.797 499.465 581.636 494.989C583.474 490.514 584.263 485.676 583.941 480.848C583.619 476.021 582.195 471.331 579.779 467.139C577.362 462.947 574.017 459.364 570 456.667C563.311 451.825 555.126 449.504 546.891 450.114C538.656 450.724 530.902 454.225 525 460L443.333 543.333C440.1 546.3 437.519 549.906 435.753 553.922C433.987 557.939 433.076 562.279 433.076 566.667C433.076 571.054 433.987 575.394 435.753 579.411C437.519 583.428 440.1 587.034 443.333 590L525 673.333C530.902 679.108 538.656 682.61 546.891 683.22C555.126 683.83 563.311 681.509 570 676.667C574.017 673.969 577.362 670.387 579.779 666.195C582.195 662.003 583.619 657.313 583.941 652.485C584.263 647.657 583.474 642.82 581.636 638.344C579.797 633.868 576.957 629.874 573.333 626.667L546.667 600H566.667C619.71 600 670.581 578.929 708.088 541.421C745.595 503.914 766.667 453.043 766.667 400Z" stroke="black"/>
</g>
<defs>
<clipPath id="clip0_522_219">
<rect width="800" height="800" fill="white"/>
</clipPath>
</defs>
</svg>
