<svg width="16" height="16" viewBox="0 0 16 16" fill="none" xmlns="http://www.w3.org/2000/svg">
<path d="M11.4699 0.626411C5.35313 -0.910869 2.70566 0.669332 1.93335 2.27218C3.15738 1.1115 5.59887 0.259577 10.495 1.28761C16.6152 2.57265 15.0043 6.62473 13.6491 8.19993C15.4415 7.41233 18.8141 2.47217 11.4699 0.626411Z" fill="#7FC37E"/>
<path d="M1.27768 3.34985C-1.27531 5.63805 0.592803 7.60567 1.75855 8.28273C1.51083 10.2587 0.81428 14.3514 0.709363 15.081C0.81428 15.9101 1.33596 16.0344 1.58369 15.993H13.1683C14.3923 15.993 14.3049 14.7494 14.3486 13.2985C14.3923 11.8477 14.2175 10.1067 11.7257 9.07034C13.4743 7.45367 14.0863 7.03916 13.9115 5.42249C13.7366 3.80583 12.2503 2.93531 11.2885 2.47933C10.6328 2.02334 4.46891 0.489605 1.27768 3.34985Z" fill="#7FC37E"/>
<path d="M2.0645 4.01301C-0.0903407 5.94435 1.82372 7.25521 2.80766 7.82668C2.59857 9.49445 1.93447 13.7604 1.84592 14.3762C1.70881 15.3296 2.23037 15.1574 2.43946 15.1224H12.5125C13.5617 15.1224 13.2188 14.0256 13.2557 12.801C13.2926 11.5764 11.9005 9.6506 9.40871 9.6506C10.8846 8.28606 13.1234 7.31037 12.9758 5.94583C12.8282 4.58129 11.5757 3.73461 10.7639 3.34974C10.2104 2.96487 4.75804 1.59883 2.0645 4.01301Z" fill="white"/>
<path d="M10.1956 5.42285H4.07544V6.83225H6.43608V13.0502H8.00984V6.83225H10.1956V5.42285Z" fill="#7FC37E"/>
</svg>
