<svg width="542" height="542" viewBox="0 0 542 542" fill="none" xmlns="http://www.w3.org/2000/svg">
<g filter="url(#filter0_dd_565_103)">
<circle cx="271" cy="271" r="250" fill="#0E1C26"/>
</g>
<path d="M269.367 176.326C269.985 174.525 272.533 174.525 273.151 176.326L294.273 237.89C294.546 238.684 295.285 239.223 296.124 239.241L360.495 240.57C362.384 240.609 363.171 243.004 361.672 244.155L310.323 283.597C309.665 284.102 309.387 284.961 309.625 285.755L328.275 348.211C328.818 350.03 326.758 351.512 325.206 350.418L272.412 313.198C271.721 312.711 270.798 312.711 270.107 313.198L217.312 350.418C215.76 351.512 213.7 350.03 214.243 348.211L232.894 285.755C233.131 284.961 232.853 284.102 232.196 283.597L180.846 244.155C179.348 243.004 180.134 240.609 182.023 240.57L246.395 239.241C247.234 239.223 247.973 238.684 248.245 237.89L269.367 176.326Z" fill="#7FC37E"/>
<defs>
<filter id="filter0_dd_565_103" x="0" y="0" width="542" height="542" filterUnits="userSpaceOnUse" color-interpolation-filters="sRGB">
<feFlood flood-opacity="0" result="BackgroundImageFix"/>
<feColorMatrix in="SourceAlpha" type="matrix" values="0 0 0 0 0 0 0 0 0 0 0 0 0 0 0 0 0 0 127 0" result="hardAlpha"/>
<feMorphology radius="4" operator="dilate" in="SourceAlpha" result="effect1_dropShadow_565_103"/>
<feOffset dx="1" dy="-1"/>
<feGaussianBlur stdDeviation="8"/>
<feComposite in2="hardAlpha" operator="out"/>
<feColorMatrix type="matrix" values="0 0 0 0 0.466667 0 0 0 0 0.435294 0 0 0 0 0.435294 0 0 0 0.2 0"/>
<feBlend mode="normal" in2="BackgroundImageFix" result="effect1_dropShadow_565_103"/>
<feColorMatrix in="SourceAlpha" type="matrix" values="0 0 0 0 0 0 0 0 0 0 0 0 0 0 0 0 0 0 127 0" result="hardAlpha"/>
<feMorphology radius="4" operator="dilate" in="SourceAlpha" result="effect2_dropShadow_565_103"/>
<feOffset dx="-1" dy="1"/>
<feGaussianBlur stdDeviation="8"/>
<feComposite in2="hardAlpha" operator="out"/>
<feColorMatrix type="matrix" values="0 0 0 0 0.466667 0 0 0 0 0.435294 0 0 0 0 0.435294 0 0 0 0.2 0"/>
<feBlend mode="normal" in2="effect1_dropShadow_565_103" result="effect2_dropShadow_565_103"/>
<feBlend mode="normal" in="SourceGraphic" in2="effect2_dropShadow_565_103" result="shape"/>
</filter>
</defs>
</svg>
