<svg width="800" height="800" viewBox="0 0 800 800" fill="none" xmlns="http://www.w3.org/2000/svg">
<path d="M667.734 646.953H132.734C102.344 646.953 77.6562 622.266 77.6562 591.875V202.031C77.6562 171.641 102.344 146.953 132.734 146.953H667.656C698.047 146.953 722.734 171.641 722.734 202.031V591.875C722.812 622.266 698.125 646.953 667.734 646.953Z" fill="white"/>
<path d="M691.563 201.641C691.563 188.75 681.016 178.203 668.125 178.203H132.344C119.453 178.203 108.906 188.75 108.906 201.641V295.469H691.484V201.641H691.563ZM183.984 276.719C161.953 276.719 143.984 258.75 143.984 236.719C143.984 214.687 161.953 196.719 183.984 196.719C206.016 196.719 223.984 214.687 223.984 236.719C223.984 258.75 206.094 276.719 183.984 276.719ZM404.141 271.406H292.734C273.906 271.406 258.594 256.094 258.594 237.266C258.594 218.438 273.906 203.125 292.734 203.125H404.141C422.969 203.125 438.281 218.438 438.281 237.266C438.281 256.094 422.969 271.406 404.141 271.406Z" fill="#E6E6E6"/>
<path d="M166.641 588.125H400.078C404.375 588.125 407.891 584.609 407.891 580.313C407.891 576.016 404.375 572.5 400.078 572.5H166.641C160 572.5 154.609 567.109 154.609 560.469V409.844C154.609 405.547 151.094 402.031 146.797 402.031C142.5 402.031 138.984 405.547 138.984 409.844V560.547C139.063 575.703 151.406 588.125 166.641 588.125Z" fill="#1B6C1B"/>
<path d="M183.984 212.344C170.547 212.344 159.609 223.281 159.609 236.719C159.609 250.156 170.547 261.094 183.984 261.094C197.422 261.094 208.359 250.156 208.359 236.719C208.359 223.281 197.422 212.344 183.984 212.344Z" fill="white"/>
<path d="M183.984 196.719C161.953 196.719 143.984 214.687 143.984 236.719C143.984 258.75 161.953 276.719 183.984 276.719C206.016 276.719 223.984 258.75 223.984 236.719C223.984 214.687 206.094 196.719 183.984 196.719ZM183.984 261.094C170.547 261.094 159.609 250.156 159.609 236.719C159.609 223.281 170.547 212.344 183.984 212.344C197.422 212.344 208.359 223.281 208.359 236.719C208.359 250.156 197.422 261.094 183.984 261.094Z" fill="#1B6C1B"/>
<path d="M404.141 218.828H292.734C282.578 218.828 274.219 227.109 274.219 237.344C274.219 247.578 282.5 255.859 292.734 255.859H404.141C414.297 255.859 422.656 247.578 422.656 237.344C422.656 227.109 414.297 218.828 404.141 218.828Z" fill="white"/>
<path d="M404.141 203.203H292.734C273.906 203.203 258.594 218.516 258.594 237.344C258.594 256.172 273.906 271.484 292.734 271.484H404.141C422.969 271.484 438.281 256.172 438.281 237.344C438.281 218.516 422.969 203.203 404.141 203.203ZM404.141 255.781H292.734C282.578 255.781 274.219 247.5 274.219 237.266C274.219 227.031 282.5 218.75 292.734 218.75H404.141C414.297 218.75 422.656 227.031 422.656 237.266C422.656 247.5 414.297 255.781 404.141 255.781Z" fill="#1B6C1B"/>
<path d="M668.125 146.953H132.344C102.187 146.953 77.6562 171.484 77.6562 201.641V592.266C77.6562 622.422 102.187 646.953 132.344 646.953H668.047C698.203 646.953 722.734 622.422 722.734 592.266V201.641C722.812 171.484 698.281 146.953 668.125 146.953ZM691.562 592.266C691.562 605.156 681.016 615.703 668.125 615.703H132.344C119.453 615.703 108.906 605.156 108.906 592.266V311.094H691.484V592.266H691.562ZM691.562 295.469H108.984V201.641C108.984 188.75 119.531 178.203 132.422 178.203H668.125C681.016 178.203 691.562 188.75 691.562 201.641V295.469Z" fill="#1B6C1B"/>
<path d="M359.297 487.969L270 452.578L359.297 418.437V382.109L231.328 437.5V468.359L359.297 523.984V487.969ZM444.297 355.312H417.422L371.172 548.438H397.578L444.297 355.312ZM584.297 437.734L456.172 382.344V418.125L545.547 452.891L456.172 488.047V524.141L584.297 468.359V437.734Z" fill="#1B6C1B"/>
</svg>
