<svg width="542" height="542" viewBox="0 0 542 542" fill="none" xmlns="http://www.w3.org/2000/svg">
<g filter="url(#filter0_dd_565_103)">
<circle cx="271" cy="271" r="250" fill="#0E1C26"/>
</g>
<path d="M267.926 361.305C249.101 361.911 230.531 356.77 214.626 346.55C198.721 336.329 186.216 321.501 178.733 303.991C171.25 286.48 169.135 267.094 172.663 248.35C176.19 229.606 185.198 212.369 198.516 198.877C211.833 185.384 228.847 176.258 247.348 172.684C265.849 169.11 284.984 171.253 302.268 178.834C319.552 186.415 334.188 199.085 344.276 215.199C354.364 231.312 359.438 250.126 358.84 269.198C355.19 266.15 351.22 263.517 347.003 261.346C346.527 252.817 344.753 244.413 341.742 236.434H309.649C310.565 242.263 311.222 248.331 311.586 254.577C307.644 254.957 303.744 255.706 299.937 256.813C299.61 249.982 298.881 243.177 297.753 236.434H232.134C230.502 246.261 229.693 256.211 229.714 266.176C229.714 276.681 230.572 286.699 232.134 295.919H257.604C256.121 299.768 255.005 303.752 254.269 307.816H234.635C236.431 314.835 238.651 321.212 241.211 326.756C246.847 338.986 253.435 345.958 259.729 348.421C261.961 353.061 264.72 357.367 267.926 361.305ZM288.688 205.596C281.466 189.916 272.658 182.897 264.943 182.897C257.228 182.897 248.421 189.916 241.199 205.596C238.45 211.694 236.257 218.034 234.647 224.537H295.264C293.646 218.033 291.445 211.693 288.688 205.596ZM222.54 224.537C224.606 215.697 227.319 207.619 230.56 200.564C232.744 195.817 235.269 191.367 238.099 187.441C219.395 194.01 203.648 207.177 193.734 224.537H222.54ZM217.972 266.176C217.972 255.826 218.758 245.808 220.238 236.434H188.144C184.563 245.93 182.732 256.011 182.743 266.176C182.743 276.646 184.657 286.687 188.144 295.919H220.238C218.714 286.08 217.956 276.135 217.972 266.176ZM230.56 331.789C227.092 324.094 224.405 316.061 222.54 307.816H193.734C203.648 325.175 219.395 338.342 238.099 344.911C235.175 340.793 232.651 336.398 230.56 331.789ZM336.153 224.537C326.24 207.176 310.492 194.009 291.788 187.441C294.618 191.367 297.143 195.817 299.327 200.564C302.568 207.619 305.28 215.697 307.347 224.537H336.153ZM317.787 373.25C331.802 373.25 345.242 367.61 355.153 357.569C365.063 347.529 370.63 333.912 370.63 319.713C370.63 305.514 365.063 291.897 355.153 281.857C345.242 271.817 331.802 266.176 317.787 266.176C303.772 266.176 290.331 271.817 280.421 281.857C270.511 291.897 264.943 305.514 264.943 319.713C264.943 333.912 270.511 347.529 280.421 357.569C290.331 367.61 303.772 373.25 317.787 373.25ZM328.989 306.531H347.121C352.816 306.531 355.188 314.229 350.585 317.762L335.906 329.029L341.507 347.255C343.269 352.965 337.069 357.724 332.465 354.191L317.787 342.924L303.108 354.191C298.505 357.724 292.304 352.965 294.066 347.255L299.667 329.029L284.989 317.762C280.385 314.229 282.757 306.531 288.441 306.531H306.596L312.197 288.317C312.536 287.079 313.266 285.988 314.276 285.21C315.285 284.433 316.519 284.012 317.787 284.012C319.055 284.012 320.288 284.433 321.297 285.21C322.307 285.988 323.037 287.079 323.376 288.317L328.989 306.531Z" fill="#7FC37E"/>
<defs>
<filter id="filter0_dd_565_103" x="0" y="0" width="542" height="542" filterUnits="userSpaceOnUse" color-interpolation-filters="sRGB">
<feFlood flood-opacity="0" result="BackgroundImageFix"/>
<feColorMatrix in="SourceAlpha" type="matrix" values="0 0 0 0 0 0 0 0 0 0 0 0 0 0 0 0 0 0 127 0" result="hardAlpha"/>
<feMorphology radius="4" operator="dilate" in="SourceAlpha" result="effect1_dropShadow_565_103"/>
<feOffset dx="1" dy="-1"/>
<feGaussianBlur stdDeviation="8"/>
<feComposite in2="hardAlpha" operator="out"/>
<feColorMatrix type="matrix" values="0 0 0 0 0.466667 0 0 0 0 0.435294 0 0 0 0 0.435294 0 0 0 0.2 0"/>
<feBlend mode="normal" in2="BackgroundImageFix" result="effect1_dropShadow_565_103"/>
<feColorMatrix in="SourceAlpha" type="matrix" values="0 0 0 0 0 0 0 0 0 0 0 0 0 0 0 0 0 0 127 0" result="hardAlpha"/>
<feMorphology radius="4" operator="dilate" in="SourceAlpha" result="effect2_dropShadow_565_103"/>
<feOffset dx="-1" dy="1"/>
<feGaussianBlur stdDeviation="8"/>
<feComposite in2="hardAlpha" operator="out"/>
<feColorMatrix type="matrix" values="0 0 0 0 0.466667 0 0 0 0 0.435294 0 0 0 0 0.435294 0 0 0 0.2 0"/>
<feBlend mode="normal" in2="effect1_dropShadow_565_103" result="effect2_dropShadow_565_103"/>
<feBlend mode="normal" in="SourceGraphic" in2="effect2_dropShadow_565_103" result="shape"/>
</filter>
</defs>
</svg>
