<svg width="500" height="500" viewBox="0 0 500 500" fill="none" xmlns="http://www.w3.org/2000/svg">
<path d="M429.44 138.17C428.78 139.18 428.33 140.29 428.09 141.44L426.26 141.61V145.15L428.09 145.32C428.33 146.47 428.77 147.58 429.44 148.59L428.27 150L430.77 152.5L432.18 151.33C433.19 151.99 434.3 152.44 435.45 152.68L435.62 154.51H439.16L439.33 152.68C440.48 152.44 441.59 151.99 442.6 151.33L444.01 152.5L446.51 150L445.34 148.59C446 147.58 446.45 146.47 446.69 145.32L448.52 145.15V141.61L446.69 141.44C446.45 140.29 446 139.18 445.34 138.17L446.51 136.76L444.01 134.26L442.6 135.43C441.59 134.77 440.48 134.32 439.33 134.08L439.16 132.25H435.62L435.45 134.08C434.3 134.32 433.19 134.77 432.18 135.43L430.77 134.26L428.27 136.76L429.44 138.17ZM440.78 140C442.65 141.87 442.65 144.9 440.78 146.77C438.91 148.64 435.88 148.64 434.01 146.77C432.14 144.9 432.14 141.87 434.01 140C435.88 138.13 438.91 138.13 440.78 140Z" fill="#E0E0E0"/>
<path d="M420.63 301.44C419.81 302.69 419.26 304.06 418.96 305.48L416.71 305.69V310.06L418.97 310.27C419.26 311.69 419.82 313.06 420.64 314.31L419.2 316.05L422.29 319.14L424.03 317.7C425.28 318.52 426.65 319.07 428.07 319.37L428.28 321.63H432.65L432.86 319.37C434.28 319.08 435.65 318.52 436.9 317.7L438.64 319.14L441.73 316.05L440.29 314.31C441.11 313.06 441.66 311.69 441.96 310.27L444.21 310.06V305.69L441.96 305.48C441.67 304.06 441.11 302.69 440.29 301.44L441.73 299.7L438.64 296.61L436.9 298.05C435.65 297.23 434.28 296.68 432.86 296.38L432.65 294.12H428.28L428.07 296.38C426.65 296.67 425.28 297.23 424.03 298.05L422.29 296.61L419.2 299.7L420.64 301.44H420.63ZM434.63 303.69C436.94 306 436.94 309.74 434.63 312.05C432.32 314.36 428.58 314.36 426.27 312.05C423.96 309.74 423.96 306 426.27 303.69C428.58 301.38 432.32 301.38 434.63 303.69Z" fill="#E0E0E0"/>
<path d="M227.02 130.16C230.179 130.16 232.74 127.599 232.74 124.44C232.74 121.281 230.179 118.72 227.02 118.72C223.861 118.72 221.3 121.281 221.3 124.44C221.3 127.599 223.861 130.16 227.02 130.16Z" fill="#E0E0E0"/>
<path d="M301.27 146.48C303.418 146.48 305.16 144.738 305.16 142.59C305.16 140.442 303.418 138.7 301.27 138.7C299.121 138.7 297.38 140.442 297.38 142.59C297.38 144.738 299.121 146.48 301.27 146.48Z" fill="#E0E0E0"/>
<path d="M402.29 225.6C404.438 225.6 406.18 223.858 406.18 221.71C406.18 219.562 404.438 217.82 402.29 217.82C400.142 217.82 398.4 219.562 398.4 221.71C398.4 223.858 400.142 225.6 402.29 225.6Z" fill="#E0E0E0"/>
<path d="M329 317.62C330.193 317.62 331.16 316.653 331.16 315.46C331.16 314.267 330.193 313.3 329 313.3C327.807 313.3 326.84 314.267 326.84 315.46C326.84 316.653 327.807 317.62 329 317.62Z" fill="#E0E0E0"/>
<path d="M269.07 117.89C270.263 117.89 271.23 116.923 271.23 115.73C271.23 114.537 270.263 113.57 269.07 113.57C267.877 113.57 266.91 114.537 266.91 115.73C266.91 116.923 267.877 117.89 269.07 117.89Z" fill="#E0E0E0"/>
<path d="M411.39 278.04C411.39 279.48 410.22 280.65 408.78 280.65C407.34 280.65 406.17 279.48 406.17 278.04C406.17 276.6 407.34 275.43 408.78 275.43C410.22 275.43 411.39 276.6 411.39 278.04Z" fill="#E0E0E0"/>
<path d="M266.46 323.97C267.901 323.97 269.07 322.801 269.07 321.36C269.07 319.919 267.901 318.75 266.46 318.75C265.018 318.75 263.85 319.919 263.85 321.36C263.85 322.801 265.018 323.97 266.46 323.97Z" fill="#E0E0E0"/>
<path d="M96.7899 268.59C96.7899 270.03 95.6199 271.2 94.1799 271.2C92.7399 271.2 91.5699 270.03 91.5699 268.59C91.5699 267.15 92.7399 265.98 94.1799 265.98C95.6199 265.98 96.7899 267.15 96.7899 268.59Z" fill="#E0E0E0"/>
<path d="M185.63 331.92C187.071 331.92 188.24 330.751 188.24 329.31C188.24 327.868 187.071 326.7 185.63 326.7C184.188 326.7 183.02 327.868 183.02 329.31C183.02 330.751 184.188 331.92 185.63 331.92Z" fill="#E0E0E0"/>
<path d="M269.07 321.88L268.92 321.84L93.2699 269.42L93.8199 268.83L227.13 124.91L408.74 277.32L407.88 277.6L269.08 321.88H269.07ZM95.0999 268.91L269.06 320.83L406.7 276.92L227.21 126.29L95.0999 268.92V268.91Z" fill="#E0E0E0"/>
<path d="M266.3 322.28L266.09 322.03L151.19 190.65L301.62 142L301.84 142.27L408.58 277.37L407.89 277.59L266.32 322.27L266.3 322.28ZM152.93 191.14L266.62 321.13L406.88 276.86L301.26 143.17L152.94 191.13L152.93 191.14Z" fill="#E0E0E0"/>
<path d="M184.12 330.21L184.06 329.72C176.4 265.03 161.68 141.99 160.82 139.38L160.13 138.28L161.42 138.71L365.82 196.84L266.71 322.18L184.11 330.21H184.12ZM161.91 139.89C164.12 153.15 181.29 297.8 185 329.12L266.2 321.23L364.11 197.39L161.91 139.89Z" fill="#E0E0E0"/>
<path d="M330.01 315.88L329.74 315.86L176.72 303.27L176.59 303.02C165.97 282.27 131.38 214.41 132.11 212.33L132.18 212.12L132.39 212.03L301.5 142.01L301.73 142.19L402.7 221.61L402.4 222L330 315.87L330.01 315.88ZM177.36 302.31L329.55 314.84L401.32 221.79L301.36 143.16L133.14 212.81C134.41 217.55 159.99 268.36 177.37 302.31H177.36Z" fill="#E0E0E0"/>
<path d="M291.46 333.47L290.88 333.29L135.84 285.66L269.11 114.24L307.92 176.24L307.9 176.41L291.46 333.47ZM137.52 285.13L290.6 332.16L306.9 176.47L269.03 115.97L137.53 285.13H137.52Z" fill="#E0E0E0"/>
<path d="M254.09 357.45C252.89 359.28 252.08 361.28 251.65 363.35L248.35 363.66V370.04L251.65 370.35C252.08 372.42 252.89 374.43 254.09 376.25L251.98 378.79L256.49 383.3L259.03 381.19C260.86 382.39 262.86 383.2 264.93 383.63L265.24 386.93H271.62L271.93 383.63C274 383.2 276.01 382.39 277.83 381.19L280.37 383.3L284.89 378.79L282.78 376.25C283.98 374.42 284.79 372.42 285.22 370.35L288.52 370.04V363.66L285.22 363.35C284.79 361.28 283.98 359.27 282.78 357.45L284.89 354.91L280.38 350.4L277.84 352.51C276.01 351.31 274.01 350.5 271.94 350.07L271.63 346.77H265.24L264.93 350.07C262.86 350.5 260.85 351.31 259.03 352.51L256.49 350.4L251.98 354.92L254.09 357.46V357.45ZM274.56 360.75C277.94 364.13 277.94 369.6 274.56 372.97C271.18 376.35 265.71 376.35 262.34 372.97C258.97 369.59 258.96 364.12 262.34 360.75C265.72 357.37 271.19 357.37 274.56 360.75Z" fill="#E0E0E0"/>
<path d="M453.42 456.27C453.42 459.66 359.9 462.4 244.55 462.4C129.2 462.4 35.6801 459.65 35.6801 456.27C35.6801 452.89 129.2 450.14 244.55 450.14C359.9 450.14 453.42 452.89 453.42 456.27Z" fill="#33474D"/>
<path d="M197.51 440.51C194.3 436.48 188.81 434.39 183.72 435.27C183.83 429.43 181.33 423.59 177.04 419.63C172.75 415.67 166.73 413.65 160.92 414.22C160.72 404.86 151.55 396.77 142.26 397.54V312.21H92.37V397.54C83.08 396.77 73.91 404.86 73.71 414.22C67.9 413.65 61.88 415.67 57.59 419.63C53.3 423.59 50.81 429.43 50.91 435.27C45.83 434.39 40.34 436.47 37.12 440.51C33.91 444.54 33.1 450.36 35.1 455.12H199.54C201.54 450.36 200.73 444.55 197.52 440.51H197.51Z" fill="#7FC37E"/>
<path opacity="0.8" d="M197.51 440.51C194.3 436.48 188.81 434.39 183.72 435.27C183.83 429.43 181.33 423.59 177.04 419.63C172.75 415.67 166.73 413.65 160.92 414.22C160.72 404.86 151.55 396.77 142.26 397.54V312.21H92.37V397.54C83.08 396.77 73.91 404.86 73.71 414.22C67.9 413.65 61.88 415.67 57.59 419.63C53.3 423.59 50.81 429.43 50.91 435.27C45.83 434.39 40.34 436.47 37.12 440.51C33.91 444.54 33.1 450.36 35.1 455.12H199.54C201.54 450.36 200.73 444.55 197.52 440.51H197.51Z" fill="#33474D"/>
<path d="M72.04 177.81C72.04 177.81 47.78 190.04 40.48 220.67C35.16 243.01 36.77 285.17 46.36 288.56C55.95 291.95 57.02 265.84 57.1 256.56C57.18 247.28 65.88 235.95 73.63 235.27C73.63 235.27 75.15 186.28 72.04 177.81Z" fill="#7FC37E"/>
<path opacity="0.2" d="M75.6699 183.89C69.9299 186.08 65.22 190.27 61.4 194.97C57.33 200.13 53.98 205.83 51.45 211.89C48.64 218.37 46.59 225.16 45.35 232.11C44.19 239.44 43.62 246.84 43.65 254.26C43.52 263.33 43.3 272.78 46.84 281.33C46.98 281.67 47.54 281.52 47.4 281.18C44.34 273.73 44.15 265.59 44.21 257.65C44.27 250.16 44.39 242.63 45.45 235.2C47.35 222 52.16 208.65 59.99 197.79C64.05 192.16 69.2599 186.96 75.8499 184.45C76.1999 184.31 76.0499 183.76 75.6999 183.89H75.68H75.6699Z" fill="black"/>
<path d="M155.14 177.81C155.14 177.81 179.4 190.04 186.7 220.67C192.02 243.01 190.41 285.17 180.82 288.56C171.23 291.94 170.16 265.84 170.08 256.56C170 247.28 161.3 235.95 153.56 235.27C153.56 235.27 152.04 186.28 155.15 177.81H155.14Z" fill="#7FC37E"/>
<path opacity="0.2" d="M151.36 184.44C157.13 186.64 161.84 190.92 165.64 195.7C169.61 200.83 172.87 206.46 175.34 212.46C178.11 218.91 180.12 225.66 181.33 232.57C182.6 239.85 182.85 247.24 182.93 254.62C183.05 263.53 183.24 272.78 179.79 281.18C179.65 281.52 180.21 281.67 180.35 281.33C183.45 273.78 183.61 265.52 183.54 257.47C183.48 249.88 183.34 242.26 182.24 234.74C181.18 227.58 179.26 220.57 176.53 213.86C174.16 207.8 171.02 202.07 167.19 196.81C163.14 191.33 157.98 186.37 151.52 183.9C151.17 183.76 151.02 184.32 151.37 184.46L151.36 184.44Z" fill="black"/>
<path d="M146.8 270.91H79.78C79.78 270.91 67.51 223.75 72.32 170.87C73.62 156.86 77.17 143.15 82.85 130.27C82.93 130.07 83.02 129.87 83.11 129.68C84.51 126.49 85.99 123.48 87.51 120.62C93.46 109.35 100.89 98.92 109.59 89.6C111.52 87.4 114.87 87.18 117.08 89.11C117.25 89.26 117.42 89.43 117.57 89.6C126.55 99.21 134.17 110.01 140.22 121.69C141.74 124.62 143.21 127.71 144.61 130.95L144.86 131.52C150.21 144.04 153.59 157.31 154.85 170.87C159.65 223.78 146.82 270.91 146.82 270.91H146.8Z" fill="#7FC37E"/>
<g opacity="0.5">
<path d="M146.8 270.91H79.78C79.78 270.91 67.51 223.75 72.32 170.87C73.62 156.86 77.17 143.15 82.85 130.27C82.93 130.07 83.02 129.87 83.11 129.68C84.51 126.49 85.99 123.48 87.51 120.62C93.46 109.35 100.89 98.92 109.59 89.6C111.52 87.4 114.87 87.18 117.08 89.11C117.25 89.26 117.42 89.43 117.57 89.6C126.55 99.21 134.17 110.01 140.22 121.69C141.74 124.62 143.21 127.71 144.61 130.95L144.86 131.52C150.21 144.04 153.59 157.31 154.85 170.87C159.65 223.78 146.82 270.91 146.82 270.91H146.8Z" fill="white"/>
</g>
<path d="M139.39 264.19H89.13V264.96H139.39V264.19Z" fill="#7FC37E"/>
<path d="M148.33 288.86H80.5699C75.7399 281.91 80.8499 270.91 80.8499 270.91H146.95C146.95 270.91 152.03 279.89 148.32 288.86H148.33Z" fill="#2E353A"/>
<path d="M131.21 295.16H97.33C94.94 291.68 97.47 286.18 97.47 286.18H130.52C130.52 286.18 133.06 290.66 131.21 295.16Z" fill="#2E353A"/>
<path d="M131.23 295.16H97.45C90.61 298.79 73.6 307.46 75.98 322.14H153.58C155.96 307.46 138.08 298.78 131.24 295.16H131.23Z" fill="#7FC37E"/>
<path d="M155.91 319.04H73.0599V325.43H155.91V319.04Z" fill="#2E353A"/>
<path d="M140.2 121.7C134.09 126.07 124.74 130.97 113.57 130.97C103.88 130.91 94.57 127.21 87.49 120.6C88.13 119.39 88.77 118.22 89.42 117.07L89.73 116.54C95.26 106.81 101.92 97.76 109.57 89.59C111.5 87.39 114.85 87.17 117.06 89.1C117.23 89.25 117.4 89.42 117.55 89.59C125.22 97.78 131.89 106.86 137.43 116.62L137.74 117.17C138.58 118.64 139.39 120.16 140.2 121.71V121.7Z" fill="#7FC37E"/>
<path opacity="0.2" d="M137.75 117.18C135.79 118.59 133.71 119.82 131.53 120.87C123.87 124.57 115.25 125.81 106.85 124.41C100.56 123.33 94.5899 120.82 89.4199 117.09L89.7299 116.56C91.8299 118.09 94.0799 119.41 96.4299 120.51C104.08 124.12 112.67 125.23 120.99 123.7C126.92 122.58 132.54 120.17 137.44 116.64L137.75 117.18Z" fill="black"/>
<path d="M145.69 179.31C142.62 148.29 140.22 135.87 139.94 134.51C141.1 133.88 142.18 133.24 143.13 132.62C143.71 132.26 144.27 131.89 144.81 131.53L144.56 130.96C143.99 131.34 143.41 131.76 142.8 132.11C136.42 136.14 126.16 140.95 113.81 140.95C104.08 140.95 94.57 137.97 86.59 132.4C85.27 131.49 84.1 130.57 83.06 129.7C82.97 129.89 82.88 130.09 82.8 130.29C83.81 131.14 84.95 132.01 86.22 132.9C87.02 133.46 87.92 134.04 88.87 134.62C88.53 136.34 86.16 148.86 83.14 179.3C80.75 203.08 82.93 226.74 85.15 242.4C86.47 252.01 88.28 261.55 90.59 270.97C90.62 271.1 90.74 271.19 90.87 271.19H90.94C91.09 271.15 91.18 270.99 91.15 270.84C88.85 261.43 87.04 251.92 85.72 242.32C83.5 226.7 81.36 203.09 83.71 179.37C86.63 149.89 88.94 137.25 89.39 134.91C96.79 139.3 105.23 141.62 113.84 141.61C122.78 141.5 131.55 139.18 139.37 134.86C139.77 136.89 142.11 149.46 145.08 179.42C147.43 203.14 145.29 226.74 143.07 242.37C141.76 251.96 139.95 261.48 137.64 270.89C137.6 271.04 137.7 271.2 137.85 271.24H137.92C138.05 271.24 138.17 271.15 138.2 271.02C140.51 261.6 142.32 252.06 143.64 242.45C145.89 226.76 148.04 203.1 145.68 179.33L145.69 179.31Z" fill="#7FC37E"/>
<path d="M113.85 212.24C101.59 212.24 91.64 202.31 91.64 190.04C91.64 177.78 101.57 167.83 113.84 167.83C126.1 167.83 136.05 177.76 136.05 190.03V190.05C136.04 202.3 126.11 212.24 113.85 212.25V212.24ZM113.85 168.42C101.91 168.42 92.23 178.1 92.23 190.04C92.23 201.98 101.91 211.66 113.85 211.66C125.79 211.66 135.47 201.98 135.47 190.04C135.46 178.1 125.78 168.43 113.85 168.42Z" fill="#7FC37E"/>
<path d="M130.66 190.04C130.66 199.33 123.13 206.85 113.85 206.85H113.46C110.61 206.79 107.83 206.01 105.38 204.57C103.48 203.46 101.82 201.99 100.48 200.25C98.24 197.32 97.03 193.74 97.04 190.05C97.04 189.4 97.08 188.74 97.15 188.1C98.07 180.37 104.16 174.28 111.89 173.36C112.54 173.29 113.2 173.25 113.85 173.25C122.98 173.26 130.43 180.54 130.65 189.66C130.65 189.79 130.65 189.92 130.65 190.04H130.66Z" fill="#7FC37E"/>
<path opacity="0.1" d="M124.04 176.7L100.48 200.26C98.24 197.33 97.03 193.75 97.04 190.06C97.04 189.41 97.08 188.75 97.15 188.11L111.89 173.37C112.54 173.3 113.2 173.26 113.85 173.26C117.53 173.26 121.11 174.46 124.04 176.7Z" fill="white"/>
<path opacity="0.1" d="M130.65 189.65L113.45 206.85C110.6 206.79 107.82 206.01 105.37 204.57L128.36 181.59C129.8 184.04 130.59 186.82 130.65 189.66V189.65Z" fill="white"/>
<path d="M165.1 362.68H68.51V455.32H165.1V362.68Z" fill="#7FC37E"/>
<path opacity="0.4" d="M165.1 362.68H68.51V455.32H165.1V362.68Z" fill="white"/>
<path opacity="0.4" d="M165.08 362.68H99.25V455.32H165.08V362.68Z" fill="white"/>
<path d="M161.79 367.42H102.54V378.89H161.79V367.42Z" fill="#7FC37E"/>
<path d="M161.79 381.76H102.54V393.23H161.79V381.76Z" fill="#7FC37E"/>
<path d="M161.79 396.1H102.54V407.57H161.79V396.1Z" fill="#7FC37E"/>
<path d="M161.79 410.44H102.54V421.91H161.79V410.44Z" fill="#7FC37E"/>
<path d="M161.79 424.78H102.54V436.25H161.79V424.78Z" fill="#7FC37E"/>
<path d="M161.79 439.13H102.54V450.6H161.79V439.13Z" fill="#7FC37E"/>
<path d="M95.81 367.42H71.96V378.89H95.81V367.42Z" fill="#7FC37E"/>
<path d="M95.81 381.76H71.96V393.23H95.81V381.76Z" fill="#7FC37E"/>
<path d="M95.81 396.1H71.96V407.57H95.81V396.1Z" fill="#7FC37E"/>
<path d="M95.81 410.44H71.96V421.91H95.81V410.44Z" fill="#7FC37E"/>
<path d="M95.81 424.78H71.96V436.25H95.81V424.78Z" fill="#7FC37E"/>
<path d="M95.81 439.13H71.96V450.6H95.81V439.13Z" fill="#7FC37E"/>
<path opacity="0.3" d="M158.89 368.91H157.51V377.4H158.89V368.91Z" fill="white"/>
<path opacity="0.3" d="M156.23 368.91H154.85V377.4H156.23V368.91Z" fill="white"/>
<path opacity="0.3" d="M153.57 368.91H152.19V377.4H153.57V368.91Z" fill="white"/>
<path opacity="0.3" d="M150.91 368.91H149.53V377.4H150.91V368.91Z" fill="white"/>
<path opacity="0.3" d="M148.24 368.91H146.86V377.4H148.24V368.91Z" fill="white"/>
<path opacity="0.3" d="M158.89 383.25H157.51V391.73H158.89V383.25Z" fill="white"/>
<path opacity="0.3" d="M156.23 383.25H154.85V391.73H156.23V383.25Z" fill="white"/>
<path opacity="0.3" d="M153.57 383.25H152.19V391.73H153.57V383.25Z" fill="white"/>
<path opacity="0.3" d="M150.91 383.25H149.53V391.73H150.91V383.25Z" fill="white"/>
<path opacity="0.3" d="M148.24 383.25H146.86V391.73H148.24V383.25Z" fill="white"/>
<path opacity="0.3" d="M158.89 397.6H157.51V406.08H158.89V397.6Z" fill="white"/>
<path opacity="0.3" d="M156.23 397.6H154.85V406.08H156.23V397.6Z" fill="white"/>
<path opacity="0.3" d="M153.57 397.6H152.19V406.08H153.57V397.6Z" fill="white"/>
<path opacity="0.3" d="M150.91 397.6H149.53V406.08H150.91V397.6Z" fill="white"/>
<path opacity="0.3" d="M148.24 397.6H146.86V406.08H148.24V397.6Z" fill="white"/>
<path opacity="0.3" d="M158.89 411.94H157.51V420.43H158.89V411.94Z" fill="white"/>
<path opacity="0.3" d="M156.23 411.94H154.85V420.43H156.23V411.94Z" fill="white"/>
<path opacity="0.3" d="M153.57 411.94H152.19V420.43H153.57V411.94Z" fill="white"/>
<path opacity="0.3" d="M150.91 411.94H149.53V420.43H150.91V411.94Z" fill="white"/>
<path opacity="0.3" d="M148.24 411.94H146.86V420.43H148.24V411.94Z" fill="white"/>
<path opacity="0.3" d="M158.89 426.28H157.51V434.76H158.89V426.28Z" fill="white"/>
<path opacity="0.3" d="M156.23 426.28H154.85V434.76H156.23V426.28Z" fill="white"/>
<path opacity="0.3" d="M153.57 426.28H152.19V434.76H153.57V426.28Z" fill="white"/>
<path opacity="0.3" d="M150.91 426.28H149.53V434.76H150.91V426.28Z" fill="white"/>
<path opacity="0.3" d="M148.24 426.28H146.86V434.76H148.24V426.28Z" fill="white"/>
<path opacity="0.3" d="M158.89 440.62H157.51V449.11H158.89V440.62Z" fill="white"/>
<path opacity="0.3" d="M156.23 440.62H154.85V449.11H156.23V440.62Z" fill="white"/>
<path opacity="0.3" d="M153.57 440.62H152.19V449.11H153.57V440.62Z" fill="white"/>
<path opacity="0.3" d="M150.91 440.62H149.53V449.11H150.91V440.62Z" fill="white"/>
<path opacity="0.3" d="M148.24 440.62H146.86V449.11H148.24V440.62Z" fill="white"/>
<path opacity="0.2" d="M109.43 373.15C109.43 373.93 108.8 374.56 108.02 374.56C107.24 374.56 106.61 373.93 106.61 373.15C106.61 372.37 107.24 371.74 108.02 371.74C108.8 371.74 109.43 372.37 109.43 373.15Z" fill="white"/>
<path opacity="0.2" d="M118.3 373.15C118.3 373.93 117.67 374.56 116.89 374.56C116.11 374.56 115.48 373.93 115.48 373.15C115.48 372.37 116.11 371.74 116.89 371.74C117.67 371.74 118.3 372.37 118.3 373.15Z" fill="white"/>
<path opacity="0.4" d="M127.17 373.15C127.17 373.93 126.54 374.56 125.76 374.56C124.98 374.56 124.35 373.93 124.35 373.15C124.35 372.37 124.98 371.74 125.76 371.74C126.54 371.74 127.17 372.37 127.17 373.15Z" fill="white"/>
<path opacity="0.4" d="M109.43 387.49C109.43 388.27 108.8 388.9 108.02 388.9C107.24 388.9 106.61 388.27 106.61 387.49C106.61 386.71 107.24 386.08 108.02 386.08C108.8 386.08 109.43 386.71 109.43 387.49Z" fill="white"/>
<path opacity="0.2" d="M118.3 387.49C118.3 388.27 117.67 388.9 116.89 388.9C116.11 388.9 115.48 388.27 115.48 387.49C115.48 386.71 116.11 386.08 116.89 386.08C117.67 386.08 118.3 386.71 118.3 387.49Z" fill="white"/>
<path opacity="0.4" d="M127.17 387.49C127.17 388.27 126.54 388.9 125.76 388.9C124.98 388.9 124.35 388.27 124.35 387.49C124.35 386.71 124.98 386.08 125.76 386.08C126.54 386.08 127.17 386.71 127.17 387.49Z" fill="white"/>
<path opacity="0.2" d="M109.43 401.84C109.43 402.62 108.8 403.25 108.02 403.25C107.24 403.25 106.61 402.62 106.61 401.84C106.61 401.06 107.24 400.43 108.02 400.43C108.8 400.43 109.43 401.06 109.43 401.84Z" fill="white"/>
<path opacity="0.4" d="M118.3 401.84C118.3 402.62 117.67 403.25 116.89 403.25C116.11 403.25 115.48 402.62 115.48 401.84C115.48 401.06 116.11 400.43 116.89 400.43C117.67 400.43 118.3 401.06 118.3 401.84Z" fill="white"/>
<path opacity="0.2" d="M127.17 401.84C127.17 402.62 126.54 403.25 125.76 403.25C124.98 403.25 124.35 402.62 124.35 401.84C124.35 401.06 124.98 400.43 125.76 400.43C126.54 400.43 127.17 401.06 127.17 401.84Z" fill="white"/>
<path opacity="0.4" d="M109.43 416.18C109.43 416.96 108.8 417.59 108.02 417.59C107.24 417.59 106.61 416.96 106.61 416.18C106.61 415.4 107.24 414.77 108.02 414.77C108.8 414.77 109.43 415.4 109.43 416.18Z" fill="white"/>
<path opacity="0.2" d="M118.3 416.18C118.3 416.96 117.67 417.59 116.89 417.59C116.11 417.59 115.48 416.96 115.48 416.18C115.48 415.4 116.11 414.77 116.89 414.77C117.67 414.77 118.3 415.4 118.3 416.18Z" fill="white"/>
<path opacity="0.2" d="M127.17 416.18C127.17 416.96 126.54 417.59 125.76 417.59C124.98 417.59 124.35 416.96 124.35 416.18C124.35 415.4 124.98 414.77 125.76 414.77C126.54 414.77 127.17 415.4 127.17 416.18Z" fill="white"/>
<path opacity="0.2" d="M109.43 430.52C109.43 431.3 108.8 431.93 108.02 431.93C107.24 431.93 106.61 431.3 106.61 430.52C106.61 429.74 107.24 429.11 108.02 429.11C108.8 429.11 109.43 429.74 109.43 430.52Z" fill="white"/>
<path opacity="0.4" d="M118.3 430.52C118.3 431.3 117.67 431.93 116.89 431.93C116.11 431.93 115.48 431.3 115.48 430.52C115.48 429.74 116.11 429.11 116.89 429.11C117.67 429.11 118.3 429.74 118.3 430.52Z" fill="white"/>
<path opacity="0.4" d="M127.17 430.52C127.17 431.3 126.54 431.93 125.76 431.93C124.98 431.93 124.35 431.3 124.35 430.52C124.35 429.74 124.98 429.11 125.76 429.11C126.54 429.11 127.17 429.74 127.17 430.52Z" fill="white"/>
<path opacity="0.4" d="M109.43 444.87C109.43 445.65 108.8 446.28 108.02 446.28C107.24 446.28 106.61 445.65 106.61 444.87C106.61 444.09 107.24 443.46 108.02 443.46C108.8 443.46 109.43 444.09 109.43 444.87Z" fill="white"/>
<path opacity="0.2" d="M118.3 444.87C118.3 445.65 117.67 446.28 116.89 446.28C116.11 446.28 115.48 445.65 115.48 444.87C115.48 444.09 116.11 443.46 116.89 443.46C117.67 443.46 118.3 444.09 118.3 444.87Z" fill="white"/>
<path opacity="0.4" d="M127.17 444.87C127.17 445.65 126.54 446.28 125.76 446.28C124.98 446.28 124.35 445.65 124.35 444.87C124.35 444.09 124.98 443.46 125.76 443.46C126.54 443.46 127.17 444.09 127.17 444.87Z" fill="white"/>
<path opacity="0.3" d="M99.25 362.68H68.51V455.32H99.25V362.68Z" fill="black"/>
<path d="M398.49 385.67H349.85V455.19H398.49V385.67Z" fill="#7FC37E"/>
<path opacity="0.2" d="M398.48 385.67H382.65V455.32H398.48V385.67Z" fill="black"/>
<path d="M329.26 405.78H285.65V455.32H329.26V405.78Z" fill="#7FC37E"/>
<path opacity="0.2" d="M329.27 405.78H315.07V455.32H329.27V405.78Z" fill="black"/>
<path d="M464.55 345.34H417.01V455.32H464.55V345.34Z" fill="#7FC37E"/>
<path opacity="0.2" d="M464.55 345.34H449.07V455.32H464.55V345.34Z" fill="black"/>
<path d="M427.08 220.46H390.48C387.17 220.46 384.49 223.14 384.49 226.45V246.21C384.49 249.52 387.17 252.2 390.48 252.2H399.23L399.3 258.18L405.89 252.2H427.07C430.38 252.2 433.06 249.52 433.06 246.21V226.45C433.06 223.14 430.38 220.46 427.07 220.46H427.08Z" fill="#7FC37E"/>
<path d="M404.28 233.2L398.51 235.9L404.28 238.59V240.76L396.57 237.02V234.76L404.28 231.02V233.19V233.2Z" fill="white"/>
<path d="M421.84 234.77V237.03L414.13 240.77V238.6L419.9 235.91L414.13 233.21V231.04L421.84 234.78V234.77Z" fill="white"/>
<path d="M410.55 229.52L406.79 242.51H408.67L412.43 229.52H410.55Z" fill="white"/>
<path d="M418.64 219.11H399.84C399.7 219.11 399.59 219 399.59 218.86C399.59 218.72 399.7 218.61 399.84 218.61H418.64C418.78 218.61 418.89 218.72 418.89 218.86C418.89 219 418.78 219.11 418.64 219.11Z" fill="#7FC37E"/>
<path d="M423.82 219.12H420.85C420.71 219.12 420.6 219.01 420.6 218.87C420.6 218.73 420.71 218.62 420.85 218.62H423.82C423.96 218.62 424.07 218.73 424.07 218.87C424.07 219.01 423.96 219.12 423.82 219.12Z" fill="#7FC37E"/>
<path d="M428.95 83.46H327.75C325.022 83.46 322.81 85.6717 322.81 88.4V171.92C322.81 174.648 325.022 176.86 327.75 176.86H428.95C431.678 176.86 433.89 174.648 433.89 171.92V88.4C433.89 85.6717 431.678 83.46 428.95 83.46Z" fill="#7FC37E"/>
<path opacity="0.5" d="M428.95 83.46H327.75C325.022 83.46 322.81 85.6717 322.81 88.4V171.92C322.81 174.648 325.022 176.86 327.75 176.86H428.95C431.678 176.86 433.89 174.648 433.89 171.92V88.4C433.89 85.6717 431.678 83.46 428.95 83.46Z" fill="white"/>
<path d="M327.44 83.46H429.35C431.86 83.46 433.9 85.5 433.9 88.01V99.75H322.82V88.09C322.82 85.54 324.89 83.46 327.45 83.46H327.44Z" fill="#7FC37E"/>
<path opacity="0.5" d="M427.62 92.79C427.62 94.75 426.03 96.35 424.06 96.35C422.09 96.35 420.5 94.76 420.5 92.79C420.5 90.82 422.09 89.23 424.06 89.23C426.03 89.23 427.62 90.82 427.62 92.79Z" fill="white"/>
<path opacity="0.5" d="M417.51 92.79C417.51 94.75 415.92 96.35 413.95 96.35C411.98 96.35 410.39 94.76 410.39 92.79C410.39 90.82 411.98 89.23 413.95 89.23C415.92 89.23 417.51 90.82 417.51 92.79Z" fill="white"/>
<path opacity="0.5" d="M407.41 92.79C407.41 94.75 405.82 96.35 403.85 96.35C401.88 96.35 400.29 94.76 400.29 92.79C400.29 90.82 401.88 89.23 403.85 89.23C405.82 89.23 407.41 90.82 407.41 92.79Z" fill="white"/>
<path opacity="0.6" d="M404.78 113.36H347.81V116.68H404.78V113.36Z" fill="white"/>
<path opacity="0.6" d="M389.47 120.54H348.7V123.86H389.47V120.54Z" fill="#263238"/>
<path d="M420.18 113.36H408.97V116.68H420.18V113.36Z" fill="#7FC37E"/>
<path d="M343.86 113.36H332.65V116.68H343.86V113.36Z" fill="#7FC37E"/>
<path d="M404.78 128.5H347.81V131.82H404.78V128.5Z" fill="#7FC37E"/>
<path opacity="0.6" d="M420.18 128.5H408.97V131.82H420.18V128.5Z" fill="white"/>
<path d="M343.86 128.5H332.65V131.82H343.86V128.5Z" fill="#7FC37E"/>
<path d="M404.78 160.07H347.81V163.39H404.78V160.07Z" fill="#7FC37E"/>
<path opacity="0.6" d="M420.18 160.07H408.97V163.39H420.18V160.07Z" fill="white"/>
<path d="M404.78 136.49H347.81V139.81H404.78V136.49Z" fill="#7FC37E"/>
<path opacity="0.6" d="M420.18 136.49H408.97V139.81H420.18V136.49Z" fill="#263238"/>
<path opacity="0.6" d="M343.86 136.49H332.65V139.81H343.86V136.49Z" fill="#263238"/>
<path d="M421.01 120.67H393.93V123.99H421.01V120.67Z" fill="#7FC37E"/>
<path opacity="0.6" d="M388.58 143.45H347.81V146.77H388.58V143.45Z" fill="white"/>
<path d="M420.12 143.58H393.04V146.9H420.12V143.58Z" fill="#7FC37E"/>
<path opacity="0.6" d="M368.19 150.66H347.81V153.98H368.19V150.66Z" fill="#263238"/>
<path d="M165.14 148.5V295.65C165.14 298.19 167.2 300.24 169.73 300.24H371.75V148.51C371.75 147.15 370.65 146.05 369.29 146.05H167.59C166.23 146.05 165.14 147.15 165.14 148.5Z" fill="#7FC37E"/>
<path opacity="0.9" d="M367.28 146.05H169.61C167.141 146.05 165.14 148.051 165.14 150.52V295.78C165.14 298.249 167.141 300.25 169.61 300.25H367.28C369.749 300.25 371.75 298.249 371.75 295.78V150.52C371.75 148.051 369.749 146.05 367.28 146.05Z" fill="white"/>
<path d="M167.69 146.05H369.67C370.82 146.05 371.75 146.98 371.75 148.13V158.43H165.14V148.61C165.14 147.2 166.28 146.06 167.69 146.06V146.05Z" fill="#7FC37E"/>
<path opacity="0.5" d="M368.61 151.72C368.96 153.57 367.37 155.17 365.52 154.82C364.49 154.63 363.65 153.78 363.46 152.76C363.11 150.91 364.7 149.31 366.55 149.66C367.58 149.86 368.42 150.7 368.61 151.72Z" fill="white"/>
<path opacity="0.5" d="M361.15 151.72C361.5 153.57 359.91 155.17 358.06 154.82C357.03 154.63 356.19 153.78 356 152.76C355.65 150.91 357.24 149.31 359.09 149.66C360.12 149.86 360.96 150.7 361.15 151.72Z" fill="white"/>
<path opacity="0.5" d="M353.68 151.72C354.03 153.57 352.44 155.17 350.59 154.82C349.56 154.63 348.72 153.78 348.53 152.76C348.18 150.91 349.77 149.31 351.62 149.66C352.65 149.86 353.49 150.7 353.68 151.73V151.72Z" fill="white"/>
<path d="M356.56 234.51C354.1 228.04 351.05 221.76 347.45 215.76C345.47 212.45 342.99 208.98 339.06 207.84C334.21 206.43 328.97 209.18 325.73 212.78C322.48 216.37 320.5 220.79 317.38 224.48C314.26 228.17 309.31 231.2 304.34 230.22C299.31 229.23 295.25 224.37 290.2 225.29C285.22 226.2 282.74 232.37 277.68 232.77C273.97 233.06 271.01 230.07 268.97 227.22C265.33 222.15 262.42 216.57 257.91 212.12C253.4 207.67 246.68 204.43 240.23 205.84C235.82 206.8 232.26 209.75 229.32 212.92C224.55 218.06 220.87 224.04 218.54 230.44C217.56 233.15 216.37 236.35 213.37 237.13C210.61 237.84 207.82 236 206.13 233.88C204.44 231.76 203.29 229.23 201.11 227.53C196.57 223.99 189.18 225.58 185 229.48C180.82 233.38 179.05 238.87 177.42 244.12V267.05H356.64L356.58 234.52L356.56 234.51Z" fill="#7FC37E"/>
<g opacity="0.3">
<path d="M356.56 234.51C354.1 228.04 351.05 221.76 347.45 215.76C345.47 212.45 342.99 208.98 339.06 207.84C334.21 206.43 328.97 209.18 325.73 212.78C322.48 216.37 320.5 220.79 317.38 224.48C314.26 228.17 309.31 231.2 304.34 230.22C299.31 229.23 295.25 224.37 290.2 225.29C285.22 226.2 282.74 232.37 277.68 232.77C273.97 233.06 271.01 230.07 268.97 227.22C265.33 222.15 262.42 216.57 257.91 212.12C253.4 207.67 246.68 204.43 240.23 205.84C235.82 206.8 232.26 209.75 229.32 212.92C224.55 218.06 220.87 224.04 218.54 230.44C217.56 233.15 216.37 236.35 213.37 237.13C210.61 237.84 207.82 236 206.13 233.88C204.44 231.76 203.29 229.23 201.11 227.53C196.57 223.99 189.18 225.58 185 229.48C180.82 233.38 179.05 238.87 177.42 244.12V267.05H356.64L356.58 234.52L356.56 234.51Z" fill="white"/>
</g>
<path d="M356.92 234.41C355.2 229.91 353.22 225.51 350.97 221.25C349.01 217.54 346.99 213.46 343.99 210.46C341.33 207.8 337.79 206.57 334.07 207.33C330.12 208.13 326.79 210.75 324.33 213.85C321.52 217.4 319.57 221.6 316.47 224.93C313.37 228.26 308.86 230.81 304.26 229.82C300.48 229.01 297.54 226.19 293.85 225.15C290.55 224.22 287.74 225.45 285.24 227.58C282.58 229.85 279.85 233.12 275.93 232.28C271.55 231.35 268.91 226.59 266.66 223.15C262.01 216.06 257.1 208.61 248.57 205.95C244.73 204.75 240.65 204.86 236.97 206.54C233.11 208.3 230 211.41 227.31 214.61C224.46 217.99 222.02 221.73 220.11 225.72C219.22 227.58 218.51 229.49 217.77 231.4C217.09 233.18 216.22 235.18 214.53 236.22C212.3 237.58 209.7 236.67 207.85 235.11C206.19 233.71 205.15 231.78 203.9 230.04C201.8 227.11 198.99 225.31 195.33 225.19C191.94 225.08 188.46 226.28 185.77 228.33C182.6 230.76 180.56 234.35 179.1 238C178.31 239.97 177.68 241.99 177.05 244.01C176.91 244.47 177.63 244.67 177.77 244.21C180.17 236.48 183.55 227.83 192.49 226.16C196.76 225.36 200.56 226.75 203.14 230.26C205.28 233.17 207.12 236.78 211.02 237.55C214.47 238.22 216.76 235.66 218.02 232.78C218.78 231.03 219.36 229.21 220.13 227.46C221.03 225.43 222.06 223.47 223.22 221.57C225.55 217.74 228.38 214.11 231.68 211.07C234.98 208.03 239 205.81 243.59 205.88C253.02 206.02 259.49 213.63 264.26 220.86C267.54 225.84 272.63 235.99 280.2 232.46C283.15 231.09 285.04 228.23 287.81 226.6C291.52 224.42 295.13 226.27 298.51 228.15C301.89 230.03 304.95 231.33 308.7 230.51C312.45 229.69 315.8 227.08 318.19 224.07C320.99 220.54 322.95 216.4 325.99 213.05C328.78 209.98 332.9 207.53 337.18 207.88C341.46 208.23 344.57 211.81 346.75 215.34C349.2 219.3 351.36 223.45 353.3 227.68C354.34 229.96 355.31 232.28 356.2 234.62C356.37 235.07 357.1 234.87 356.92 234.42V234.41Z" fill="#7FC37E"/>
<path opacity="0.3" d="M176.98 184.06V267.04C176.98 267.24 177.15 267.42 177.36 267.42H349.36C351.66 267.42 354.04 267.61 356.33 267.42C356.43 267.42 356.53 267.42 356.63 267.42C357.11 267.42 357.11 266.67 356.63 266.67H180.04C179.31 266.67 178.37 266.51 177.65 266.67C177.56 266.69 177.45 266.67 177.35 266.67L177.73 267.05V184.07C177.73 183.59 176.98 183.59 176.98 184.07V184.06Z" fill="black"/>
<path opacity="0.3" d="M210.4 182.33V267.04C210.4 267.52 211.15 267.52 211.15 267.04V182.33C211.15 181.85 210.4 181.85 210.4 182.33Z" fill="black"/>
<path opacity="0.3" d="M239.54 182.33V267.04C239.54 267.52 240.29 267.52 240.29 267.04V182.33C240.29 181.85 239.54 181.85 239.54 182.33Z" fill="black"/>
<path opacity="0.3" d="M268.68 182.33V267.04C268.68 267.52 269.43 267.52 269.43 267.04V182.33C269.43 181.85 268.68 181.85 268.68 182.33Z" fill="black"/>
<path opacity="0.3" d="M297.82 182.33V267.04C297.82 267.52 298.57 267.52 298.57 267.04V182.33C298.57 181.85 297.82 181.85 297.82 182.33Z" fill="black"/>
<path opacity="0.3" d="M326.95 182.33V267.04C326.95 267.52 327.7 267.52 327.7 267.04V182.33C327.7 181.85 326.95 181.85 326.95 182.33Z" fill="black"/>
<path opacity="0.3" d="M356.25 182.33V267.04C356.25 267.52 357 267.52 357 267.04V182.33C357 181.85 356.25 181.85 356.25 182.33Z" fill="black"/>
<path opacity="0.3" d="M176.93 248.79H356.63C357.11 248.79 357.11 248.04 356.63 248.04H176.93C176.45 248.04 176.45 248.79 176.93 248.79Z" fill="black"/>
<path opacity="0.3" d="M176.93 227.8H356.63C357.11 227.8 357.11 227.05 356.63 227.05H176.93C176.45 227.05 176.45 227.8 176.93 227.8Z" fill="black"/>
<path opacity="0.3" d="M176.93 206.81H356.63C357.11 206.81 357.11 206.06 356.63 206.06H176.93C176.45 206.06 176.45 206.81 176.93 206.81Z" fill="black"/>
<path opacity="0.3" d="M176.93 185.81H356.63C357.11 185.81 357.11 185.06 356.63 185.06H176.93C176.45 185.06 176.45 185.81 176.93 185.81Z" fill="black"/>
<path d="M188.31 282.59C189.873 282.59 191.14 281.323 191.14 279.76C191.14 278.197 189.873 276.93 188.31 276.93C186.747 276.93 185.48 278.197 185.48 279.76C185.48 281.323 186.747 282.59 188.31 282.59Z" fill="#7FC37E"/>
<path d="M194.85 278.67H246.44C246.92 278.67 246.92 277.92 246.44 277.92H194.85C194.37 277.92 194.37 278.67 194.85 278.67Z" fill="#263238"/>
<path d="M194.85 282.11H223.26C223.74 282.11 223.74 281.36 223.26 281.36H194.85C194.37 281.36 194.37 282.11 194.85 282.11Z" fill="#263238"/>
<path d="M269.19 282.59C270.753 282.59 272.02 281.323 272.02 279.76C272.02 278.197 270.753 276.93 269.19 276.93C267.627 276.93 266.36 278.197 266.36 279.76C266.36 281.323 267.627 282.59 269.19 282.59Z" fill="#7FC37E"/>
<path d="M275.73 278.67H327.32C327.8 278.67 327.8 277.92 327.32 277.92H275.73C275.25 277.92 275.25 278.67 275.73 278.67Z" fill="#263238"/>
<path d="M275.73 282.11H304.14C304.62 282.11 304.62 281.36 304.14 281.36H275.73C275.25 281.36 275.25 282.11 275.73 282.11Z" fill="#263238"/>
<path d="M365.83 431.85L369.06 450.49L361.4 453.58L355.03 434.02L365.83 431.85Z" fill="#E9B376"/>
<path d="M366.68 448.96C366.16 450.36 364.92 451.04 363.59 450.78L362.7 449.52C361.93 448.44 360.86 448.05 359.69 448.84C359.11 449.23 358.62 450.34 358.68 451.71C358.78 454.18 357.8 455.76 357.8 455.76C357.8 455.76 353.61 461.39 351.91 463.03C350.9 464.01 349.57 465.38 349.37 467.1C349.31 467.59 349.31 468.14 349.37 468.75C349.43 469.25 349.91 470.2 349.92 470.22L364.12 463C364.12 463 365.14 461.42 365.77 461.13C366.89 460.61 367.86 461.32 367.86 461.32L373.04 458.73C373.04 458.73 372.73 457.88 372.29 456.65C372.09 456.09 371.86 455.46 371.62 454.79C370.58 451.92 369.38 448.25 369.08 447.44C368.55 446.02 366.68 448.94 366.68 448.94V448.96Z" fill="#263238"/>
<path d="M355.47 458.68C355.5 458.59 355.6 458.53 355.7 458.54C356.15 458.58 356.58 458.74 356.96 459.01C357.16 459.16 356.95 459.5 356.74 459.35C356.4 459.1 356.02 458.97 355.63 458.93C355.5 458.92 355.42 458.8 355.47 458.68Z" fill="#7FC37E"/>
<path d="M356.27 457.53C356.3 457.44 356.4 457.38 356.5 457.39C356.95 457.43 357.38 457.59 357.76 457.86C357.96 458.01 357.75 458.35 357.54 458.2C357.2 457.95 356.82 457.82 356.43 457.78C356.3 457.77 356.22 457.65 356.27 457.53Z" fill="#7FC37E"/>
<path d="M357.12 456.41C357.15 456.32 357.25 456.26 357.35 456.27C357.8 456.31 358.23 456.47 358.61 456.74C358.81 456.89 358.6 457.23 358.39 457.08C358.05 456.83 357.67 456.7 357.28 456.66C357.15 456.65 357.07 456.53 357.12 456.41Z" fill="#7FC37E"/>
<path opacity="0.2" d="M349.35 468C349.35 468.25 349.37 468.52 349.4 468.8C349.46 469.3 349.94 470.25 349.95 470.27L364.15 463.05C364.15 463.05 365.17 461.47 365.8 461.18C366.92 460.66 367.89 461.37 367.89 461.37L373.07 458.78C373.07 458.78 372.76 457.93 372.32 456.7L372.21 456.39L349.35 468Z" fill="white"/>
<path d="M357.54 456.67L357.31 456.62C356.93 456.54 355.64 456.24 355.18 455.89C354.7 455.53 354.39 455.03 354.33 454.51C354.29 454.22 354.36 453.84 354.66 453.67C354.95 453.5 355.28 453.61 355.52 453.74C355.98 453.98 356.4 454.39 356.74 454.94C357.04 455.42 357.25 455.95 357.46 456.46L357.55 456.68L357.54 456.67ZM354.98 453.83C354.91 453.83 354.84 453.84 354.78 453.88C354.59 453.99 354.55 454.27 354.58 454.48C354.63 454.93 354.91 455.37 355.33 455.69C355.63 455.92 356.42 456.16 357.14 456.32C356.97 455.89 356.78 455.45 356.53 455.06C356.21 454.55 355.83 454.17 355.41 453.95C355.31 453.9 355.15 453.83 354.99 453.83H354.98Z" fill="#7FC37E"/>
<path d="M357.29 456.72L357.27 456.48C357.23 455.93 357.19 455.36 357.26 454.8C357.33 454.16 357.52 453.61 357.84 453.19C358.06 452.89 358.31 452.74 358.59 452.76C358.93 452.79 359.15 453.1 359.25 453.38C359.42 453.87 359.36 454.46 359.09 454.99C358.82 455.51 357.8 456.33 357.49 456.58L357.3 456.73L357.29 456.72ZM358.54 453.01C358.32 453.01 358.14 453.22 358.04 453.34C357.75 453.73 357.58 454.23 357.51 454.83C357.46 455.29 357.48 455.77 357.51 456.23C358.08 455.77 358.69 455.21 358.86 454.87C359.1 454.4 359.16 453.88 359.01 453.45C358.94 453.25 358.78 453.02 358.57 453H358.54V453.01Z" fill="#7FC37E"/>
<path d="M341.21 427.86L344.44 446.5L336.78 449.59L330.42 430.04L341.21 427.86Z" fill="#E9B376"/>
<path d="M342.07 444.97C341.55 446.37 340.31 447.05 338.98 446.79L338.09 445.53C337.32 444.45 336.25 444.06 335.08 444.85C334.5 445.24 334.01 446.35 334.06 447.72C334.16 450.19 333.18 451.77 333.18 451.77C333.18 451.77 328.99 457.4 327.29 459.04C326.28 460.02 324.95 461.39 324.75 463.11C324.69 463.6 324.69 464.15 324.75 464.76C324.81 465.26 325.29 466.21 325.3 466.23L339.5 459.01C339.5 459.01 340.52 457.43 341.15 457.14C342.27 456.62 343.24 457.33 343.24 457.33L348.42 454.74C348.42 454.74 348.11 453.89 347.67 452.66C347.47 452.1 347.24 451.47 347 450.8C345.96 447.93 344.76 444.26 344.46 443.45C343.93 442.03 342.06 444.95 342.06 444.95L342.07 444.97Z" fill="#263238"/>
<path d="M330.86 454.69C330.89 454.6 330.99 454.54 331.09 454.55C331.54 454.59 331.97 454.75 332.35 455.02C332.55 455.17 332.34 455.51 332.13 455.36C331.79 455.11 331.41 454.98 331.02 454.94C330.89 454.93 330.81 454.81 330.86 454.69Z" fill="#7FC37E"/>
<path d="M331.65 453.54C331.68 453.45 331.78 453.39 331.88 453.4C332.33 453.44 332.76 453.6 333.14 453.87C333.34 454.02 333.13 454.36 332.92 454.21C332.58 453.96 332.2 453.83 331.81 453.79C331.68 453.78 331.6 453.66 331.65 453.54Z" fill="#7FC37E"/>
<path d="M332.5 452.42C332.53 452.33 332.63 452.27 332.73 452.28C333.18 452.32 333.61 452.48 333.99 452.75C334.19 452.9 333.98 453.24 333.77 453.09C333.43 452.84 333.05 452.71 332.66 452.67C332.53 452.66 332.45 452.54 332.5 452.42Z" fill="#7FC37E"/>
<path opacity="0.2" d="M324.73 464.02C324.73 464.27 324.75 464.54 324.78 464.82C324.84 465.32 325.32 466.27 325.33 466.29L339.53 459.07C339.53 459.07 340.55 457.49 341.18 457.2C342.3 456.68 343.27 457.39 343.27 457.39L348.45 454.8C348.45 454.8 348.14 453.95 347.7 452.72L347.59 452.41L324.73 464.02Z" fill="white"/>
<path d="M332.92 452.69L332.69 452.64C332.31 452.56 331.02 452.26 330.56 451.91C330.08 451.55 329.77 451.05 329.71 450.53C329.67 450.24 329.74 449.86 330.04 449.69C330.33 449.52 330.66 449.63 330.9 449.76C331.36 450 331.78 450.41 332.12 450.96C332.42 451.44 332.63 451.97 332.84 452.48L332.93 452.7L332.92 452.69ZM330.36 449.85C330.29 449.85 330.22 449.86 330.16 449.9C329.97 450.01 329.93 450.29 329.96 450.5C330.01 450.95 330.29 451.39 330.71 451.71C331.01 451.94 331.8 452.18 332.52 452.34C332.35 451.91 332.16 451.47 331.91 451.08C331.59 450.57 331.21 450.19 330.79 449.97C330.69 449.92 330.53 449.85 330.37 449.85H330.36Z" fill="#7FC37E"/>
<path d="M332.67 452.73L332.65 452.49C332.61 451.94 332.57 451.37 332.64 450.81C332.71 450.16 332.9 449.62 333.22 449.2C333.44 448.9 333.72 448.75 333.96 448.77C334.3 448.8 334.52 449.11 334.62 449.39C334.79 449.88 334.73 450.47 334.46 451C334.19 451.52 333.17 452.34 332.86 452.59L332.67 452.74V452.73ZM333.92 449.02C333.7 449.02 333.52 449.23 333.42 449.35C333.13 449.74 332.96 450.24 332.89 450.84C332.84 451.3 332.86 451.78 332.89 452.24C333.46 451.78 334.07 451.22 334.24 450.88C334.48 450.41 334.54 449.89 334.39 449.46C334.32 449.26 334.17 449.03 333.95 449.01H333.92V449.02Z" fill="#7FC37E"/>
<path d="M402.98 347.91C402.98 347.91 384.51 365.97 374.91 374.94C365.31 383.91 335.1 382.58 335.1 382.58L346.5 440.76L330.84 442.65C330.84 442.65 316.07 399.48 310.34 376.39C309.51 373.04 311.06 367.99 312.57 365.86C318.9 356.95 365.88 355.44 365.88 355.44L366.91 349.17L402.97 347.9L402.98 347.91Z" fill="#263238"/>
<path opacity="0.2" d="M337.39 394.3C337.39 394.3 329.12 379.73 327.35 373.9C325.59 368.07 326.13 365.89 330.47 364.13C334.81 362.37 365.55 358.68 365.55 358.68L366.04 356.14L372.38 363.06C372.38 363.06 336.03 365.49 336.44 371.46C336.85 377.43 337.39 394.3 337.39 394.3Z" fill="black"/>
<path d="M402.98 347.91C402.98 347.91 406.78 370.35 399.03 376.09C391.63 381.58 360.36 384.85 360.36 384.85L369.96 443.35L354.63 446.04C354.63 446.04 339.72 401.44 333.98 378.36C333.15 375.01 333.86 370.7 335.38 368.57C341.71 359.66 388.27 356.95 388.27 356.95L402.98 347.91Z" fill="#263238"/>
<path opacity="0.2" d="M360.36 384.86C360.36 384.86 357.91 381.3 356.06 379.84C356.06 379.84 361.36 381.6 362.37 384.74L360.36 384.86Z" fill="black"/>
<path d="M329.36 348.43L332.72 353.43C332.72 353.43 353.85 346.29 356.34 343.89C358.83 341.5 361.93 319.97 361.93 319.97V304.71L362.18 293.66C362.18 293.66 353.42 295.79 352.72 302.83C352.51 304.91 348.76 335.9 348.76 335.9L329.35 348.44L329.36 348.43Z" fill="#E9B376"/>
<path d="M336.27 360.94H367.06C367.06 362.13 365.74 363.07 364.13 363.07H313.98C312.38 363.06 311.1 362.11 311.1 360.94H336.27Z" fill="#263238"/>
<path d="M313.52 362.95H341.65C342.14 362.95 342.53 362.63 342.52 362.24C342.52 362.17 342.5 362.09 342.48 362.02L329.97 333.33C329.65 332.51 328.71 331.95 327.64 331.95H299.5C299.02 331.95 298.64 332.26 298.64 332.64C298.64 332.72 298.66 332.8 298.69 332.87L311.2 361.56C311.52 362.38 312.46 362.93 313.53 362.94L313.52 362.95Z" fill="#263238"/>
<path d="M299.49 331.95H327.63C328.7 331.95 329.64 332.51 329.96 333.33L342 360.93H367.06C367.06 362.12 365.74 363.06 364.13 363.06H313.98C313.47 363.06 313 362.95 312.59 362.78C311.94 362.56 311.41 362.12 311.19 361.56L298.68 332.87C298.65 332.79 298.63 332.72 298.63 332.63C298.63 332.25 299.02 331.94 299.49 331.94V331.95Z" fill="#7FC37E"/>
<path d="M316.39 347.22C317 348.6 318.23 349.54 319.15 349.35C320.07 349.16 320.31 347.9 319.72 346.52C319.13 345.14 317.88 344.22 316.97 344.41C316.05 344.6 315.78 345.81 316.39 347.22Z" fill="white"/>
<g opacity="0.3">
<path d="M329.96 333.33L342 360.93H340.7L327.64 331.94C328.71 331.94 329.65 332.5 329.97 333.32L329.96 333.33Z" fill="black"/>
</g>
<path opacity="0.5" d="M299.49 331.95H327.63C328.7 331.95 329.64 332.51 329.96 333.33L342 360.93H367.06C367.06 362.12 365.74 363.06 364.13 363.06H313.98C313.47 363.06 313 362.95 312.59 362.78C311.94 362.56 311.41 362.12 311.19 361.56L298.68 332.87C298.65 332.79 298.63 332.72 298.63 332.63C298.63 332.25 299.02 331.94 299.49 331.94V331.95Z" fill="white"/>
<path d="M363.58 355.54C363.58 355.54 358.69 349.66 360.26 348.52L360.83 294.07L362.19 293.66L373.25 291.13L384.68 288.67L390.68 289.92L401.24 301.57C401.24 301.57 402.73 329.98 402.81 331.27C402.91 332.85 403.67 353.44 403.67 353.44C385.58 357.41 363.29 356.96 363.58 355.56V355.54Z" fill="#7FC37E"/>
<path d="M369.49 292.07L374.1 298.97L382.57 288.53C382.57 288.53 380.31 286.78 378.41 285.15C376.9 283.86 372.81 278.69 372.81 278.69L371.69 279.67L364.57 285.81C364.57 285.81 369.65 288.71 369.53 289.79C369.73 290.73 369.95 291.69 369.42 292.06" fill="#E9B376"/>
<path opacity="0.2" d="M369.53 289.81C369.73 290.86 369.84 291.08 369.49 292.08C374.82 290.96 372.27 279.72 372.27 279.72H371.69L364.57 285.86C364.57 285.86 369.69 288.78 369.53 289.81Z" fill="black"/>
<path d="M350.82 268.72C350.09 271.76 351.03 277.83 355.04 275.55C359.05 273.28 352.07 263.5 350.82 268.72Z" fill="#263238"/>
<path d="M372.45 271.26C373.44 278.87 374.15 283.14 371.08 287.69C366.47 294.54 356.74 292.94 353.49 285.76C350.57 279.3 349.44 267.94 356.25 263.6C362.96 259.32 371.46 263.65 372.45 271.26Z" fill="#E9B376"/>
<path d="M372 261.03C370.17 257.09 364.37 255.83 361.88 258.51C361.51 258.91 365 259.4 364.6 259.34L366.01 265.4C366.44 265.22 367.41 265.57 368.13 266.87C368.13 266.87 368.56 275.04 372.47 277.75C379.88 272.43 377.92 261.7 372 261.03Z" fill="#263238"/>
<path d="M376.63 276.96C376.4 279.01 375.24 280.76 373.89 281.79C371.86 283.34 369.88 281.75 369.64 279.34C369.42 277.17 370.21 273.75 372.64 273.15C375.03 272.56 376.89 274.62 376.63 276.96Z" fill="#E9B376"/>
<path d="M362.11 275.5C362.26 276.27 361.97 276.97 361.46 277.06C360.96 277.15 360.43 276.6 360.28 275.83C360.13 275.06 360.42 274.36 360.92 274.27C361.42 274.18 361.95 274.73 362.1 275.5H362.11Z" fill="#263238"/>
<path d="M354.59 277.11C354.74 277.88 354.45 278.58 353.95 278.67C353.45 278.76 352.92 278.21 352.77 277.44C352.62 276.67 352.91 275.97 353.41 275.88C353.91 275.79 354.44 276.34 354.59 277.11Z" fill="#263238"/>
<path d="M356.96 276.21C356.96 276.21 355.26 280.5 354.78 282.21C356.04 282.97 357.8 282.17 357.8 282.17L356.96 276.21Z" fill="#D58745"/>
<path d="M362.99 271.06C362.89 271.13 362.74 271.15 362.62 271.09C361.13 270.4 359.97 271.09 359.96 271.09C359.79 271.2 359.56 271.14 359.45 270.97C359.34 270.8 359.4 270.57 359.57 270.47C359.63 270.43 361.08 269.57 362.93 270.43C363.11 270.52 363.19 270.73 363.11 270.92C363.08 270.98 363.04 271.03 362.99 271.06Z" fill="#263238"/>
<path d="M351.17 275.42C351.1 275.42 351.03 275.38 350.97 275.34C350.81 275.21 350.79 274.98 350.92 274.82C352.21 273.26 353.88 273.45 353.96 273.45C354.16 273.47 354.31 273.66 354.28 273.86C354.26 274.06 354.08 274.2 353.88 274.18C353.81 274.17 352.52 274.04 351.49 275.29C351.41 275.39 351.29 275.43 351.17 275.42Z" fill="#263238"/>
<path d="M371.72 261.54C371.66 261.54 371.61 261.52 371.56 261.48C371.45 261.39 371.44 261.23 371.53 261.13C372.48 259.99 373.69 259.11 374.78 258.77C374.91 258.73 375.05 258.8 375.09 258.94C375.13 259.07 375.06 259.21 374.92 259.25C373.94 259.55 372.79 260.39 371.91 261.45C371.86 261.51 371.79 261.54 371.72 261.54Z" fill="#263238"/>
<path d="M371.83 261.42C371.83 261.42 371.78 261.42 371.75 261.41C371.62 261.37 371.55 261.23 371.59 261.1C372.03 259.74 371.95 258.21 371.36 256.9C371.3 256.77 371.36 256.63 371.49 256.57C371.62 256.51 371.76 256.57 371.82 256.7C372.46 258.12 372.55 259.78 372.07 261.26C372.04 261.37 371.94 261.43 371.83 261.43V261.42Z" fill="#263238"/>
<path opacity="0.2" d="M371.51 278.37C371.38 278.37 371.27 278.27 371.26 278.14C371.21 277.43 371.34 276.72 371.64 276.08C371.85 275.65 372.23 275.06 372.86 274.77C373.49 274.48 374.24 274.59 374.68 275.03C374.78 275.13 374.78 275.29 374.68 275.38C374.58 275.48 374.42 275.48 374.33 275.38C374.04 275.09 373.51 275.02 373.07 275.22C372.57 275.45 372.26 275.93 372.09 276.29C371.82 276.85 371.71 277.47 371.76 278.09C371.77 278.23 371.67 278.35 371.53 278.36H371.51V278.37Z" fill="black"/>
<path d="M359.69 283.97C361.44 283.52 362.87 282.26 363.52 280.57C363.56 280.47 363.5 280.36 363.4 280.33H363.39C363.3 280.29 363.19 280.34 363.16 280.44C362.54 282.01 361.22 283.17 359.6 283.6C359.51 283.64 359.46 283.74 359.5 283.83C359.54 283.93 359.64 283.97 359.73 283.94L359.68 283.98L359.69 283.97Z" fill="#263238"/>
<path d="M367.52 292.44C367.67 292.22 369.7 290.77 369.7 290.77L373.76 293.97L379.59 285.89L384.68 288.66L373.91 302.2L367.52 292.43V292.44Z" fill="#7FC37E"/>
<path opacity="0.1" d="M373.94 356.39C373.84 356.39 373.74 356.32 373.7 356.22C371.33 349.31 371.64 341.53 371.94 334.01C372.05 331.3 372.16 328.51 372.13 325.84C372.05 317.09 372.47 307.38 373.46 295.29C373.47 295.15 373.59 295.04 373.73 295.06C373.87 295.07 373.97 295.19 373.96 295.33C372.97 307.4 372.55 317.1 372.63 325.83C372.65 328.5 372.54 331.31 372.44 334.02C372.14 341.5 371.84 349.23 374.17 356.05C374.21 356.18 374.15 356.32 374.01 356.37C373.98 356.37 373.96 356.38 373.93 356.38L373.94 356.39Z" fill="black"/>
<path opacity="0.2" d="M390.24 327.57L385.12 328.06L386.87 306.27L388.14 324.89L402.5 325.49L390.24 327.57Z" fill="black"/>
<path opacity="0.2" d="M367.52 292.44C367.63 292.61 369.99 297.29 370.99 299.27C371.16 299.6 371.64 299.57 371.76 299.23L373.57 294.34L371.34 298.14L367.52 292.45V292.44Z" fill="black"/>
<path opacity="0.2" d="M373.94 294.05C374.09 294.2 378.09 298.49 378.09 298.49L383.96 288.66L378.94 299.86C378.71 300.38 377.99 300.43 377.69 299.95L373.94 294.04V294.05Z" fill="black"/>
<path d="M390.28 315.93C390.28 315.93 390.25 331.65 390.21 331.81C390.18 331.98 362.81 343.41 362.81 343.41C362.81 343.82 366.88 348.57 366.88 348.57C366.88 348.57 396.73 344.65 400.1 339.56C402.98 335.22 403.43 315.72 403.43 315.72L390.28 315.92V315.93Z" fill="#E9B376"/>
<path d="M390.68 289.91C401.58 290.83 404.26 298.95 404.06 311.31C403.87 323.21 404.16 325.85 404.16 325.85L387.81 325.49C387.81 325.49 387.54 304.25 387.54 302.2C387.54 300.15 390.68 289.9 390.68 289.9V289.91Z" fill="#7FC37E"/>
<path d="M362.48 330.6L347.5 326.83C347.5 326.83 351.61 305.51 352.31 301.94C353.11 297.89 358.01 294.82 362.19 293.66L365.71 307.36L362.48 330.6Z" fill="#7FC37E"/>
<path opacity="0.2" d="M360.26 330.04C360.1 330 357.84 308.29 357.84 308.29L356.6 329.13L360.26 330.05V330.04Z" fill="black"/>
<path d="M348.45 358.52C348.59 357.12 351.22 350.98 352.57 348.94C353.92 346.9 362.81 343.41 362.81 343.41L368.03 347.18C368.03 347.18 368.03 349.36 366.18 350.94C365.12 351.85 361.53 352.77 361.53 352.77C361.53 352.77 361.83 353.88 361.83 355.12C361.83 356.5 361.56 358.19 360.42 358.14C359.29 358.09 358.87 354.44 358.82 353.91C358.87 354.44 359.19 358.18 357.67 358.31C356.21 358.44 355.97 354.54 355.97 354.54C355.97 354.54 355.89 356.35 355.85 357.28C355.8 358.21 354.87 359.01 354.01 357.98C353.01 356.78 352.93 354.72 352.93 354.72C352.93 354.72 352.14 355.93 350.96 358.56C350.11 360.45 348.33 359.69 348.45 358.51V358.52Z" fill="#E9B376"/>
<path opacity="0.1" d="M358.87 354.72C358.74 354.72 358.63 354.62 358.62 354.48C358.59 353.78 358.55 353.05 358.65 352.33C358.77 351.5 359.05 350.81 359.49 350.28C359.58 350.17 359.74 350.16 359.84 350.25C359.95 350.34 359.96 350.5 359.87 350.6C359.49 351.05 359.24 351.67 359.14 352.4C359.05 353.07 359.08 353.78 359.11 354.46C359.11 354.6 359.01 354.71 358.87 354.72Z" fill="black"/>
<path opacity="0.1" d="M355.9 355.22C355.77 355.22 355.66 355.12 355.65 354.98C355.62 354.28 355.58 353.55 355.68 352.83C355.8 351.99 356.08 351.3 356.52 350.78C356.61 350.68 356.77 350.66 356.87 350.75C356.98 350.84 356.99 351 356.9 351.1C356.52 351.55 356.28 352.16 356.17 352.9C356.08 353.57 356.11 354.28 356.14 354.95C356.14 355.09 356.04 355.2 355.9 355.21H355.89L355.9 355.22Z" fill="black"/>
<path opacity="0.1" d="M352.95 354.96C352.82 354.96 352.71 354.86 352.7 354.72C352.67 354.02 352.63 353.29 352.73 352.57C352.85 351.74 353.13 351.05 353.57 350.52C353.66 350.41 353.82 350.4 353.92 350.49C354.03 350.58 354.04 350.74 353.95 350.84C353.57 351.29 353.32 351.91 353.22 352.64C353.13 353.31 353.16 354.02 353.19 354.7C353.19 354.84 353.09 354.95 352.95 354.96Z" fill="black"/>
<path d="M370.36 258.33C369.67 257.46 368.57 257.01 367.47 256.83C365.99 256.58 364.45 256.69 363.02 257.13C361.37 257.64 359.86 258.6 358.16 258.86C357.95 258.89 357.71 258.9 357.56 258.76C357.45 258.66 357.42 258.51 357.37 258.37C357.07 257.45 356.14 256.76 355.17 256.76C354.2 256.76 353.26 257.43 352.96 258.36C352.03 256.9 349.8 256.73 348.33 257.64C346.85 258.55 346 259.57 345.51 261.23C345.34 261.81 345.27 263.08 345.48 264.03C345.91 265.93 346.95 267.09 348.61 268.1C350.85 269.46 353.5 270.4 356.08 269.93C359.52 269.3 362.13 266.34 365.53 265.51C366.81 265.2 368.34 265.28 369.23 266.25L372 261.03C372 260.15 371.15 259.32 370.35 258.32L370.36 258.33Z" fill="#263238"/>
<path d="M201.14 449.2L208.21 448.88L210.83 430.49L200.06 430.86L201.14 449.2Z" fill="#B97964"/>
<path d="M209.07 445.66H206.56C205.99 445.66 205.46 445.95 205.13 446.41C203.68 448.39 202.59 447.64 201.01 445.78C200.01 445.66 199.74 446.81 199.66 447.12L197.78 453.96C197.62 454.53 197.95 455.13 198.52 455.29C198.62 455.32 198.73 455.33 198.83 455.33H218.75C221.92 455.33 222.58 452.14 221.27 451.84C215.4 450.54 211.24 448.82 209.43 447.11C209.09 446.81 209.43 446.59 209.07 445.66Z" fill="#263238"/>
<path d="M213.99 447.94C214.25 447.75 214.41 447.45 214.42 447.12C214.44 446.95 214.36 446.77 214.21 446.68C213.42 446.12 210.28 447.59 209.93 447.76C209.89 447.77 209.86 447.81 209.85 447.84C209.82 447.91 209.86 447.99 209.93 448.02C210.7 448.2 211.49 448.3 212.29 448.32C212.89 448.38 213.48 448.24 214 447.93L213.99 447.94ZM214.01 446.91C214.07 446.95 214.11 447.02 214.09 447.1C214.08 447.34 213.96 447.55 213.78 447.7C213.07 448.23 211.34 448 210.41 447.83C211.72 447.26 213.57 446.61 214.01 446.91Z" fill="#7FC37E"/>
<path d="M210.03 448.06C210.97 447.67 212.95 446.11 212.85 445.29C212.83 445.12 212.71 444.91 212.28 444.85C210.56 444.65 209.82 447.75 209.82 447.88C209.8 447.93 209.82 447.99 209.86 448.03C209.89 448.03 209.93 448.03 209.96 448.03L210.03 448.05V448.06ZM212.22 445.11C212.54 445.14 212.54 445.26 212.54 445.3C212.63 445.8 211.19 447.09 210.17 447.63C210.38 446.91 211.02 445.1 212.11 445.1H212.22V445.11Z" fill="#7FC37E"/>
<path d="M208.14 449.56C208.14 449.56 208.05 449.55 208.01 449.52C207.89 449.45 207.86 449.29 207.93 449.18C208.44 448.38 209.3 447.82 210.24 447.69C210.37 447.68 210.5 447.77 210.52 447.9C210.54 448.03 210.44 448.16 210.31 448.18C209.51 448.29 208.78 448.76 208.35 449.44C208.3 449.52 208.22 449.56 208.14 449.56Z" fill="#7FC37E"/>
<path d="M209.71 450.74C209.71 450.74 209.62 450.73 209.58 450.7C209.46 450.63 209.43 450.47 209.5 450.36C210.01 449.56 210.87 449 211.81 448.87C211.94 448.86 212.07 448.95 212.09 449.08C212.11 449.21 212.01 449.34 211.88 449.36C211.08 449.47 210.35 449.94 209.92 450.62C209.87 450.7 209.79 450.74 209.71 450.74Z" fill="#7FC37E"/>
<path d="M211.65 451.73C211.65 451.73 211.56 451.72 211.52 451.69C211.4 451.62 211.37 451.46 211.44 451.35C211.95 450.55 212.81 449.99 213.75 449.86C213.88 449.84 214.01 449.94 214.03 450.07C214.05 450.21 213.95 450.33 213.82 450.35C213.02 450.46 212.29 450.93 211.86 451.61C211.81 451.69 211.73 451.73 211.65 451.73Z" fill="#7FC37E"/>
<path opacity="0.3" d="M209.4 440.52L209.06 442.88L200.76 442.74L200.63 440.52H209.4Z" fill="black"/>
<path d="M230.6 447.38L238.27 446.41L239.96 429.07L229.43 428.78L230.6 447.38Z" fill="#B97964"/>
<path d="M238.66 444.96H236.15C235.58 444.96 235.05 445.25 234.72 445.71C233.27 447.69 232.18 446.94 230.6 445.08C229.6 444.96 229.33 446.11 229.25 446.42L227.37 453.26C227.21 453.83 227.54 454.43 228.11 454.59C228.21 454.62 228.32 454.63 228.42 454.63H248.34C251.51 454.63 252.17 451.44 250.86 451.14C244.99 449.84 240.83 448.12 239.02 446.41C238.68 446.11 239.02 445.89 238.66 444.96Z" fill="#263238"/>
<path d="M244.11 446.9C244.37 446.71 244.53 446.4 244.54 446.08C244.56 445.91 244.48 445.73 244.33 445.64C243.54 445.08 240.4 446.55 240.05 446.72C240.01 446.73 239.98 446.77 239.97 446.8C239.94 446.87 239.98 446.95 240.05 446.98C240.82 447.16 241.61 447.26 242.41 447.28C243.01 447.34 243.6 447.2 244.12 446.89L244.11 446.9ZM244.13 445.87C244.19 445.91 244.23 445.98 244.21 446.06C244.2 446.3 244.08 446.51 243.9 446.66C243.19 447.19 241.46 446.96 240.53 446.79C241.84 446.22 243.69 445.57 244.13 445.87Z" fill="#7FC37E"/>
<path d="M240.16 447.02C241.1 446.63 243.08 445.07 242.98 444.25C242.96 444.08 242.84 443.87 242.41 443.82C240.69 443.62 239.95 446.72 239.95 446.85C239.93 446.9 239.95 446.96 239.99 447C240.02 447 240.06 447 240.09 447L240.16 447.02ZM242.35 444.07C242.67 444.1 242.67 444.22 242.67 444.26C242.76 444.76 241.32 446.05 240.3 446.59C240.51 445.87 241.15 444.06 242.24 444.06H242.35V444.07Z" fill="#7FC37E"/>
<path d="M238.27 448.53C238.27 448.53 238.18 448.52 238.14 448.49C238.02 448.42 237.99 448.26 238.06 448.15C238.57 447.35 239.43 446.79 240.37 446.66C240.5 446.65 240.63 446.74 240.65 446.87C240.67 447 240.57 447.13 240.44 447.15C239.64 447.26 238.91 447.73 238.48 448.41C238.43 448.49 238.35 448.53 238.27 448.53Z" fill="#7FC37E"/>
<path d="M239.83 449.7C239.83 449.7 239.74 449.69 239.7 449.66C239.58 449.59 239.55 449.43 239.62 449.32C240.13 448.52 240.99 447.96 241.93 447.83C242.06 447.82 242.19 447.91 242.21 448.04C242.23 448.18 242.13 448.3 242 448.32C241.2 448.43 240.47 448.9 240.04 449.58C239.99 449.66 239.91 449.7 239.83 449.7Z" fill="#7FC37E"/>
<path d="M241.78 450.69C241.78 450.69 241.69 450.68 241.65 450.65C241.53 450.58 241.5 450.42 241.57 450.31C242.08 449.5 242.94 448.95 243.88 448.82C244.01 448.81 244.14 448.9 244.16 449.03C244.18 449.16 244.08 449.29 243.95 449.31C243.15 449.42 242.42 449.89 241.99 450.57C241.94 450.65 241.86 450.69 241.78 450.69Z" fill="#7FC37E"/>
<path opacity="0.3" d="M238.94 439.48L238.71 441.85L230.25 441.8L230.1 439.48H238.94Z" fill="black"/>
<path d="M196.73 248.9C194.71 238.39 201.26 240.33 199.03 226.95C196.57 212.21 207.08 210.08 207.08 210.08C207.08 210.08 208.32 202.74 215.18 203.12C222.04 203.5 239.22 207.14 235.77 225.36C233.76 235.98 237.29 236.76 239.09 241.55C241.64 248.32 233.51 254.4 238.82 259.03C238.82 259.03 225.21 263.02 205.35 261.69C205.35 261.69 197.96 255.31 196.73 248.9Z" fill="#263238"/>
<path d="M233.72 252.85C233.72 252.85 243.06 276.22 244.54 276.36C246.02 276.5 264.97 269.12 264.97 269.12L267.92 272.45C267.92 272.45 258 285.72 242.29 289.93C239.47 290.69 235.91 287.49 232.51 283.12C231.84 282.27 231.19 281.37 230.55 280.45C227.06 275.27 223.92 269.85 221.17 264.24L233.73 252.85H233.72Z" fill="#7FC37E"/>
<path opacity="0.6" d="M233.72 252.85C233.72 252.85 243.06 276.22 244.54 276.36C246.02 276.5 264.97 269.12 264.97 269.12L267.92 272.45C267.92 272.45 258 285.72 242.29 289.93C239.47 290.69 235.91 287.49 232.51 283.12C231.84 282.27 231.19 281.37 230.55 280.45C227.06 275.27 223.92 269.85 221.17 264.24L233.73 252.85H233.72Z" fill="white"/>
<path opacity="0.2" d="M233.72 255.94C234.45 259.18 236.17 264.03 237.52 267.48C237.96 268.6 238.15 269.8 237.95 270.99C237.37 274.39 234.43 275.48 233.45 278.19C232.9 279.78 232.59 281.44 232.51 283.12C231.84 282.27 231.19 281.37 230.55 280.45L229.1 274.72L233.73 255.94H233.72Z" fill="black"/>
<path d="M241.39 278.96C240.51 278.71 239.99 277.79 240.24 276.9L246.57 250.26C246.95 249 248.08 248.11 249.4 248.06L269.7 247.64C269.92 247.61 270.14 247.63 270.36 247.69C271.24 247.94 271.76 248.86 271.51 249.75L265.18 276.39C264.8 277.65 263.67 278.54 262.35 278.6L242.05 279.02C241.83 279.05 241.61 279.03 241.39 278.97V278.96Z" fill="#263238"/>
<path opacity="0.2" d="M241.39 278.96C240.51 278.71 239.99 277.79 240.24 276.9L246.57 250.26C246.95 249 248.08 248.11 249.4 248.06L269.7 247.64C269.92 247.61 270.14 247.63 270.36 247.69C271.24 247.94 271.76 248.86 271.51 249.75L265.18 276.39C264.8 277.65 263.67 278.54 262.35 278.6L242.05 279.02C241.83 279.05 241.61 279.03 241.39 278.97V278.96Z" fill="white"/>
<path d="M243.48 278.91C242.6 278.66 242.08 277.74 242.33 276.86L248.66 250.22C249.04 248.96 250.17 248.08 251.48 248.01L271.79 247.59C272.01 247.56 272.23 247.58 272.45 247.64C273.33 247.89 273.85 248.81 273.6 249.7L267.26 276.34C266.88 277.6 265.75 278.48 264.44 278.55L244.13 278.97C243.91 279 243.69 278.97 243.48 278.92V278.91Z" fill="#263238"/>
<path opacity="0.3" d="M243.48 278.91C242.6 278.66 242.08 277.74 242.33 276.86L248.66 250.22C249.04 248.96 250.17 248.08 251.48 248.01L271.79 247.59C272.01 247.56 272.23 247.58 272.45 247.64C273.33 247.89 273.85 248.81 273.6 249.7L267.26 276.34C266.88 277.6 265.75 278.48 264.44 278.55L244.13 278.97C243.91 279 243.69 278.97 243.48 278.92V278.91Z" fill="white"/>
<path opacity="0.2" d="M261.8 263.21C261.69 262.04 260.65 261.19 259.49 261.3C257.84 261.39 256.43 262.53 255.99 264.12C255.91 264.38 255.89 264.66 255.91 264.93C256.03 266.09 257.06 266.93 258.22 266.81C259.87 266.72 261.29 265.59 261.73 264C261.8 263.74 261.83 263.47 261.8 263.21Z" fill="white"/>
<path d="M268.66 264.48C268.26 264.45 266.56 265.29 265.76 264.73C264.96 264.17 265.71 263.71 265.71 263.71C267.17 263.35 268.78 261.52 269.67 262.05C270.56 262.57 272.03 263.23 271.82 264.06C271.58 264.83 271.28 265.58 270.94 266.32C271.17 266.69 271.2 267.15 271.02 267.55C270.84 268.01 270.43 268.35 269.95 268.44C270.23 268.72 270.37 269.11 270.35 269.51C270.28 270.14 268.62 270.97 268.62 270.97C268.62 270.97 268.94 271.96 268.56 272.34C267.91 272.87 267.05 273.07 266.23 272.87C265.26 272.64 264.59 272.3 264.66 271.32C264.73 270.34 266.48 270.34 266.48 270.34C266.48 270.34 263.18 269.34 263.88 268.72C264.58 268.1 267.21 268.17 267.21 268.17C267.21 268.17 262.75 267.29 263.46 266.37C264.17 265.45 268.61 265.7 268.61 265.7C268.61 265.7 269.06 264.5 268.66 264.47V264.48Z" fill="#B97964"/>
<path d="M214.32 302.14L234.03 302.22C234.03 302.22 240.92 336.89 240.51 375.76C241.31 398.58 240.67 440.54 240.67 440.54H227.85C227.85 440.54 219.68 406.46 222.95 379.46C221.76 374.8 220.17 366.74 219.24 362.63C216.62 351.54 214.65 340.3 213.34 328.98C211.09 307.76 214.31 302.14 214.31 302.14H214.32Z" fill="#263238"/>
<path opacity="0.2" d="M216.07 315.75C216.07 315.75 223.18 347.67 219.25 362.62C216.63 351.53 214.66 340.29 213.35 328.97L216.07 315.74V315.75Z" fill="black"/>
<path d="M197.75 293.06C196.03 300.76 189.29 310.17 187.92 320.02C185.59 336.85 195.71 357.78 198.35 377.52C194.35 406.72 200.48 442.13 199.67 441.36H212.54C212.93 438.76 215.57 399.2 216.88 375.76C217.99 355.24 219.76 303.65 219.76 303.65L197.74 293.06H197.75Z" fill="#263238"/>
<path d="M197.27 288.4C197.25 287.02 194.58 277.11 194.51 275.65C194.18 268.58 193.39 261.55 192.15 254.58C192.1 254.28 192.06 253.97 192.04 253.67C191.7 248.88 195.32 244.72 200.11 244.39C201.49 244.29 202.94 244.24 204.44 244.2C205.94 244.16 207.37 244.16 208.75 244.16C212.53 244.09 216.31 244.27 220.06 244.69L220.89 244.8C222.3 244.98 223.73 245.22 225.11 245.45C231.1 246.46 235.33 251.88 234.87 257.94C234.2 265.87 240.18 270.71 232.53 276.06C231.54 282.86 233.01 297.39 235.86 307.41C236.87 310.97 208.04 310.5 191.86 305.15L197.26 288.41" fill="#7FC37E"/>
<path opacity="0.6" d="M197.27 288.4C197.25 287.02 194.58 277.11 194.51 275.65C194.18 268.58 193.39 261.55 192.15 254.58C192.1 254.28 192.06 253.97 192.04 253.67C191.7 248.88 195.32 244.72 200.11 244.39C201.49 244.29 202.94 244.24 204.44 244.2C205.94 244.16 207.37 244.16 208.75 244.16C212.53 244.09 216.31 244.27 220.06 244.69L220.89 244.8C222.3 244.98 223.73 245.22 225.11 245.45C231.1 246.46 235.33 251.88 234.87 257.94C234.2 265.87 240.18 270.71 232.53 276.06C231.54 282.86 233.01 297.39 235.86 307.41C236.87 310.97 208.04 310.5 191.86 305.15L197.26 288.41" fill="white"/>
<path d="M207.33 244.16C207.33 244.16 210.34 246.48 214.22 249.82C215.03 250.52 215.92 251.12 216.86 251.62C219.4 252.97 221.72 253.74 222.34 252.52C222.48 252.25 222.59 251.96 222.67 251.65C223.2 249.6 222.98 246.72 221.33 245.4C219.46 243.91 218.56 242.64 218.9 240.63C219.08 239.49 219.49 238.31 219.97 237.16L217.81 235.86L210.12 228.1C211 232.86 211.39 241.36 207.34 244.17L207.33 244.16Z" fill="#B97964"/>
<path opacity="0.2" d="M218.82 241.06C216.7 239.8 214.38 237.63 214.66 235.14C214.78 234.09 215.01 233.1 215.26 232.46L219.56 238.15C219.21 239.07 219.08 239.67 218.82 241.06Z" fill="black"/>
<path d="M208.61 219.34C209.33 227.24 209.47 230.6 213.55 234.74C219.69 240.97 229.13 238.88 230.75 231.04C232.21 223.99 230.78 212.25 223.02 208.92C215.37 205.65 207.88 211.43 208.6 219.33L208.61 219.34Z" fill="#B97964"/>
<path d="M218.85 221.91C218.89 222.75 219.34 223.43 219.86 223.44C220.38 223.45 220.77 222.78 220.73 221.95C220.69 221.11 220.24 220.43 219.72 220.42C219.2 220.41 218.81 221.08 218.85 221.91Z" fill="#263238"/>
<path d="M226.65 221.89C226.69 222.7 227.14 223.37 227.66 223.38C228.18 223.39 228.57 222.74 228.53 221.93C228.49 221.12 228.04 220.45 227.52 220.44C227 220.43 226.61 221.08 226.65 221.89Z" fill="#263238"/>
<path d="M217.2 219C217.3 219.01 217.4 218.98 217.48 218.91C218.7 217.78 220.07 218.18 220.08 218.18C220.28 218.24 220.49 218.12 220.54 217.92C220.59 217.71 220.46 217.5 220.25 217.43C220.18 217.41 218.46 216.91 216.95 218.31C216.8 218.45 216.8 218.7 216.95 218.86C217.02 218.94 217.11 218.99 217.21 219H217.2Z" fill="#263238"/>
<path d="M229.27 217.92C229.35 217.89 229.42 217.83 229.45 217.75C229.52 217.57 229.43 217.34 229.25 217.24C227.44 216.22 226.1 217 226.05 217.03C225.89 217.12 225.85 217.35 225.96 217.53C226.07 217.71 226.29 217.78 226.45 217.69C226.5 217.66 227.55 217.08 228.99 217.89C229.08 217.94 229.18 217.95 229.27 217.92Z" fill="#263238"/>
<path d="M224.53 221.5C224.53 221.5 225.77 224.46 227.16 226.3C227.4 226.62 227.25 227.09 226.87 227.23C225.89 227.59 224.75 227.26 224.75 227.26L224.52 221.49L224.53 221.5Z" fill="#A24E3F"/>
<path d="M219.43 220.45L221.24 220.02C221.24 220.02 220.25 221.37 219.43 220.45Z" fill="#263238"/>
<path d="M227.33 220.46L229.14 220.03C229.14 220.03 228.15 221.38 227.33 220.46Z" fill="#263238"/>
<path d="M211.36 222.07C211.36 222.07 215.44 215.93 215.23 210.96C215.23 210.96 223.03 208.93 229.26 217.24C230.25 218.56 230.84 220.77 231.73 222.68C231.73 222.68 233.22 207.64 219.87 206.41C206.54 205.18 203.93 223.91 210.43 230.22C210.43 230.22 208.84 225.92 211.36 222.08V222.07Z" fill="#263238"/>
<path d="M206.22 225.78C207.15 227.4 208.67 228.42 210.06 228.77C212.15 229.29 213.23 225.93 212.52 223.83C211.88 221.94 209.82 220.69 207.78 221.11C205.77 221.52 205.15 223.93 206.21 225.78H206.22Z" fill="#B97964"/>
<path opacity="0.2" d="M210.65 225.61C210.52 225.61 210.41 225.51 210.4 225.38C210.35 224.69 210.03 224.04 209.51 223.58C208.99 223.13 208.3 222.89 207.61 222.93C207.48 222.95 207.35 222.83 207.34 222.7C207.34 222.56 207.44 222.44 207.57 222.43C208.39 222.38 209.21 222.66 209.83 223.2C210.45 223.74 210.83 224.52 210.89 225.34C210.89 225.48 210.79 225.6 210.66 225.61H210.64H210.65Z" fill="black"/>
<path d="M222.23 229.91C220.27 229.91 219.57 228.09 219.57 228.07C219.52 227.94 219.59 227.8 219.72 227.75C219.85 227.7 219.99 227.77 220.04 227.9C220.07 227.98 220.77 229.78 222.87 229.34C223 229.31 223.14 229.4 223.16 229.53C223.19 229.66 223.1 229.8 222.97 229.82C222.71 229.87 222.47 229.9 222.24 229.9L222.23 229.91Z" fill="#263238"/>
<path opacity="0.2" d="M195.48 293.96L193.73 299.4C193.73 299.4 213.35 295.95 223.19 287.16C230.19 280.9 229.1 278.26 229.1 278.26L221.17 279.03L195.49 293.97L195.48 293.96Z" fill="black"/>
<path opacity="0.2" d="M203.34 265.97L202.27 283.71C199.31 285.59 197.35 282.98 196.9 280.28V275.17L203.34 265.96V265.97Z" fill="black"/>
<path d="M204.4 263.28C204.4 263.28 196.97 281.68 198.31 282.53C199.65 283.38 221.04 277.53 221.04 277.53L224.41 282.37C223.69 285.55 186.78 305.58 183.77 288.83C181.94 278.65 193.01 249.06 193.01 249.06C202.11 245.5 204.4 263.29 204.4 263.29V263.28Z" fill="#7FC37E"/>
<path opacity="0.6" d="M204.4 263.28C204.4 263.28 196.97 281.68 198.31 282.53C199.65 283.38 221.04 277.53 221.04 277.53L224.41 282.37C223.69 285.55 186.78 305.58 183.77 288.83C181.94 278.65 193.01 249.06 193.01 249.06C202.11 245.5 204.4 263.29 204.4 263.29V263.28Z" fill="white"/>
<path d="M224.73 282.84C227.26 283.04 227.35 279.23 228.66 279.08C229.43 279.01 230.17 278.82 230.88 278.51C230.88 278.51 230.05 280.8 230.88 280.62C231.71 280.44 234.38 280.3 235.04 278.12C235.7 275.94 233.32 271.28 232.78 270.63C232.24 269.98 229.39 270.18 229.39 270.18C229.39 270.18 232.45 269.39 234.13 269.16C235.81 268.93 236.13 267.01 233.78 267.43C232.82 267.6 225.21 267.66 224.39 268.44C223.57 269.22 220.51 276.91 220.51 276.91C219.38 277.56 222.25 284.01 224.72 282.83L224.73 282.84Z" fill="#B97964"/>
<g opacity="0.3">
<path d="M229.37 269.94C228.59 269.89 227.81 269.94 227.04 270.09C226.92 270.12 226.86 270.24 226.89 270.36C226.92 270.46 227.01 270.53 227.12 270.52C227.85 270.37 228.59 270.32 229.33 270.37C229.6 270.37 229.65 269.96 229.38 269.95L229.37 269.94Z" fill="black"/>
<path d="M233.29 272.25C233.53 272.37 233.78 272.03 233.54 271.9C232.12 271.14 230.62 271.57 229.18 272.05C228.92 272.13 229.11 272.52 229.36 272.44C230.63 272.02 232.02 271.61 233.29 272.25Z" fill="black"/>
<path d="M234.41 274.13C233.18 273.4 231.67 273.33 230.38 273.96C230.28 274.02 230.25 274.16 230.31 274.26C230.36 274.34 230.46 274.38 230.55 274.35C231.7 273.79 233.06 273.84 234.16 274.48C234.39 274.62 234.64 274.27 234.4 274.13H234.41Z" fill="black"/>
<path d="M232.36 277.32C232.47 277.1 232.56 276.86 232.62 276.62C232.68 276.35 232.28 276.2 232.21 276.47C232.03 277.29 231.52 278 230.8 278.43C230.56 278.56 230.74 278.95 230.97 278.82H230.95C231.4 278.57 231.78 278.21 232.07 277.79C232.1 277.79 232.12 277.8 232.16 277.79C232.61 277.63 233.11 277.76 233.42 278.12C233.6 278.33 233.93 278.05 233.74 277.85C233.39 277.45 232.87 277.26 232.36 277.32Z" fill="black"/>
</g>
</svg>
