<svg width="500" height="500" viewBox="0 0 500 500" fill="none" xmlns="http://www.w3.org/2000/svg">
<path d="M223.33 118.07C210.68 164.88 215.33 214.22 277.81 228.44C324.81 239.12 347.97 182.23 392.12 226C470.18 303.37 353.36 405.15 252.23 388C151.1 370.85 56.9 270.82 79.06 153.67C86.29 115.42 109.48 68.39 150.66 57.67C186.45 48.35 234.61 76.34 223.33 118.07Z" fill="#7FC37E"/>
<path opacity="0.9" d="M223.33 118.07C210.68 164.88 215.33 214.22 277.81 228.44C324.81 239.12 347.97 182.23 392.12 226C470.18 303.37 353.36 405.15 252.23 388C151.1 370.85 56.9 270.82 79.06 153.67C86.29 115.42 109.48 68.39 150.66 57.67C186.45 48.35 234.61 76.34 223.33 118.07Z" fill="#465B66"/>
<path d="M250 427.56C357.082 427.56 443.89 422.492 443.89 416.24C443.89 409.988 357.082 404.92 250 404.92C142.917 404.92 56.11 409.988 56.11 416.24C56.11 422.492 142.917 427.56 250 427.56Z" fill="#33474D"/>
<path d="M201.44 97.43H183.06C171.478 97.4286 160.152 100.843 150.501 107.247C140.849 113.65 133.301 122.758 128.8 133.43H114.17C107.486 133.336 100.849 134.571 94.6466 137.064C88.4439 139.557 82.7984 143.258 78.0382 147.951C73.2781 152.645 69.4982 158.238 66.9183 164.405C64.3383 170.572 63.0098 177.19 63.0098 183.875C63.0098 190.56 64.3383 197.178 66.9183 203.345C69.4982 209.512 73.2781 215.105 78.0382 219.799C82.7984 224.492 88.4439 228.193 94.6466 230.686C100.849 233.179 107.486 234.414 114.17 234.32H201.44V97.43Z" fill="#7FC37E"/>
<path d="M158 100.26L157.59 99.35C159.894 98.3206 162.258 97.4323 164.67 96.69L164.96 97.69C162.591 98.4071 160.267 99.2653 158 100.26Z" fill="#7FC37E"/>
<path d="M135.17 117.89L134.39 117.26C138.986 111.518 144.566 106.639 150.87 102.85L151.39 103.71C145.185 107.437 139.693 112.238 135.17 117.89Z" fill="#7FC37E"/>
<path opacity="0.2" d="M201.44 97.43H183.06C171.478 97.4286 160.152 100.843 150.501 107.247C140.849 113.65 133.301 122.758 128.8 133.43H114.17C107.486 133.336 100.849 134.571 94.6466 137.064C88.4439 139.557 82.7984 143.258 78.0382 147.951C73.2781 152.645 69.4982 158.238 66.9183 164.405C64.3383 170.572 63.0098 177.19 63.0098 183.875C63.0098 190.56 64.3383 197.178 66.9183 203.345C69.4982 209.512 73.2781 215.105 78.0382 219.799C82.7984 224.492 88.4439 228.193 94.6466 230.686C100.849 233.179 107.486 234.414 114.17 234.32H201.44V97.43Z" fill="black"/>
<path opacity="0.5" d="M132.29 126.5H158.67L178.17 109.17H147.79C141.527 113.864 136.258 119.754 132.29 126.5Z" fill="#7FC37E"/>
<path opacity="0.5" d="M72.34 155.67C68.7832 160.922 66.2583 166.804 64.9 173H95V155.67H72.34Z" fill="#7FC37E"/>
<path opacity="0.5" d="M195.83 101.47H161.59C157.932 102.9 154.427 104.695 151.13 106.83H176.33L195.83 101.47Z" fill="#7FC37E"/>
<path d="M301.86 172.23C299.353 161.682 293.516 152.222 285.213 145.25C276.91 138.278 266.583 134.165 255.76 133.52C251.2 122.669 243.495 113.433 233.637 107.003C223.78 100.572 212.222 97.2417 200.454 97.4407C188.686 97.6398 177.248 101.359 167.613 108.12C157.979 114.88 150.59 124.371 146.4 135.37C139.464 133.394 132.184 132.928 125.052 134.005C117.921 135.081 111.103 137.675 105.059 141.61C99.0145 145.546 93.8846 150.732 90.015 156.818C86.1454 162.905 83.6261 169.75 82.627 176.893C81.6279 184.036 82.1723 191.31 84.2235 198.225C86.2747 205.139 89.7849 211.534 94.5173 216.976C99.2498 222.419 105.094 226.784 111.657 229.775C118.22 232.767 125.348 234.317 132.56 234.32H293.22C300.854 234.313 308.228 231.548 313.983 226.533C319.739 221.519 323.488 214.593 324.54 207.032C325.592 199.471 323.876 191.785 319.709 185.39C315.541 178.994 309.202 174.321 301.86 172.23Z" fill="#7FC37E"/>
<path opacity="0.2" d="M300.77 176.08L298.5 175.44L297.96 173.15C295.621 163.455 290.239 154.764 282.601 148.35C274.964 141.937 265.473 138.138 255.52 137.51L253.03 137.37L252.03 135.07C247.854 125.091 240.818 116.571 231.808 110.585C222.798 104.598 212.218 101.413 201.4 101.43C200.69 101.43 199.99 101.43 199.29 101.43C209.736 101.822 219.851 105.193 228.443 111.147C237.035 117.1 243.745 125.387 247.78 135.03L248.78 137.33L251.27 137.47C261.223 138.098 270.714 141.897 278.351 148.31C285.989 154.724 291.371 163.415 293.71 173.11L294.25 175.4L296.52 176.04C302.963 177.84 308.535 181.915 312.203 187.509C315.871 193.104 317.386 199.838 316.468 206.465C315.55 213.091 312.261 219.16 307.21 223.546C302.159 227.933 295.69 230.339 289 230.32H293.25C299.917 230.312 306.357 227.896 311.384 223.515C316.41 219.135 319.684 213.086 320.604 206.482C321.523 199.878 320.025 193.165 316.386 187.578C312.747 181.992 307.212 177.908 300.8 176.08H300.77Z" fill="black"/>
<path d="M296.52 176.08L294.25 175.44L293.71 173.15C291.371 163.455 285.989 154.764 278.351 148.35C270.714 141.937 261.223 138.138 251.27 137.51L248.78 137.37L247.78 135.07C243.745 125.427 237.035 117.14 228.443 111.187C219.851 105.233 209.736 101.862 199.29 101.47H199.22C188.484 101.94 178.118 105.532 169.394 111.806C160.669 118.08 153.964 126.762 150.1 136.79L148.8 140.22L145.27 139.22L144.96 139.14C140.909 138.013 136.724 137.441 132.52 137.44C131.79 137.44 131.07 137.44 130.34 137.44C118.255 138.053 106.887 143.358 98.6535 152.226C90.4203 161.093 85.9725 172.824 86.2566 184.921C86.5406 197.018 91.5341 208.527 100.174 216.998C108.815 225.469 120.42 230.235 132.52 230.28H289C295.667 230.272 302.107 227.856 307.134 223.475C312.16 219.095 315.434 213.046 316.354 206.442C317.273 199.838 315.775 193.125 312.136 187.538C308.497 181.952 302.962 177.868 296.55 176.04L296.52 176.08Z" fill="white"/>
<path d="M181.36 170.72V210.41H221.36V170.72H234L201.36 134.03L168.72 170.72H181.36Z" fill="#7FC37E"/>
<path d="M168.11 261.34H180.55V281.9C180.55 283.279 180.002 284.602 179.027 285.577C178.052 286.552 176.729 287.1 175.35 287.1H173.35C171.971 287.1 170.648 286.552 169.673 285.577C168.698 284.602 168.15 283.279 168.15 281.9V261.34H168.11Z" fill="#7FC37E"/>
<path opacity="0.2" d="M168.11 261.34H180.55V281.9C180.55 283.279 180.002 284.602 179.027 285.577C178.052 286.552 176.729 287.1 175.35 287.1H173.35C171.971 287.1 170.648 286.552 169.673 285.577C168.698 284.602 168.15 283.279 168.15 281.9V261.34H168.11Z" fill="black"/>
<path d="M162.56 234.32H186.12V257.9C186.12 260.51 185.083 263.013 183.238 264.858C181.393 266.703 178.89 267.74 176.28 267.74H172.4C169.79 267.74 167.287 266.703 165.442 264.858C163.597 263.013 162.56 260.51 162.56 257.9V234.32Z" fill="#7FC37E"/>
<path opacity="0.2" d="M186.11 240.22L162.56 243.78V234.32H186.11V240.22Z" fill="black"/>
<path d="M181.17 255.21C182.899 255.21 184.3 253.809 184.3 252.08C184.3 250.351 182.899 248.95 181.17 248.95C179.441 248.95 178.04 250.351 178.04 252.08C178.04 253.809 179.441 255.21 181.17 255.21Z" fill="white"/>
<path opacity="0.5" d="M172.83 255.21C174.559 255.21 175.96 253.809 175.96 252.08C175.96 250.351 174.559 248.95 172.83 248.95C171.101 248.95 169.7 250.351 169.7 252.08C169.7 253.809 171.101 255.21 172.83 255.21Z" fill="white"/>
<path d="M252.78 321.67H200.33C192.775 321.659 185.532 318.653 180.189 313.311C174.847 307.968 171.841 300.725 171.83 293.17V287.09H176.83V293.17C176.841 299.399 179.32 305.371 183.725 309.775C188.13 314.18 194.101 316.659 200.33 316.67H252.78V321.67Z" fill="#7FC37E"/>
<path d="M375.19 196.33H289.24C282.038 196.33 276.2 202.168 276.2 209.37V403.19C276.2 410.392 282.038 416.23 289.24 416.23H375.19C382.392 416.23 388.23 410.392 388.23 403.19V209.37C388.23 202.168 382.392 196.33 375.19 196.33Z" fill="#7FC37E"/>
<path opacity="0.2" d="M375.19 196.33H289.24C282.038 196.33 276.2 202.168 276.2 209.37V403.19C276.2 410.392 282.038 416.23 289.24 416.23H375.19C382.392 416.23 388.23 410.392 388.23 403.19V209.37C388.23 202.168 382.392 196.33 375.19 196.33Z" fill="black"/>
<path d="M351.77 196.33H265.82C258.618 196.33 252.78 202.168 252.78 209.37V403.19C252.78 410.392 258.618 416.23 265.82 416.23H351.77C358.972 416.23 364.81 410.392 364.81 403.19V209.37C364.81 202.168 358.972 196.33 351.77 196.33Z" fill="#7FC37E"/>
<path opacity="0.2" d="M360.46 403.2V209.37C360.46 204.571 356.569 200.68 351.77 200.68H265.82C261.021 200.68 257.13 204.571 257.13 209.37V403.2C257.13 407.999 261.021 411.89 265.82 411.89H351.77C356.569 411.89 360.46 407.999 360.46 403.2Z" fill="black"/>
<path d="M360.46 403.2V209.37C360.46 204.571 356.569 200.68 351.77 200.68H269.86C265.061 200.68 261.17 204.571 261.17 209.37V403.2C261.17 407.999 265.061 411.89 269.86 411.89H351.77C356.569 411.89 360.46 407.999 360.46 403.2Z" fill="#BFE1BF"/>
<path opacity="0.3" d="M346.93 226.11H274.69C272.9 226.102 271.185 225.387 269.919 224.121C268.653 222.855 267.938 221.14 267.93 219.35C267.935 217.558 268.649 215.84 269.915 214.572C271.182 213.304 272.898 212.588 274.69 212.58H346.93C348.724 212.585 350.443 213.3 351.711 214.569C352.98 215.837 353.695 217.556 353.7 219.35C353.692 221.142 352.976 222.859 351.708 224.125C350.44 225.391 348.722 226.105 346.93 226.11Z" fill="#7FC37E"/>
<path d="M323.12 220.82H273.61C273.416 220.821 273.224 220.784 273.044 220.711C272.865 220.638 272.702 220.53 272.564 220.393C272.427 220.256 272.317 220.094 272.243 219.915C272.168 219.736 272.13 219.544 272.13 219.35C272.13 218.957 272.286 218.581 272.563 218.303C272.841 218.026 273.217 217.87 273.61 217.87H323.12C323.314 217.87 323.506 217.908 323.685 217.983C323.864 218.057 324.026 218.167 324.163 218.304C324.3 218.442 324.408 218.605 324.481 218.784C324.554 218.964 324.591 219.156 324.59 219.35C324.59 219.74 324.435 220.114 324.159 220.389C323.884 220.665 323.51 220.82 323.12 220.82Z" fill="white"/>
<path d="M340.99 220.83C341.807 220.83 342.47 220.167 342.47 219.35C342.47 218.533 341.807 217.87 340.99 217.87C340.173 217.87 339.51 218.533 339.51 219.35C339.51 220.167 340.173 220.83 340.99 220.83Z" fill="#7FC37E"/>
<path d="M347.51 220.83C348.327 220.83 348.99 220.167 348.99 219.35C348.99 218.533 348.327 217.87 347.51 217.87C346.693 217.87 346.03 218.533 346.03 219.35C346.03 220.167 346.693 220.83 347.51 220.83Z" fill="#7FC37E"/>
<path d="M334.47 220.83C335.287 220.83 335.95 220.167 335.95 219.35C335.95 218.533 335.287 217.87 334.47 217.87C333.653 217.87 332.99 218.533 332.99 219.35C332.99 220.167 333.653 220.83 334.47 220.83Z" fill="#7FC37E"/>
<path opacity="0.3" d="M346.93 247.84H274.69C272.899 247.835 271.182 247.121 269.916 245.854C268.649 244.588 267.935 242.871 267.93 241.08C267.935 239.289 268.649 237.572 269.916 236.306C271.182 235.039 272.899 234.325 274.69 234.32H346.93C348.722 234.325 350.44 235.039 351.708 236.305C352.976 237.571 353.692 239.288 353.7 241.08C353.692 242.872 352.976 244.589 351.708 245.855C350.44 247.121 348.722 247.835 346.93 247.84Z" fill="#7FC37E"/>
<path d="M323.12 242.56H273.61C273.217 242.56 272.841 242.404 272.563 242.127C272.286 241.849 272.13 241.473 272.13 241.08C272.13 240.688 272.286 240.311 272.563 240.034C272.841 239.756 273.217 239.6 273.61 239.6H323.12C323.511 239.603 323.885 239.76 324.16 240.037C324.435 240.314 324.59 240.689 324.59 241.08C324.59 241.471 324.435 241.846 324.16 242.123C323.885 242.4 323.511 242.557 323.12 242.56Z" fill="white"/>
<path d="M340.99 242.56C341.807 242.56 342.47 241.897 342.47 241.08C342.47 240.263 341.807 239.6 340.99 239.6C340.173 239.6 339.51 240.263 339.51 241.08C339.51 241.897 340.173 242.56 340.99 242.56Z" fill="#7FC37E"/>
<path d="M347.51 242.56C348.327 242.56 348.99 241.897 348.99 241.08C348.99 240.263 348.327 239.6 347.51 239.6C346.693 239.6 346.03 240.263 346.03 241.08C346.03 241.897 346.693 242.56 347.51 242.56Z" fill="#7FC37E"/>
<path opacity="0.3" d="M334.47 242.56C335.287 242.56 335.95 241.897 335.95 241.08C335.95 240.263 335.287 239.6 334.47 239.6C333.653 239.6 332.99 240.263 332.99 241.08C332.99 241.897 333.653 242.56 334.47 242.56Z" fill="#7FC37E"/>
<path opacity="0.3" d="M346.93 269.58H274.69C272.9 269.572 271.185 268.857 269.919 267.591C268.653 266.325 267.938 264.61 267.93 262.82C267.935 261.028 268.649 259.31 269.915 258.042C271.182 256.774 272.898 256.058 274.69 256.05H346.93C348.724 256.055 350.443 256.77 351.711 258.039C352.98 259.307 353.695 261.026 353.7 262.82C353.692 264.612 352.976 266.328 351.708 267.595C350.44 268.861 348.722 269.575 346.93 269.58Z" fill="#7FC37E"/>
<path d="M323.12 264.29H273.61C273.416 264.291 273.224 264.254 273.044 264.181C272.865 264.108 272.702 264 272.564 263.863C272.427 263.726 272.317 263.564 272.243 263.385C272.168 263.206 272.13 263.014 272.13 262.82C272.13 262.428 272.286 262.051 272.563 261.773C272.841 261.496 273.217 261.34 273.61 261.34H323.12C323.314 261.34 323.506 261.378 323.685 261.453C323.864 261.527 324.026 261.637 324.163 261.774C324.3 261.912 324.408 262.075 324.481 262.254C324.554 262.434 324.591 262.626 324.59 262.82C324.59 263.21 324.435 263.584 324.159 263.859C323.884 264.135 323.51 264.29 323.12 264.29Z" fill="white"/>
<path d="M340.99 264.3C341.807 264.3 342.47 263.637 342.47 262.82C342.47 262.003 341.807 261.34 340.99 261.34C340.173 261.34 339.51 262.003 339.51 262.82C339.51 263.637 340.173 264.3 340.99 264.3Z" fill="#7FC37E"/>
<path d="M347.51 264.3C348.327 264.3 348.99 263.637 348.99 262.82C348.99 262.003 348.327 261.34 347.51 261.34C346.693 261.34 346.03 262.003 346.03 262.82C346.03 263.637 346.693 264.3 347.51 264.3Z" fill="#7FC37E"/>
<path opacity="0.6" d="M334.47 264.3C335.287 264.3 335.95 263.637 335.95 262.82C335.95 262.003 335.287 261.34 334.47 261.34C333.653 261.34 332.99 262.003 332.99 262.82C332.99 263.637 333.653 264.3 334.47 264.3Z" fill="#7FC37E"/>
<path opacity="0.3" d="M346.93 277.79H274.69C270.957 277.79 267.93 280.817 267.93 284.55C267.93 288.283 270.957 291.31 274.69 291.31H346.93C350.663 291.31 353.69 288.283 353.69 284.55C353.69 280.817 350.663 277.79 346.93 277.79Z" fill="#7FC37E"/>
<path d="M323.12 286H273.61C273.217 286 272.841 285.844 272.563 285.567C272.286 285.289 272.13 284.913 272.13 284.52C272.13 284.127 272.286 283.751 272.563 283.474C272.841 283.196 273.217 283.04 273.61 283.04H323.12C323.511 283.043 323.885 283.2 324.16 283.477C324.435 283.754 324.59 284.129 324.59 284.52C324.59 284.911 324.435 285.286 324.16 285.563C323.885 285.84 323.511 285.997 323.12 286Z" fill="white"/>
<path d="M340.99 286.03C341.807 286.03 342.47 285.367 342.47 284.55C342.47 283.733 341.807 283.07 340.99 283.07C340.173 283.07 339.51 283.733 339.51 284.55C339.51 285.367 340.173 286.03 340.99 286.03Z" fill="#7FC37E"/>
<path opacity="0.3" d="M347.51 286.03C348.327 286.03 348.99 285.367 348.99 284.55C348.99 283.733 348.327 283.07 347.51 283.07C346.693 283.07 346.03 283.733 346.03 284.55C346.03 285.367 346.693 286.03 347.51 286.03Z" fill="#7FC37E"/>
<path opacity="0.6" d="M334.47 286.03C335.287 286.03 335.95 285.367 335.95 284.55C335.95 283.733 335.287 283.07 334.47 283.07C333.653 283.07 332.99 283.733 332.99 284.55C332.99 285.367 333.653 286.03 334.47 286.03Z" fill="#7FC37E"/>
<path opacity="0.3" d="M346.93 313.05H274.69C272.9 313.042 271.185 312.327 269.919 311.061C268.653 309.795 267.938 308.08 267.93 306.29C267.935 304.498 268.649 302.78 269.915 301.512C271.182 300.244 272.898 299.528 274.69 299.52H346.93C348.724 299.525 350.443 300.24 351.711 301.509C352.98 302.777 353.695 304.496 353.7 306.29C353.692 308.082 352.976 309.799 351.708 311.065C350.44 312.331 348.722 313.045 346.93 313.05Z" fill="#7FC37E"/>
<path d="M323.12 307.76H273.61C273.416 307.761 273.224 307.724 273.044 307.651C272.865 307.578 272.702 307.47 272.564 307.333C272.427 307.196 272.317 307.034 272.243 306.855C272.168 306.676 272.13 306.484 272.13 306.29C272.13 306.096 272.168 305.903 272.243 305.724C272.317 305.544 272.426 305.381 272.563 305.243C272.701 305.106 272.864 304.997 273.044 304.923C273.223 304.848 273.416 304.81 273.61 304.81H323.12C323.314 304.81 323.506 304.848 323.685 304.923C323.864 304.997 324.026 305.107 324.163 305.244C324.3 305.382 324.408 305.545 324.481 305.724C324.554 305.904 324.591 306.096 324.59 306.29C324.59 306.68 324.435 307.054 324.159 307.329C323.884 307.605 323.51 307.76 323.12 307.76Z" fill="white"/>
<path d="M340.99 307.77C341.807 307.77 342.47 307.107 342.47 306.29C342.47 305.473 341.807 304.81 340.99 304.81C340.173 304.81 339.51 305.473 339.51 306.29C339.51 307.107 340.173 307.77 340.99 307.77Z" fill="#7FC37E"/>
<path opacity="0.6" d="M347.51 307.77C348.327 307.77 348.99 307.107 348.99 306.29C348.99 305.473 348.327 304.81 347.51 304.81C346.693 304.81 346.03 305.473 346.03 306.29C346.03 307.107 346.693 307.77 347.51 307.77Z" fill="#7FC37E"/>
<path d="M334.47 307.77C335.287 307.77 335.95 307.107 335.95 306.29C335.95 305.473 335.287 304.81 334.47 304.81C333.653 304.81 332.99 305.473 332.99 306.29C332.99 307.107 333.653 307.77 334.47 307.77Z" fill="#7FC37E"/>
<path opacity="0.3" d="M346.93 334.78H274.69C272.899 334.775 271.182 334.061 269.916 332.794C268.649 331.528 267.935 329.811 267.93 328.02C267.935 326.229 268.649 324.512 269.916 323.246C271.182 321.979 272.899 321.265 274.69 321.26H346.93C348.719 321.265 350.433 321.976 351.701 323.238C352.968 324.5 353.687 326.211 353.7 328C353.697 329.796 352.984 331.517 351.715 332.788C350.446 334.058 348.726 334.775 346.93 334.78Z" fill="#7FC37E"/>
<path d="M323.12 329.5H273.61C273.217 329.5 272.841 329.344 272.563 329.067C272.286 328.789 272.13 328.413 272.13 328.02C272.13 327.826 272.168 327.633 272.243 327.454C272.317 327.274 272.426 327.111 272.563 326.974C272.701 326.836 272.864 326.727 273.044 326.653C273.223 326.578 273.416 326.54 273.61 326.54H323.12C323.511 326.543 323.885 326.7 324.16 326.977C324.435 327.254 324.59 327.629 324.59 328.02C324.59 328.411 324.435 328.786 324.16 329.063C323.885 329.34 323.511 329.497 323.12 329.5Z" fill="white"/>
<path opacity="0.3" d="M340.99 329.5C341.807 329.5 342.47 328.837 342.47 328.02C342.47 327.203 341.807 326.54 340.99 326.54C340.173 326.54 339.51 327.203 339.51 328.02C339.51 328.837 340.173 329.5 340.99 329.5Z" fill="#7FC37E"/>
<path d="M347.51 329.5C348.327 329.5 348.99 328.837 348.99 328.02C348.99 327.203 348.327 326.54 347.51 326.54C346.693 326.54 346.03 327.203 346.03 328.02C346.03 328.837 346.693 329.5 347.51 329.5Z" fill="#7FC37E"/>
<path d="M334.47 329.5C335.287 329.5 335.95 328.837 335.95 328.02C335.95 327.203 335.287 326.54 334.47 326.54C333.653 326.54 332.99 327.203 332.99 328.02C332.99 328.837 333.653 329.5 334.47 329.5Z" fill="#7FC37E"/>
<path opacity="0.3" d="M346.93 356.52H274.69C272.899 356.515 271.182 355.801 269.916 354.534C268.649 353.268 267.935 351.551 267.93 349.76C267.935 347.968 268.649 346.25 269.915 344.982C271.182 343.714 272.898 342.998 274.69 342.99H346.93C348.724 342.995 350.443 343.71 351.711 344.979C352.98 346.247 353.695 347.966 353.7 349.76C353.692 351.552 352.976 353.268 351.708 354.535C350.44 355.801 348.722 356.515 346.93 356.52Z" fill="#7FC37E"/>
<path d="M323.12 351.24H273.61C273.217 351.24 272.841 351.084 272.563 350.807C272.286 350.529 272.13 350.153 272.13 349.76C272.13 349.368 272.286 348.991 272.563 348.714C272.841 348.436 273.217 348.28 273.61 348.28H323.12C323.314 348.28 323.506 348.318 323.685 348.393C323.864 348.467 324.026 348.577 324.163 348.714C324.3 348.852 324.408 349.015 324.481 349.194C324.554 349.374 324.591 349.566 324.59 349.76C324.59 350.151 324.435 350.526 324.16 350.803C323.885 351.08 323.511 351.237 323.12 351.24Z" fill="white"/>
<path opacity="0.3" d="M340.99 351.24C341.807 351.24 342.47 350.577 342.47 349.76C342.47 348.943 341.807 348.28 340.99 348.28C340.173 348.28 339.51 348.943 339.51 349.76C339.51 350.577 340.173 351.24 340.99 351.24Z" fill="#7FC37E"/>
<path d="M347.51 351.24C348.327 351.24 348.99 350.577 348.99 349.76C348.99 348.943 348.327 348.28 347.51 348.28C346.693 348.28 346.03 348.943 346.03 349.76C346.03 350.577 346.693 351.24 347.51 351.24Z" fill="#7FC37E"/>
<path opacity="0.3" d="M334.47 351.24C335.287 351.24 335.95 350.577 335.95 349.76C335.95 348.943 335.287 348.28 334.47 348.28C333.653 348.28 332.99 348.943 332.99 349.76C332.99 350.577 333.653 351.24 334.47 351.24Z" fill="#7FC37E"/>
<path opacity="0.3" d="M346.93 364.73H274.69C270.957 364.73 267.93 367.757 267.93 371.49C267.93 375.223 270.957 378.25 274.69 378.25H346.93C350.663 378.25 353.69 375.223 353.69 371.49C353.69 367.757 350.663 364.73 346.93 364.73Z" fill="#7FC37E"/>
<path d="M323.12 373H273.61C273.416 373 273.223 372.962 273.044 372.887C272.864 372.813 272.701 372.704 272.563 372.567C272.426 372.429 272.317 372.266 272.243 372.086C272.168 371.907 272.13 371.714 272.13 371.52C272.13 371.127 272.286 370.751 272.563 370.474C272.841 370.196 273.217 370.04 273.61 370.04H323.12C323.511 370.043 323.885 370.2 324.16 370.477C324.435 370.754 324.59 371.129 324.59 371.52C324.59 371.911 324.435 372.286 324.16 372.563C323.885 372.84 323.511 372.997 323.12 373Z" fill="white"/>
<path d="M340.99 372.97C341.807 372.97 342.47 372.307 342.47 371.49C342.47 370.673 341.807 370.01 340.99 370.01C340.173 370.01 339.51 370.673 339.51 371.49C339.51 372.307 340.173 372.97 340.99 372.97Z" fill="#7FC37E"/>
<path d="M347.51 372.97C348.327 372.97 348.99 372.307 348.99 371.49C348.99 370.673 348.327 370.01 347.51 370.01C346.693 370.01 346.03 370.673 346.03 371.49C346.03 372.307 346.693 372.97 347.51 372.97Z" fill="#7FC37E"/>
<path d="M334.47 372.97C335.287 372.97 335.95 372.307 335.95 371.49C335.95 370.673 335.287 370.01 334.47 370.01C333.653 370.01 332.99 370.673 332.99 371.49C332.99 372.307 333.653 372.97 334.47 372.97Z" fill="#7FC37E"/>
<path opacity="0.3" d="M346.93 400H274.69C272.899 399.995 271.182 399.281 269.916 398.014C268.649 396.748 267.935 395.031 267.93 393.24C267.935 391.448 268.649 389.73 269.915 388.462C271.182 387.194 272.898 386.478 274.69 386.47H346.93C348.724 386.475 350.443 387.19 351.711 388.459C352.98 389.727 353.695 391.446 353.7 393.24C353.692 395.032 352.976 396.749 351.708 398.015C350.44 399.281 348.722 399.995 346.93 400Z" fill="#7FC37E"/>
<path d="M323.12 394.71H273.61C273.217 394.71 272.841 394.554 272.563 394.277C272.286 393.999 272.13 393.623 272.13 393.23C272.13 392.837 272.286 392.461 272.563 392.183C272.841 391.906 273.217 391.75 273.61 391.75H323.12C323.314 391.75 323.506 391.788 323.685 391.863C323.864 391.937 324.026 392.047 324.163 392.184C324.3 392.322 324.408 392.485 324.481 392.664C324.554 392.844 324.591 393.036 324.59 393.23C324.59 393.621 324.435 393.996 324.16 394.273C323.885 394.55 323.511 394.707 323.12 394.71Z" fill="white"/>
<path d="M340.99 394.71C341.807 394.71 342.47 394.047 342.47 393.23C342.47 392.413 341.807 391.75 340.99 391.75C340.173 391.75 339.51 392.413 339.51 393.23C339.51 394.047 340.173 394.71 340.99 394.71Z" fill="#7FC37E"/>
<path d="M347.51 394.71C348.327 394.71 348.99 394.047 348.99 393.23C348.99 392.413 348.327 391.75 347.51 391.75C346.693 391.75 346.03 392.413 346.03 393.23C346.03 394.047 346.693 394.71 347.51 394.71Z" fill="#7FC37E"/>
<path opacity="0.6" d="M334.47 394.71C335.287 394.71 335.95 394.047 335.95 393.23C335.95 392.413 335.287 391.75 334.47 391.75C333.653 391.75 332.99 392.413 332.99 393.23C332.99 394.047 333.653 394.71 334.47 394.71Z" fill="#7FC37E"/>
<path opacity="0.2" d="M381.57 241.74H371.47C369.83 241.74 368.5 243.07 368.5 244.71V257.19C368.5 258.83 369.83 260.16 371.47 260.16H381.57C383.21 260.16 384.54 258.83 384.54 257.19V244.71C384.54 243.07 383.21 241.74 381.57 241.74Z" fill="black"/>
<path d="M262.92 195.2L274.23 200.11L267.74 207.68L258.29 203.58L262.92 195.2Z" fill="#CE7A63"/>
<path opacity="0.2" d="M262.92 195.2L274.23 200.12L270.6 204.36L260.32 199.9L262.92 195.2Z" fill="black"/>
<path d="M269.19 211.68L267.92 211.34C267.549 211.238 267.209 211.047 266.929 210.784C266.648 210.521 266.436 210.193 266.31 209.83L265.48 210.18C264.999 210.383 264.464 210.418 263.96 210.28L246.67 205.63C246.897 204.429 247.435 203.309 248.23 202.38C248.23 202.38 255.94 204.02 258.23 202.26C258.313 202.19 258.415 202.145 258.523 202.131C258.631 202.116 258.741 202.134 258.84 202.18C260.23 202.88 265.68 205.52 269.26 205.32C269.37 205.315 269.48 205.335 269.58 205.381C269.681 205.426 269.769 205.494 269.839 205.58C269.908 205.665 269.956 205.766 269.979 205.874C270.001 205.982 269.999 206.094 269.97 206.2C269.577 208.005 269.316 209.837 269.19 211.68Z" fill="#263238"/>
<path d="M364.54 159.6L359.7 169.74C352.55 184.74 334.93 192.25 320.87 186.36C312.66 182.91 303.69 175.64 297.59 172.31C292.37 183.74 282.59 196.36 275.12 205.14L260 197.52C265.65 184.52 274.44 164.32 280 151.18C280.993 148.845 282.626 146.838 284.71 145.39C286.794 143.943 289.245 143.114 291.78 143C316.92 142.33 364.54 159.6 364.54 159.6Z" fill="#263238"/>
<path d="M291.72 228.35L302.59 227.87L300.58 239.81L291.49 240.23L291.72 228.35Z" fill="#CE7A63"/>
<path opacity="0.2" d="M291.72 228.36L302.59 227.88L301.77 232.78L291.62 233.44L291.72 228.36Z" fill="black"/>
<path d="M304.75 240.36L303.5 240.75C303.132 240.865 302.742 240.887 302.364 240.816C301.985 240.744 301.63 240.581 301.33 240.34L300.82 241.08C300.521 241.51 300.089 241.83 299.59 241.99L282.51 247.35C282.052 246.216 281.904 244.98 282.08 243.77C282.08 243.77 289.46 241.01 290.46 238.28C290.495 238.176 290.559 238.085 290.644 238.016C290.729 237.947 290.831 237.903 290.94 237.89C292.48 237.74 298.5 237.03 301.41 234.94C301.502 234.879 301.607 234.84 301.716 234.826C301.826 234.812 301.937 234.823 302.041 234.859C302.146 234.895 302.24 234.954 302.318 235.032C302.396 235.11 302.455 235.205 302.49 235.31C303.116 237.047 303.872 238.735 304.75 240.36Z" fill="#263238"/>
<path d="M371.59 155.58L371.51 166.3C371.38 182.11 357.98 196.22 341.98 197.4C332.64 198.09 319.98 198.31 312.73 198.17C311.67 209.23 308.21 222.28 304.73 231.73L289 230.63C288.58 217.21 288 198.19 287.47 185.57C287.448 183.052 288.145 180.58 289.479 178.444C290.813 176.307 292.728 174.596 295 173.51C318.61 161.89 371.59 155.58 371.59 155.58Z" fill="#263238"/>
<path opacity="0.1" d="M301.38 231.87H301.27C301.177 231.84 301.1 231.776 301.053 231.69C301.007 231.604 300.995 231.504 301.02 231.41C303.4 223.58 307.69 199.17 307.88 187.97C307.88 187.917 307.892 187.864 307.914 187.816C307.937 187.767 307.97 187.725 308.01 187.69C308.05 187.656 308.096 187.631 308.146 187.616C308.196 187.6 308.248 187.595 308.3 187.6C331.3 190.66 346.85 189.6 353.3 184.6C364.65 175.77 364.49 161.49 361.61 154.04C361.593 153.994 361.584 153.945 361.586 153.896C361.588 153.847 361.599 153.799 361.619 153.754C361.64 153.709 361.669 153.669 361.705 153.636C361.741 153.602 361.784 153.577 361.83 153.56C361.875 153.542 361.924 153.534 361.972 153.534C362.021 153.535 362.069 153.546 362.114 153.565C362.158 153.585 362.199 153.613 362.232 153.648C362.266 153.683 362.292 153.725 362.31 153.77C365.31 161.43 365.44 176.11 353.76 185.19C347.08 190.38 331.89 191.46 308.6 188.4C308.31 199.83 304.08 223.86 301.72 231.62C301.694 231.691 301.648 231.752 301.588 231.797C301.527 231.841 301.455 231.867 301.38 231.87Z" fill="black"/>
<path opacity="0.2" d="M297 173.63C294.299 179.036 291.173 184.219 287.65 189.13C287.73 191.35 287.81 193.7 287.9 196.13C293.47 187.34 297.01 173.61 297.01 173.61L297 173.63Z" fill="black"/>
<path d="M337.68 105.14C337.25 106.69 336.86 108.04 336.39 109.45C335.92 110.86 335.46 112.24 334.97 113.63C333.97 116.39 332.91 119.14 331.69 121.86C330.47 124.58 329.22 127.3 327.69 130C326.17 132.833 324.438 135.547 322.51 138.12L321.87 138.97C321.468 139.495 320.947 139.917 320.35 140.2C319.253 140.73 318.121 141.181 316.96 141.55C315.821 141.917 314.658 142.208 313.48 142.42C312.304 142.628 311.114 142.752 309.92 142.79C309.32 142.79 308.71 142.79 308.11 142.79L307.18 142.72C306.85 142.72 306.58 142.63 306.18 142.6C305.255 142.546 304.389 142.127 303.772 141.435C303.155 140.743 302.838 139.835 302.89 138.91C302.909 138.57 302.973 138.234 303.08 137.91L304.41 134.24C304.522 134.06 304.66 133.898 304.82 133.76L305.32 133.28L306.32 132.35C306.99 131.73 307.66 131.15 308.32 130.55C308.98 129.95 309.59 129.38 310.19 128.83C310.79 128.28 311.36 127.69 311.93 127.16L309.77 129.25C310.956 127.131 312.031 124.951 312.99 122.72L313.75 120.94L314.47 119.12C314.96 117.91 315.47 116.67 315.9 115.43C316.82 112.93 317.73 110.43 318.6 107.85L321.17 100.28L321.23 100.1C321.967 98.0104 323.482 96.2858 325.459 95.2858C327.436 94.2857 329.723 94.0874 331.843 94.7321C333.963 95.3768 335.752 96.8149 336.838 98.7464C337.923 100.678 338.221 102.954 337.67 105.1L337.68 105.14Z" fill="#CE7A63"/>
<path d="M329.43 91.07C324.86 92.38 318.72 97.42 316.61 108.83C319.67 113.58 334.02 109.92 334.02 109.92L329.43 91.07Z" fill="#7FC37E"/>
<path d="M308 134.36L308.46 139.3C307.08 144.3 300.92 141.43 300.92 141.43L297.4 141.23C296.779 141.159 296.203 140.868 295.778 140.409C295.352 139.951 295.105 139.355 295.08 138.73L294.73 135.28C294.616 134.575 294.78 133.852 295.189 133.266C295.598 132.68 296.219 132.276 296.92 132.14L299.99 131.81C300.88 131.713 301.78 131.837 302.61 132.17L308 134.36Z" fill="#CE7A63"/>
<path d="M331.64 90.38C339.154 88.7891 346.774 87.753 354.44 87.28C356.43 87.1686 358.422 87.4713 360.289 88.1689C362.156 88.8666 363.858 89.944 365.288 91.333C366.717 92.7221 367.843 94.3926 368.594 96.239C369.345 98.0854 369.704 100.068 369.65 102.06C369.01 127.24 372.56 153.72 372.05 158.58C372.05 158.58 318.94 166.23 310.8 150.44C307.38 128.05 318.43 130.9 319.32 105.19C319.55 98.46 325.05 91.79 331.64 90.38Z" fill="#7FC37E"/>
<path d="M327.45 113.15L327.63 113.1V112.91C327.738 112.113 328.118 111.378 328.708 110.831C329.297 110.284 330.058 109.958 330.86 109.91H331.06L331.13 109.72C331.386 108.927 331.883 108.235 332.552 107.738C333.22 107.241 334.027 106.966 334.86 106.95C335.757 107.023 336.617 107.342 337.346 107.871C338.074 108.4 338.643 109.119 338.99 109.95L339.11 110.24L339.39 110.16C339.716 110.072 340.052 110.028 340.39 110.03H340.56C341.566 110.132 342.502 110.592 343.198 111.326C343.894 112.06 344.303 113.02 344.35 114.03C344.401 114.519 344.348 115.013 344.195 115.48C344.041 115.947 343.792 116.377 343.462 116.741C343.131 117.105 342.728 117.396 342.278 117.594C341.828 117.792 341.342 117.893 340.85 117.89L328.28 117.68C327.664 117.644 327.083 117.383 326.648 116.945C326.213 116.508 325.953 115.926 325.92 115.31C325.894 114.83 326.031 114.356 326.309 113.963C326.587 113.571 326.989 113.285 327.45 113.15Z" fill="white"/>
<path d="M369.08 95.83L369.57 96.91L369.99 97.91C370.27 98.56 370.51 99.21 370.77 99.91C371.27 101.21 371.7 102.52 372.13 103.84C372.985 106.498 373.689 109.203 374.24 111.94C374.52 113.33 374.77 114.73 374.98 116.15C375.19 117.57 375.31 119.02 375.41 120.49C375.635 123.541 375.548 126.607 375.15 129.64L375.06 130.37C374.93 131.317 374.588 132.223 374.06 133.02C373.111 134.434 371.985 135.721 370.71 136.85C369.653 137.795 368.541 138.677 367.38 139.49C365.271 140.937 363.054 142.22 360.75 143.33C358.52 144.39 356.29 145.33 354.03 146.14C351.758 146.958 349.441 147.646 347.09 148.2C346.132 148.42 345.127 148.308 344.241 147.882C343.355 147.456 342.64 146.742 342.212 145.857C341.785 144.972 341.67 143.968 341.888 143.009C342.106 142.05 342.642 141.194 343.41 140.58L343.6 140.44C345.27 139.1 347.09 137.76 348.8 136.44C350.51 135.12 352.22 133.77 353.8 132.44C355.38 131.11 356.91 129.72 358.22 128.44C358.819 127.828 359.38 127.18 359.9 126.5C360.26 126.058 360.553 125.566 360.77 125.04L359.67 128.42C359.626 126.385 359.432 124.356 359.09 122.35C358.72 120.23 358.22 118.06 357.64 115.88C357.06 113.7 356.38 111.49 355.64 109.3C355.28 108.21 354.88 107.12 354.5 106.03L353.36 102.96L353.19 102.5C352.385 100.405 352.432 98.0774 353.321 96.0164C354.21 93.9553 355.871 92.3242 357.948 91.4721C360.024 90.62 362.352 90.6146 364.433 91.4571C366.513 92.2996 368.181 93.9231 369.08 95.98V95.83Z" fill="#CE7A63"/>
<path d="M357.23 87.4C360.9 87.8 368.67 90.56 373.78 101.09C368.78 111 355.67 114.78 355.67 114.78C355.67 114.78 346.56 92.67 357.23 87.4Z" fill="#7FC37E"/>
<path d="M327.24 158.47H284.08C282.2 158.47 281.8 158.04 283.19 157.47L302.88 150C304.802 149.371 306.808 149.034 308.83 149H352C353.88 149 354.28 149.44 352.89 150L333.19 157.52C331.265 158.132 329.26 158.453 327.24 158.47Z" fill="#7FC37E"/>
<path opacity="0.4" d="M327.24 158.47H284.08C282.2 158.47 281.8 158.04 283.19 157.47L302.88 150C304.802 149.371 306.808 149.034 308.83 149H352C353.88 149 354.28 149.44 352.89 150L333.19 157.52C331.265 158.132 329.26 158.453 327.24 158.47Z" fill="black"/>
<path d="M327.24 156.69H284.08C283.121 156.651 282.202 156.293 281.469 155.674C280.735 155.055 280.229 154.209 280.03 153.27L275.14 126.67C275.042 126.255 275.04 125.822 275.136 125.406C275.231 124.99 275.421 124.602 275.691 124.271C275.961 123.941 276.303 123.677 276.691 123.499C277.08 123.322 277.503 123.237 277.93 123.25H321.1C322.05 123.3 322.958 123.662 323.681 124.281C324.404 124.899 324.903 125.739 325.1 126.67L329.98 153.27C330.079 153.681 330.083 154.11 329.991 154.523C329.899 154.936 329.714 155.322 329.449 155.652C329.185 155.983 328.848 156.248 328.465 156.428C328.082 156.608 327.663 156.697 327.24 156.69Z" fill="#7FC37E"/>
<path opacity="0.3" d="M327.24 156.69H284.08C283.121 156.651 282.202 156.293 281.469 155.674C280.735 155.055 280.229 154.209 280.03 153.27L275.14 126.67C275.042 126.255 275.04 125.822 275.136 125.406C275.231 124.99 275.421 124.602 275.691 124.271C275.961 123.941 276.303 123.677 276.691 123.499C277.08 123.322 277.503 123.237 277.93 123.25H321.1C322.05 123.3 322.958 123.662 323.681 124.281C324.404 124.899 324.903 125.739 325.1 126.67L329.98 153.27C330.079 153.681 330.083 154.11 329.991 154.523C329.899 154.936 329.714 155.322 329.449 155.652C329.185 155.983 328.848 156.248 328.465 156.428C328.082 156.608 327.663 156.697 327.24 156.69Z" fill="black"/>
<path opacity="0.3" d="M326.23 156.69H284.08C283.121 156.651 282.202 156.293 281.469 155.674C280.735 155.055 280.229 154.209 280.03 153.27L275.14 126.67C275.042 126.255 275.04 125.822 275.136 125.406C275.231 124.99 275.421 124.602 275.691 124.271C275.961 123.941 276.303 123.677 276.691 123.499C277.08 123.322 277.503 123.237 277.93 123.25H320.09C321.041 123.297 321.95 123.658 322.674 124.277C323.398 124.896 323.896 125.737 324.09 126.67L328.98 153.27C329.08 153.682 329.083 154.112 328.991 154.525C328.898 154.939 328.712 155.326 328.446 155.656C328.181 155.987 327.843 156.252 327.458 156.431C327.074 156.61 326.654 156.699 326.23 156.69Z" fill="#7FC37E"/>
<path d="M345.85 142.21L348.01 144.48C350.01 149.29 343.41 150.83 343.41 150.83L340.52 152.83C339.986 153.155 339.355 153.279 338.738 153.182C338.121 153.085 337.558 152.773 337.15 152.3L334.74 149.8C334.212 149.318 333.894 148.648 333.853 147.935C333.812 147.221 334.051 146.52 334.52 145.98L336.72 143.83C337.361 143.201 338.148 142.74 339.01 142.49L342.83 141.38C343.361 141.227 343.924 141.223 344.457 141.37C344.99 141.516 345.472 141.807 345.85 142.21Z" fill="#CE7A63"/>
<path d="M334.53 93C334.964 91.5024 335.89 90.1951 337.16 89.29C337.416 87.8316 337.158 86.3296 336.43 85.04L348.35 75.04C349.09 80.04 350.84 86.64 353.29 88.8C350.56 91.32 345.54 95.86 339.29 96.93C333.04 98 334 95.38 334.53 93Z" fill="#CE7A63"/>
<path opacity="0.2" d="M336.65 85.48L346.83 81.24C345.55 86.41 339.83 90.69 337.25 88.64C337.325 87.5526 337.118 86.4644 336.65 85.48Z" fill="black"/>
<path d="M336.06 69.48C336.062 70.7941 335.674 72.0793 334.945 73.1727C334.216 74.2662 333.179 75.1188 331.966 75.6226C330.752 76.1264 329.416 76.2588 328.127 76.0029C326.838 75.747 325.654 75.1144 324.725 74.1852C323.796 73.256 323.163 72.0719 322.907 70.7829C322.651 69.494 322.784 68.1581 323.287 66.9444C323.791 65.7306 324.644 64.6937 325.737 63.9649C326.831 63.236 328.116 62.848 329.43 62.85C331.188 62.85 332.875 63.5485 334.118 64.7919C335.361 66.0353 336.06 67.7216 336.06 69.48Z" fill="#263238"/>
<path d="M347.47 65.75C349.03 73.33 349.93 78.52 346.47 82.84C339.57 91.43 333.3 88.76 329.47 81.78C326.04 75.5 324.06 64.16 330.59 59.27C332.035 58.1845 333.732 57.4837 335.522 57.2335C337.312 56.9833 339.136 57.1919 340.823 57.8396C342.51 58.4873 344.005 59.5529 345.168 60.9365C346.331 62.3202 347.123 63.9764 347.47 65.75Z" fill="#CE7A63"/>
<path d="M332.58 63.75C331.05 65.5 327 69.16 321.11 65.86C315.22 62.56 317.62 54.64 321.17 52.11C322.633 51.0458 324.339 50.364 326.132 50.1265C327.926 49.889 329.75 50.1033 331.44 50.75C331.44 50.75 330.96 46.54 336.88 46.37C342.8 46.2 342.5 50.37 342.5 50.37C342.5 50.37 350.17 47.18 353.83 53.08C357.24 58.57 352.16 62.83 352.16 62.83C352.16 62.83 357.47 65.11 355.72 70.63C355.376 71.927 354.629 73.0812 353.587 73.926C352.544 74.7708 351.26 75.2625 349.92 75.33C349.92 75.33 344.25 75.73 343.29 71.6C342.707 69.1796 343.005 66.6308 344.13 64.41C344.13 64.41 335 68 332.58 63.75Z" fill="#263238"/>
<path d="M341.29 72.69L339.89 72.54C339.857 72.5391 339.825 72.531 339.795 72.5164C339.765 72.5018 339.739 72.481 339.718 72.4554C339.697 72.4298 339.682 72.3999 339.674 72.3679C339.666 72.336 339.664 72.3025 339.67 72.27C339.672 72.2375 339.682 72.2059 339.697 72.177C339.712 72.1481 339.732 72.1226 339.758 72.102C339.783 72.0814 339.812 72.0662 339.844 72.0572C339.875 72.0483 339.908 72.0458 339.94 72.05L341.29 72.18L348.36 70.47C348.392 70.4611 348.425 70.4587 348.457 70.463C348.49 70.4673 348.521 70.4782 348.549 70.4951C348.577 70.512 348.601 70.5344 348.621 70.5611C348.64 70.5877 348.653 70.618 348.66 70.65C348.675 70.7136 348.665 70.7807 348.631 70.8367C348.598 70.8928 348.543 70.9335 348.48 70.95L341.37 72.68L341.29 72.69Z" fill="#263238"/>
<path d="M351.48 63.65C351.25 63.65 351.02 63.65 350.78 63.65C350.714 63.6428 350.651 63.6227 350.593 63.5909C350.535 63.5591 350.484 63.5162 350.443 63.4647C350.401 63.4131 350.371 63.354 350.352 63.2905C350.334 63.2271 350.328 63.1607 350.335 63.095C350.342 63.0293 350.362 62.9658 350.394 62.9079C350.426 62.85 350.469 62.7989 350.52 62.7576C350.572 62.7162 350.631 62.6855 350.695 62.667C350.758 62.6486 350.824 62.6428 350.89 62.65C351.537 62.7748 352.206 62.7207 352.825 62.4933C353.443 62.266 353.988 61.8741 354.4 61.36C354.655 60.993 354.805 60.5632 354.833 60.1173C354.861 59.6714 354.767 59.2262 354.56 58.83C354.529 58.7724 354.51 58.7092 354.503 58.644C354.497 58.5789 354.504 58.5131 354.524 58.4507C354.543 58.3882 354.575 58.3303 354.617 58.2804C354.66 58.2305 354.712 58.1895 354.77 58.16C354.888 58.0995 355.026 58.0876 355.153 58.1268C355.28 58.166 355.386 58.2533 355.45 58.37C355.735 58.9277 355.863 59.5518 355.823 60.1766C355.782 60.8014 355.574 61.4037 355.22 61.92C354.789 62.4964 354.222 62.9564 353.569 63.2584C352.916 63.5605 352.198 63.6951 351.48 63.65Z" fill="#263238"/>
<path d="M324 68.54C322.985 68.5315 321.975 68.3834 321 68.1C319.677 67.8099 318.48 67.1076 317.582 66.0941C316.683 65.0806 316.129 63.8082 316 62.46C315.67 59.52 317.12 56.41 319.36 55.23C319.418 55.1936 319.483 55.1696 319.551 55.1594C319.619 55.1492 319.688 55.1531 319.754 55.1707C319.82 55.1884 319.882 55.2195 319.936 55.2621C319.99 55.3047 320.034 55.3578 320.066 55.4183C320.099 55.4788 320.118 55.5452 320.124 55.6136C320.129 55.6819 320.121 55.7506 320.098 55.8155C320.076 55.8803 320.041 55.94 319.995 55.9906C319.949 56.0413 319.893 56.0819 319.83 56.11C317.93 57.11 316.71 59.8 316.99 62.35C317.09 63.4943 317.554 64.5766 318.313 65.4385C319.072 66.3004 320.087 66.8967 321.21 67.14C327.07 68.75 330.03 64.98 331.26 62.58C331.324 62.4633 331.43 62.376 331.557 62.3368C331.684 62.2976 331.822 62.3095 331.94 62.37C332.056 62.4317 332.143 62.5366 332.182 62.6619C332.222 62.7873 332.21 62.9231 332.15 63.04C331 65.26 328.57 68.54 324 68.54Z" fill="#263238"/>
<path d="M335.1 80C334.738 80.1527 334.363 80.2731 333.98 80.36C333.928 80.3688 333.875 80.3569 333.832 80.327C333.789 80.2971 333.76 80.2515 333.75 80.2C333.74 80.1446 333.751 80.0875 333.781 80.0396C333.81 79.9917 333.856 79.9563 333.91 79.94C334.773 79.7437 335.58 79.356 336.272 78.8055C336.965 78.2551 337.524 77.556 337.91 76.76C337.919 76.7348 337.933 76.7117 337.951 76.692C337.969 76.6723 337.991 76.6564 338.015 76.6452C338.039 76.634 338.065 76.6278 338.092 76.6269C338.119 76.626 338.145 76.6305 338.17 76.64C338.196 76.6498 338.219 76.6647 338.238 76.6839C338.258 76.703 338.273 76.7259 338.283 76.7512C338.294 76.7765 338.299 76.8036 338.298 76.831C338.298 76.8583 338.291 76.8852 338.28 76.91C337.633 78.294 336.502 79.3933 335.1 80Z" fill="#263238"/>
<path opacity="0.2" d="M338.07 69.85C338.788 69.2379 339.72 68.9357 340.66 69.01C339.86 69.4568 338.98 69.7422 338.07 69.85Z" fill="black"/>
<path opacity="0.2" d="M338.31 70.45C338.686 70.2522 339.1 70.1366 339.524 70.1107C339.948 70.0849 340.373 70.1494 340.77 70.3C339.971 70.5279 339.131 70.579 338.31 70.45Z" fill="black"/>
<path opacity="0.2" d="M327.83 72.74C327.83 72.74 326.97 72.26 326.68 72.81C326.867 72.8747 327.065 72.9018 327.262 72.8898C327.459 72.8778 327.652 72.8269 327.83 72.74Z" fill="black"/>
<path opacity="0.2" d="M327.93 73.34C327.93 73.34 327.21 72.89 327.13 73.61C327.275 73.655 327.43 73.6531 327.574 73.6046C327.717 73.5561 327.842 73.4635 327.93 73.34Z" fill="black"/>
<path d="M352.16 74C351.871 74.9164 351.403 75.7664 350.783 76.5009C350.163 77.2355 349.404 77.8402 348.55 78.28C346.24 79.45 344.55 77.51 344.78 75.08C344.96 72.89 346.38 69.65 348.9 69.5C349.45 69.4763 349.997 69.5893 350.493 69.829C350.989 70.0686 351.417 70.4274 351.74 70.8733C352.063 71.3192 352.271 71.8381 352.344 72.3838C352.417 72.9294 352.354 73.4848 352.16 74Z" fill="#CE7A63"/>
<path d="M336.2 70.78C336.37 71.39 336.2 71.97 335.78 72.07C335.36 72.17 334.92 71.77 334.78 71.16C334.64 70.55 334.78 69.97 335.2 69.87C335.62 69.77 336 70.17 336.2 70.78Z" fill="#263238"/>
<path d="M329.79 72.61C329.95 73.22 329.79 73.79 329.36 73.9C328.93 74.01 328.51 73.59 328.36 72.99C328.21 72.39 328.36 71.8 328.79 71.7C329.22 71.6 329.62 72 329.79 72.61Z" fill="#263238"/>
<path d="M326.09 77.15C325.888 77.1463 325.69 77.0911 325.515 76.9896C325.34 76.8881 325.194 76.7437 325.09 76.57L324.09 74.75C324.031 74.6478 323.996 74.5335 323.987 74.4158C323.978 74.298 323.996 74.1797 324.04 74.07C324.089 73.97 324.161 73.8827 324.249 73.815C324.338 73.7473 324.441 73.7011 324.55 73.68L329.75 72.53C329.982 72.4888 330.222 72.5194 330.436 72.6177C330.65 72.7159 330.83 72.8772 330.95 73.08L331.95 74.9C332.009 75.0022 332.045 75.1164 332.053 75.2342C332.062 75.352 332.044 75.4703 332 75.58C331.952 75.6805 331.88 75.7682 331.792 75.8359C331.703 75.9037 331.6 75.9496 331.49 75.97L326.29 77.13L326.09 77.15ZM329.93 73H329.84L324.63 74.16C324.598 74.1648 324.568 74.1773 324.542 74.1965C324.515 74.2157 324.494 74.2409 324.48 74.27C324.462 74.3055 324.452 74.345 324.452 74.385C324.452 74.425 324.462 74.4645 324.48 74.5L325.48 76.32C325.547 76.4291 325.644 76.5164 325.759 76.5715C325.874 76.6265 326.003 76.6468 326.13 76.63L331.33 75.48C331.363 75.4744 331.395 75.4617 331.422 75.4427C331.45 75.4237 331.473 75.3989 331.49 75.37C331.508 75.3345 331.518 75.295 331.518 75.255C331.518 75.215 331.508 75.1755 331.49 75.14L330.49 73.32C330.431 73.2245 330.348 73.1452 330.25 73.0894C330.153 73.0335 330.043 73.0028 329.93 73Z" fill="#263238"/>
<path d="M331.92 72.67L334.12 77.48C333.238 78.1637 332.133 78.4952 331.02 78.41C330.8 76.4506 331.111 74.4681 331.92 72.67Z" fill="#BA4D3C"/>
<path d="M334.71 75.24C334.508 75.2363 334.31 75.1811 334.135 75.0796C333.96 74.9781 333.814 74.8337 333.71 74.66L332.71 72.84C332.651 72.7378 332.615 72.6235 332.607 72.5057C332.598 72.388 332.616 72.2697 332.66 72.16C332.708 72.0595 332.78 71.9718 332.868 71.9041C332.957 71.8363 333.06 71.7904 333.17 71.77L338.37 70.61C338.603 70.5698 338.843 70.6018 339.058 70.7019C339.272 70.802 339.451 70.9654 339.57 71.17L340.57 72.99C340.632 73.0913 340.668 73.2058 340.677 73.324C340.686 73.4422 340.666 73.5608 340.62 73.67C340.572 73.7689 340.502 73.8554 340.415 73.923C340.329 73.9906 340.228 74.0375 340.12 74.06L334.91 75.22L334.71 75.24ZM338.55 71.09H338.46L333.26 72.24C333.227 72.2456 333.196 72.2583 333.168 72.2773C333.14 72.2963 333.117 72.3211 333.1 72.35C333.082 72.3855 333.072 72.425 333.072 72.465C333.072 72.505 333.082 72.5445 333.1 72.58L334.1 74.4C334.167 74.5117 334.265 74.6015 334.382 74.6583C334.5 74.7152 334.631 74.7366 334.76 74.72L339.96 73.56C339.993 73.5538 340.024 73.5408 340.052 73.5219C340.079 73.503 340.103 73.4785 340.12 73.45C340.136 73.4137 340.144 73.3745 340.144 73.335C340.144 73.2954 340.136 73.2563 340.12 73.22L339.12 71.4C339.06 71.3036 338.976 71.2244 338.876 71.1701C338.776 71.1158 338.664 71.0882 338.55 71.09Z" fill="#263238"/>
<path d="M331.13 74.2H331.05C331.02 74.1909 330.992 74.1758 330.967 74.1558C330.943 74.1358 330.923 74.1111 330.908 74.0832C330.893 74.0554 330.884 74.0248 330.881 73.9934C330.878 73.9619 330.881 73.9302 330.89 73.9C330.89 73.9 331.25 72.81 333.38 73.24C333.412 73.2459 333.442 73.2582 333.469 73.2762C333.496 73.2941 333.519 73.3173 333.537 73.3444C333.555 73.3715 333.567 73.4019 333.572 73.4338C333.578 73.4657 333.577 73.4984 333.57 73.53C333.565 73.5627 333.554 73.5942 333.536 73.6223C333.519 73.6504 333.496 73.6746 333.469 73.6934C333.442 73.7122 333.411 73.7251 333.378 73.7314C333.346 73.7377 333.312 73.7372 333.28 73.73C331.64 73.4 331.37 74.05 331.36 74.05C331.341 74.0947 331.308 74.1327 331.267 74.1594C331.227 74.1861 331.179 74.2002 331.13 74.2Z" fill="#263238"/>
<path d="M337.67 68.58C337.73 68.5585 337.782 68.5203 337.82 68.47C337.877 68.391 337.902 68.2928 337.889 68.196C337.876 68.0992 337.826 68.0111 337.75 67.95C337.295 67.5754 336.757 67.3154 336.182 67.1918C335.606 67.0683 335.008 67.0848 334.44 67.24C334.393 67.2546 334.35 67.2785 334.313 67.3104C334.276 67.3423 334.245 67.3815 334.224 67.4255C334.202 67.4695 334.19 67.5174 334.188 67.5663C334.185 67.6152 334.193 67.6641 334.21 67.71C334.244 67.8013 334.312 67.876 334.399 67.9188C334.487 67.9616 334.587 67.9692 334.68 67.94C335.132 67.8232 335.606 67.8158 336.061 67.9184C336.517 68.021 336.942 68.2306 337.3 68.53C337.352 68.5695 337.414 68.5948 337.478 68.6036C337.543 68.6123 337.609 68.6042 337.67 68.58Z" fill="#263238"/>
<path d="M325.79 71.71C325.849 71.6943 325.902 71.664 325.946 71.6221C325.99 71.5801 326.022 71.5278 326.04 71.47C326.16 71.0146 326.388 70.5949 326.705 70.2466C327.022 69.8984 327.418 69.6319 327.86 69.47C327.906 69.4574 327.95 69.4356 327.987 69.406C328.025 69.3764 328.056 69.3395 328.08 69.2976C328.103 69.2557 328.118 69.2095 328.123 69.1619C328.128 69.1142 328.124 69.066 328.11 69.02C328.082 68.9255 328.018 68.8455 327.933 68.797C327.847 68.7485 327.745 68.7352 327.65 68.76C327.096 68.9513 326.597 69.2728 326.193 69.6974C325.789 70.122 325.493 70.6373 325.33 71.2C325.316 71.2466 325.312 71.2955 325.317 71.3439C325.322 71.3922 325.337 71.4391 325.36 71.4818C325.383 71.5245 325.414 71.5623 325.452 71.5929C325.49 71.6234 325.533 71.6462 325.58 71.66C325.644 71.6966 325.717 71.714 325.79 71.71Z" fill="#263238"/>
<path opacity="0.2" d="M252.78 337.44V403.2C252.801 406.641 254.177 409.936 256.611 412.369C259.044 414.803 262.339 416.179 265.78 416.2H281.78L276.06 343.63L252.78 337.44Z" fill="black"/>
<path d="M228.94 338L222.55 346C221.988 346.711 221.275 347.287 220.462 347.687C219.648 348.087 218.756 348.299 217.85 348.31H160.14C158.635 348.339 157.194 348.919 156.088 349.94C154.982 350.961 154.289 352.352 154.14 353.85L149.06 415.28C148.981 415.989 149.055 416.707 149.277 417.385C149.498 418.063 149.862 418.685 150.345 419.211C150.827 419.737 151.416 420.153 152.072 420.432C152.728 420.712 153.437 420.847 154.15 420.83H267.15C268.658 420.805 270.103 420.225 271.21 419.201C272.317 418.177 273.008 416.781 273.15 415.28L279.28 341.28C279.357 340.572 279.282 339.855 279.06 339.179C278.838 338.502 278.473 337.88 277.991 337.356C277.509 336.831 276.921 336.416 276.265 336.137C275.61 335.858 274.902 335.723 274.19 335.74H233.63C232.73 335.747 231.843 335.954 231.032 336.345C230.221 336.735 229.507 337.301 228.94 338Z" fill="#7FC37E"/>
<path opacity="0.3" d="M228.94 338L222.55 346C221.988 346.711 221.275 347.287 220.462 347.687C219.648 348.087 218.756 348.299 217.85 348.31H160.14C158.635 348.339 157.194 348.919 156.088 349.94C154.982 350.961 154.289 352.352 154.14 353.85L149.06 415.28C148.981 415.989 149.055 416.707 149.277 417.385C149.498 418.063 149.862 418.685 150.345 419.211C150.827 419.737 151.416 420.153 152.072 420.432C152.728 420.712 153.437 420.847 154.15 420.83H267.15C268.658 420.805 270.103 420.225 271.21 419.201C272.317 418.177 273.008 416.781 273.15 415.28L279.28 341.28C279.357 340.572 279.282 339.855 279.06 339.179C278.838 338.502 278.473 337.88 277.991 337.356C277.509 336.831 276.921 336.416 276.265 336.137C275.61 335.858 274.902 335.723 274.19 335.74H233.63C232.73 335.747 231.843 335.954 231.032 336.345C230.221 336.735 229.507 337.301 228.94 338Z" fill="black"/>
<path d="M206.12 342.37L200.94 349.93C200.448 350.619 199.796 351.177 199.04 351.557C198.283 351.936 197.446 352.126 196.6 352.11H149.13C148.438 352.087 147.748 352.208 147.105 352.465C146.462 352.723 145.879 353.111 145.394 353.606C144.909 354.1 144.532 354.69 144.286 355.338C144.041 355.986 143.934 356.678 143.97 357.37L148.21 415.56C148.373 417.014 149.07 418.355 150.166 419.325C151.261 420.295 152.677 420.824 154.14 420.81H267.14C267.832 420.833 268.52 420.712 269.163 420.455C269.805 420.198 270.387 419.811 270.872 419.318C271.357 418.824 271.735 418.235 271.98 417.589C272.226 416.942 272.335 416.251 272.3 415.56L267.19 345.44C267.025 343.987 266.327 342.647 265.232 341.677C264.137 340.708 262.722 340.178 261.26 340.19H210.46C209.614 340.174 208.777 340.364 208.02 340.743C207.264 341.123 206.612 341.681 206.12 342.37Z" fill="#7FC37E"/>
</svg>
