<svg width="500" height="500" viewBox="0 0 500 500" fill="none" xmlns="http://www.w3.org/2000/svg">
<path d="M250 125C283.152 125 314.946 138.17 338.388 161.612C361.83 185.054 375 216.848 375 250C375 296.25 349.792 336.667 312.5 358.334V395.834C312.5 401.359 310.305 406.658 306.398 410.565C302.491 414.472 297.192 416.667 291.667 416.667H208.333C202.808 416.667 197.509 414.472 193.602 410.565C189.695 406.658 187.5 401.359 187.5 395.834V358.334C150.208 336.667 125 296.25 125 250C125 216.848 138.17 185.054 161.612 161.612C185.054 138.17 216.848 125 250 125ZM291.667 437.5V458.334C291.667 463.859 289.472 469.158 285.565 473.065C281.658 476.972 276.359 479.167 270.833 479.167H229.167C223.641 479.167 218.342 476.972 214.435 473.065C210.528 469.158 208.333 463.859 208.333 458.334V437.5H291.667ZM416.667 229.167H479.167V270.834H416.667V229.167ZM20.8334 229.167H83.3334V270.834H20.8334V229.167ZM270.833 20.8335V83.3335H229.167V20.8335H270.833ZM102.5 72.9168L146.875 117.5L117.292 146.875L72.9167 102.708L102.5 72.9168ZM353.125 117.292L397.292 72.9168L427.083 102.708L382.708 146.875L353.125 117.292Z" fill="#7FC37E"/>
</svg>
