<svg width="800" height="800" viewBox="0 0 800 800" fill="none" xmlns="http://www.w3.org/2000/svg">
<path d="M289.141 576.172L299.844 581.875C312.031 588.281 325.625 594.063 339.922 598.359L351.406 601.953V655.625C351.406 668.516 360 671.406 367.188 671.406H431.563C438.75 671.406 447.344 668.516 447.344 655.625V601.953L458.828 598.359C473.125 594.063 486.719 588.359 498.906 581.875L509.609 576.172L518.203 584.766C533.203 599.766 543.281 610.547 547.578 613.359C551.172 616.953 554.766 619.063 558.281 619.063C564.687 619.063 570.469 614.063 570.469 613.359L616.25 567.578C621.25 562.578 625.547 553.984 616.25 544.688L578.359 506.797L584.062 496.094C590.469 483.906 596.25 470.313 600.547 456.016L604.141 444.531H657.813C670.703 444.531 673.594 435.938 673.594 428.75V364.375C673.594 357.188 670.703 348.594 657.813 348.594H604.141L600.547 337.109C595.547 323.516 590.547 309.922 583.359 297.734L577.656 287.031L586.25 278.438L615.625 249.062C619.219 245.469 621.328 241.875 621.328 238.359C621.328 233.359 617.734 228.359 615.625 226.172L569.688 180.469C568.281 179.062 563.281 174.766 557.5 174.766C553.906 174.766 550.313 176.172 546.797 180.469L508.906 218.359L498.203 212.656C486.016 206.25 472.422 200.469 458.828 196.172L447.344 193.281V138.906C447.344 125.312 435.859 123.125 430.859 123.125H367.188C362.188 123.125 351.406 125.234 351.406 138.906V193.281L339.922 196.875C326.328 201.172 312.734 206.172 300.547 213.359L289.844 219.062L251.25 180.469C247.656 176.875 244.062 175.469 241.25 175.469C235.547 175.469 229.766 179.766 228.359 181.172L182.578 226.25C179.687 229.844 172.578 239.141 182.578 249.141L220.469 287.109L214.766 297.813C208.359 310 202.578 323.594 198.281 337.188L194.687 348.672H141.016C128.125 349.375 125.234 359.375 125.234 365.859V429.531C125.234 434.531 127.344 445.313 141.016 445.313H194.687L198.281 456.797C202.578 471.094 208.281 483.984 214.766 496.875L220.469 507.578L182.578 545.469C173.281 554.766 178.984 564.063 182.578 568.359L227.656 613.438C229.062 614.141 234.844 618.438 239.844 618.438C243.437 618.438 246.25 617.031 249.844 613.438L289.141 576.172Z" fill="white"/>
<path d="M387.813 546.172H387.188C384.453 545.937 381.719 545.625 378.984 545.313C374.688 544.766 371.719 540.781 372.266 536.484C372.813 532.188 376.797 529.219 381.094 529.766C383.516 530.078 386.016 530.391 388.438 530.547C392.734 530.859 395.938 534.688 395.625 538.984C395.234 543.125 391.797 546.172 387.813 546.172ZM418.906 545.313C415.078 545.313 411.719 542.5 411.172 538.594C410.547 534.297 413.594 530.391 417.813 529.766C420.234 529.453 422.656 529.062 425.078 528.594C429.297 527.734 433.438 530.547 434.219 534.766C435 538.984 432.266 543.125 428.047 543.906C425.391 544.453 422.656 544.922 419.922 545.234C419.688 545.313 419.297 545.313 418.906 545.313ZM349.766 537.734C348.828 537.734 347.969 537.578 347.031 537.266C344.453 536.328 341.875 535.234 339.375 534.141C335.391 532.422 333.594 527.813 335.391 523.828C337.109 519.844 341.719 518.047 345.703 519.844C347.969 520.859 350.234 521.797 352.578 522.656C356.641 524.141 358.672 528.672 357.188 532.734C355.938 535.781 352.969 537.734 349.766 537.734ZM456.406 534.766C453.438 534.766 450.547 533.047 449.219 530.078C447.5 526.094 449.297 521.484 453.203 519.766C455.469 518.75 457.656 517.734 459.844 516.641C463.672 514.688 468.359 516.25 470.313 520.078C472.266 523.906 470.703 528.594 466.875 530.547C464.453 531.797 461.953 532.969 459.453 534.062C458.516 534.531 457.5 534.766 456.406 534.766ZM315.547 519.219C313.906 519.219 312.344 518.75 310.938 517.734C308.75 516.094 306.563 514.375 304.453 512.656C301.094 509.922 300.625 505 303.359 501.641C306.094 498.281 311.016 497.813 314.375 500.547C316.25 502.109 318.203 503.672 320.234 505.078C323.75 507.656 324.453 512.5 321.875 516.016C320.313 518.125 317.891 519.219 315.547 519.219ZM489.531 514.297C487.266 514.297 485.078 513.359 483.516 511.484C480.781 508.125 481.25 503.203 484.531 500.469C486.406 498.906 488.281 497.266 490.078 495.625C493.281 492.734 498.203 492.891 501.094 496.094C503.984 499.297 503.828 504.219 500.625 507.109C498.594 508.984 496.563 510.781 494.453 512.5C493.047 513.75 491.25 514.297 489.531 514.297ZM287.578 492.109C285.234 492.109 282.969 491.094 281.406 489.141C279.688 486.953 278.047 484.766 276.484 482.5C273.984 478.984 274.922 474.063 278.438 471.641C281.953 469.141 286.875 470.078 289.297 473.594C290.703 475.625 292.188 477.578 293.672 479.531C296.328 482.969 295.703 487.813 292.344 490.469C290.938 491.563 289.297 492.109 287.578 492.109ZM515.859 485.703C514.297 485.703 512.734 485.234 511.406 484.297C507.891 481.875 506.953 476.953 509.453 473.438C510.859 471.406 512.188 469.375 513.516 467.266C515.781 463.594 520.625 462.422 524.297 464.688C527.969 466.953 529.141 471.797 526.875 475.469C525.469 477.812 523.906 480.078 522.344 482.344C520.781 484.531 518.359 485.703 515.859 485.703ZM268.047 458.438C265 458.438 262.031 456.641 260.781 453.594C259.766 451.094 258.75 448.438 257.891 445.859C256.484 441.797 258.672 437.344 262.734 435.938C266.797 434.531 271.25 436.719 272.656 440.781C273.438 443.125 274.297 445.391 275.234 447.656C276.875 451.641 274.922 456.25 270.938 457.813C270.078 458.203 269.063 458.438 268.047 458.438ZM533.516 450.938C532.656 450.938 531.797 450.781 531.016 450.547C526.953 449.141 524.766 444.688 526.172 440.625C526.953 438.281 527.734 435.938 528.359 433.594C529.531 429.453 533.828 427.031 537.969 428.203C542.109 429.375 544.531 433.672 543.359 437.813C542.578 440.469 541.797 443.125 540.938 445.703C539.766 448.906 536.719 450.938 533.516 450.938ZM258.516 420.703C254.609 420.703 251.172 417.734 250.781 413.75C250.469 411.016 250.234 408.281 250.078 405.547C249.844 401.25 253.125 397.578 257.422 397.344C261.719 397.109 265.391 400.391 265.625 404.688C265.781 407.109 265.938 409.609 266.25 412.031C266.719 416.328 263.672 420.156 259.375 420.625C259.063 420.703 258.75 420.703 258.516 420.703ZM540.938 412.734H540.469C536.172 412.5 532.891 408.828 533.125 404.531C533.281 402.109 533.359 399.609 533.359 397.187C533.359 392.891 536.875 389.375 541.172 389.375C545.469 389.375 548.984 392.891 548.984 397.187C548.984 399.922 548.906 402.656 548.75 405.391C548.516 409.531 545.078 412.734 540.938 412.734ZM259.531 381.797C259.141 381.797 258.672 381.797 258.281 381.719C253.984 381.016 251.172 377.031 251.875 372.734C252.344 370 252.813 367.344 253.438 364.609C254.375 360.391 258.516 357.734 262.734 358.672C266.953 359.609 269.609 363.75 268.672 367.969C268.125 370.391 267.656 372.812 267.266 375.234C266.563 379.062 263.281 381.797 259.531 381.797ZM539.141 381.172C535.391 381.172 532.109 378.438 531.484 374.688C531.094 372.266 530.625 369.844 530.078 367.422C529.141 363.203 531.797 359.062 535.938 358.047C540.156 357.109 544.297 359.766 545.313 363.906C545.938 366.562 546.484 369.297 546.875 372.031C547.578 376.25 544.688 380.313 540.469 381.016C540 381.172 539.609 381.172 539.141 381.172ZM271.016 344.609C269.922 344.609 268.75 344.375 267.656 343.828C263.75 341.953 262.109 337.344 263.906 333.437C265.078 330.937 266.328 328.516 267.656 326.094C269.688 322.266 274.453 320.859 278.281 322.969C282.109 325 283.516 329.766 281.406 333.594C280.234 335.781 279.141 337.969 278.047 340.156C276.797 342.969 273.984 344.609 271.016 344.609ZM527.422 344.062C524.531 344.062 521.719 342.422 520.391 339.609C519.375 337.422 518.203 335.156 517.031 333.047C515 329.297 516.328 324.531 520.156 322.422C523.906 320.391 528.672 321.719 530.781 325.547C532.109 327.969 533.359 330.391 534.531 332.891C536.406 336.797 534.766 341.484 530.859 343.281C529.688 343.828 528.594 344.062 527.422 344.062ZM292.344 311.953C290.547 311.953 288.672 311.328 287.188 310C283.906 307.187 283.594 302.266 286.406 298.984C288.203 296.953 290.078 294.844 291.953 292.891C294.922 289.766 299.922 289.688 302.969 292.734C306.094 295.703 306.172 300.703 303.125 303.75C301.406 305.469 299.766 307.344 298.125 309.219C296.719 311.094 294.531 311.953 292.344 311.953ZM506.094 311.562C503.906 311.562 501.797 310.625 500.234 308.906C498.594 307.031 496.953 305.234 495.234 303.516C492.188 300.391 492.266 295.469 495.391 292.5C498.438 289.453 503.438 289.531 506.406 292.656C508.281 294.609 510.234 296.641 512.031 298.672C514.844 301.953 514.531 306.875 511.328 309.687C509.688 310.937 507.891 311.562 506.094 311.562ZM321.641 286.328C319.063 286.328 316.641 285.078 315.078 282.813C312.734 279.219 313.75 274.375 317.344 272.031C319.609 270.547 321.953 269.063 324.375 267.734C328.125 265.547 332.891 266.875 335.078 270.547C337.266 274.297 336.016 279.063 332.266 281.25C330.156 282.5 328.047 283.75 326.016 285.156C324.609 285.938 323.125 286.328 321.641 286.328ZM476.641 286.094C475.156 286.094 473.672 285.703 472.422 284.844C470.391 283.516 468.281 282.188 466.094 281.016C462.344 278.828 461.094 274.063 463.203 270.313C465.313 266.563 470.156 265.312 473.906 267.422C476.25 268.75 478.672 270.234 480.938 271.719C484.531 274.062 485.547 278.906 483.203 282.5C481.719 284.844 479.219 286.094 476.641 286.094ZM356.797 269.688C353.438 269.688 350.391 267.578 349.375 264.219C348.047 260.078 350.391 255.703 354.453 254.453C357.031 253.594 359.766 252.891 362.344 252.187C366.563 251.094 370.781 253.672 371.875 257.813C372.969 262.031 370.391 266.25 366.25 267.344C363.906 267.969 361.484 268.594 359.141 269.375C358.359 269.531 357.578 269.688 356.797 269.688ZM441.406 269.531C440.625 269.531 439.844 269.453 439.063 269.141C436.719 268.438 434.375 267.734 431.953 267.188C427.734 266.172 425.234 261.875 426.25 257.734C427.266 253.516 431.563 251.016 435.703 252.031C438.359 252.734 441.016 253.437 443.672 254.219C447.813 255.469 450.078 259.844 448.828 263.984C447.813 267.344 444.766 269.531 441.406 269.531ZM395.156 263.203C390.938 263.203 387.5 259.844 387.344 255.625C387.188 251.328 390.625 247.734 394.922 247.578C397.656 247.5 400.469 247.5 403.125 247.578C407.422 247.656 410.859 251.25 410.703 255.625C410.625 259.844 407.109 263.203 402.891 263.203H402.656C400.234 263.125 397.734 263.125 395.234 263.203H395.156Z" fill="#1B6C1B"/>
<path d="M431.563 686.797H367.188C348.438 686.797 335.781 674.219 335.781 655.391V613.203L335.391 613.047C320.703 608.594 306.328 602.734 292.578 595.469L291.719 595L260.703 624.375C256.563 628.437 249.922 633.828 239.766 633.828C231.25 633.828 224.062 629.375 220.625 627.187C220.469 627.109 220.391 627.031 220.234 626.953L218.359 626.016L171.016 578.672L170.547 578.125C158.672 563.906 159.062 546.641 171.484 534.141L201.25 504.375L200.781 503.516C195.312 492.656 188.437 478.047 183.359 461.016L183.203 460.625H141.016C119.453 460.625 109.609 444.375 109.609 429.219V365.625C109.609 350.156 119.063 333.984 140.078 332.812H183.125L183.281 332.344C187.813 317.969 193.906 303.516 200.859 290.312L201.172 289.766L171.406 260C166.719 255.312 152.734 238.203 170.234 216.25L170.781 215.547L217.266 169.844C218.359 168.75 228.125 159.609 241.094 159.609C248.516 159.609 256.016 163.047 262.188 169.219L292.656 199.688L292.891 199.531C307.266 191.094 323.047 185.625 335.156 181.797L335.703 181.641V138.75C335.703 117.188 351.953 107.344 367.109 107.344H430.781C434.688 107.344 442.187 108.047 449.297 112.578C458.047 118.203 462.813 127.422 462.813 138.672V180.859L463.359 181.016C477.656 185.547 492.188 191.562 505.312 198.594L505.859 198.906L535.156 169.609C542.813 160.781 551.484 158.828 557.344 158.828C569.297 158.828 578.125 166.719 580.547 169.141L626.328 214.922C631.328 219.922 636.641 228.594 636.641 238.125C636.641 245.781 633.203 253.047 626.328 259.922L596.562 289.687L596.719 289.922C604.531 303.203 609.766 317.578 614.922 331.484L615.312 332.734H657.5C676.25 332.734 688.906 345.312 688.906 364.141V428.516C688.906 447.266 676.328 459.922 657.5 459.922H615.312L615.156 460.312C610.703 475 604.844 489.453 597.578 503.125L597.266 503.672L627.031 533.437C634.609 541.016 638.125 550.312 636.797 559.687C635.859 566.484 632.5 572.969 627.031 578.437L582.266 623.437C576.719 630.469 566.25 634.531 558.203 634.531C550.938 634.531 543.984 631.406 537.422 625.234C533.359 622.187 528.281 617.031 518.281 606.953C514.922 603.594 511.172 599.766 507.109 595.625L506.719 595.234L506.172 595.547C492.422 602.812 478.047 608.75 463.359 613.125L462.969 613.281V655.469C462.969 674.219 450.313 686.797 431.563 686.797ZM367.031 655.547H431.563V590.234L454.141 583.203C466.953 579.375 479.453 574.219 491.406 567.891L512.344 556.719L529.141 573.516C533.359 577.734 537.109 581.562 540.469 585C547.109 591.797 554.063 598.75 556.094 600.234L557.422 601.094L558.438 602.187L558.828 602.578L605 556.406C605.156 556.25 605.234 556.094 605.391 556.016C605.313 555.859 605.156 555.781 605 555.625L558.906 509.531L570.078 488.594C576.406 476.719 581.484 464.141 585.391 451.406L585.469 451.25L592.5 428.828H657.813V364.375V364.297H592.5L585.625 342.266C580.781 329.062 576.172 316.641 569.766 305.781L569.453 305.234L558.281 284.297L604.375 238.203L604.766 237.812C604.609 237.656 604.531 237.5 604.375 237.344L558.594 191.562C558.438 191.484 558.359 191.328 558.125 191.172L511.719 237.422L490.781 226.25C479.453 220.234 466.875 215 454.531 211.016L431.719 205.312V138.75V138.672C431.406 138.594 431.172 138.594 430.859 138.594H367.188H367.109V204.531L344.688 211.562C334.063 214.922 320.312 219.687 308.594 226.562L308.047 226.875L287.109 238.047L240.469 191.406C240 191.641 239.609 191.953 239.297 192.187L194.375 236.406C193.984 236.875 193.75 237.266 193.516 237.578L193.75 237.812L239.844 283.906L228.672 304.844C222.578 316.328 217.266 328.984 213.359 341.562L206.406 363.906H141.797C141.641 363.906 141.484 363.984 141.328 363.984C141.25 364.375 141.172 364.844 141.172 365.469V429.219H206.406L213.438 451.797C216.875 463.203 221.641 474.766 228.828 489.219L239.922 510L193.828 556.094L193.594 556.328C193.75 556.641 193.984 557.031 194.375 557.5L237.5 600.625C237.969 600.859 238.594 601.328 239.297 601.641L286.797 556.719L307.422 567.734C319.297 574.063 331.875 579.141 344.609 583.047L344.766 583.125L367.188 590.156V655.469C367.031 655.469 367.031 655.547 367.031 655.547ZM239.375 192.031L239.219 192.187C239.297 192.109 239.375 192.109 239.375 192.031Z" fill="#1B6C1B"/>
<path d="M512.109 474.297L503.516 466.328L506.328 461.016C527.344 421.328 519.687 371.485 487.734 339.844C461.484 313.828 423.594 304.141 388.516 313.672L450.078 374.61C464.219 388.594 464.297 411.485 450.312 425.625L428.437 447.735C421.641 454.61 412.656 458.36 402.969 458.438H402.812C393.281 458.438 384.219 454.766 377.422 447.969L315.859 387.031C306.719 422.188 316.797 460 343.047 486.016C375 517.656 424.922 524.766 464.375 503.36L469.687 500.469L611.953 651.094C616.328 655.781 622.266 658.36 628.672 658.438C635.078 658.516 641.094 656.016 645.547 651.485L656.328 640.625C660.859 636.094 663.203 630.078 663.125 623.672C662.969 617.266 660.312 611.328 655.625 607.031L515 476.875L512.109 474.297Z" fill="#E6E6E6"/>
<path d="M522.813 462.891C532.422 442.109 535.938 418.516 532.578 395.781C535.938 418.594 532.422 442.187 522.813 462.891ZM677.266 613.672C677.578 614.922 677.891 616.172 678.125 617.5C677.891 616.172 677.656 614.922 677.266 613.672Z" fill="#1B6C1B"/>
<path d="M678.125 617.5C677.891 616.25 677.578 614.922 677.266 613.672C677.031 612.813 676.797 611.953 676.484 611.094C674.375 605.234 670.937 599.922 666.25 595.547L525.625 465.391L522.891 462.891C532.5 442.109 536.016 418.516 532.656 395.781C528.906 370.156 517.187 347.031 498.75 328.75C465.078 295.469 415 285.391 371.094 303.125L360.078 307.578L439.062 385.703C442.969 389.531 445.078 394.688 445.156 400.156C445.156 405.625 443.047 410.781 439.219 414.609L417.344 436.719C413.516 440.625 408.359 442.734 402.891 442.813H402.812C397.422 442.813 392.266 440.703 388.437 436.875L309.375 358.75L305.078 369.844C287.812 413.906 298.437 463.906 332.109 497.188C350.547 515.469 373.828 526.875 399.453 530.391C422.266 533.438 445.781 529.766 466.484 519.922L600.625 661.953C607.969 669.688 617.891 674.063 628.516 674.141H628.984C639.453 674.141 649.297 670.078 656.719 662.578L667.5 651.719C675 644.141 678.984 634.063 678.75 623.438C678.672 621.406 678.516 619.375 678.125 617.5ZM628.672 658.516C622.266 658.438 616.328 655.859 611.953 651.172L469.687 500.547L464.375 503.438C424.922 524.844 375 517.734 343.047 486.094C316.797 460.078 306.719 422.344 315.859 387.109L377.422 448.047C384.219 454.766 393.203 458.516 402.812 458.516H402.969C412.578 458.438 421.641 454.688 428.437 447.813L450.312 425.703C464.297 411.563 464.219 388.672 450.078 374.688L388.516 313.75C423.594 304.219 461.484 313.906 487.734 339.922C519.687 371.563 527.344 421.328 506.328 461.094L503.516 466.406L512.109 474.375L514.922 477.031L655.547 607.188C660.234 611.563 662.891 617.422 663.047 623.828C663.203 630.234 660.781 636.25 656.25 640.781L645.547 651.563C641.094 656.094 635.078 658.516 628.672 658.516Z" fill="#1B6C1B"/>
<path d="M655.078 603.75C653.203 603.75 651.25 603.047 649.766 601.641L521.953 483.36C518.75 480.391 518.594 475.469 521.563 472.344C524.531 469.141 529.453 468.985 532.578 471.953L660.391 590.235C663.594 593.203 663.75 598.125 660.781 601.25C659.219 602.891 657.11 603.75 655.078 603.75Z" fill="#1B6C1B"/>
</svg>
