<svg width="542" height="542" viewBox="0 0 542 542" fill="none" xmlns="http://www.w3.org/2000/svg">
<g filter="url(#filter0_dd_565_103)">
<circle cx="271" cy="271" r="250" fill="#0E1C26"/>
</g>
<path d="M276.61 305.669C274.73 305.801 272.831 305.867 270.915 305.867C268.584 305.867 266.28 305.766 264.003 305.576C252.738 304.632 241.822 301.397 232.002 296.092C222.182 290.787 213.691 283.539 207.109 274.842C206.936 274.609 206.703 274.42 206.431 274.295C206.16 274.17 205.859 274.112 205.558 274.127C205.256 274.142 204.964 274.228 204.707 274.379C204.451 274.53 204.239 274.74 204.092 274.99L172.007 329.513C170.786 331.62 170.594 334.148 171.882 336.204C172.553 337.224 173.487 338.065 174.596 338.649C175.705 339.233 176.954 339.54 178.224 339.541H212.983C214.194 339.499 215.395 339.763 216.461 340.306C217.528 340.849 218.423 341.651 219.052 342.63L236.281 369.879C236.911 370.89 237.806 371.731 238.878 372.321C239.951 372.912 241.167 373.231 242.408 373.25C245.055 373.111 247.796 371.484 248.896 369.205L278.357 308.045C278.484 307.78 278.536 307.487 278.508 307.197C278.48 306.906 278.373 306.628 278.197 306.388C278.021 306.149 277.782 305.957 277.504 305.831C277.226 305.704 276.918 305.649 276.61 305.669ZM369.587 329.378L337.711 274.952C337.564 274.705 337.353 274.497 337.098 274.348C336.843 274.198 336.553 274.112 336.253 274.097C335.954 274.082 335.655 274.138 335.385 274.261C335.115 274.384 334.882 274.57 334.707 274.8C325.941 286.413 313.827 295.397 299.81 300.68C298.089 301.321 296.697 302.567 295.924 304.156L279.498 338.328C279.286 338.764 279.177 339.239 279.177 339.718C279.177 340.198 279.286 340.673 279.498 341.109L292.987 369.167C294.079 371.446 296.815 373.111 299.458 373.25C300.7 373.221 301.914 372.891 302.982 372.292C304.051 371.693 304.94 370.845 305.563 369.828L322.733 342.617C324.021 340.574 326.356 339.529 328.874 339.541H363.976C366.949 339.541 369.199 338.075 370.215 335.328C370.572 334.352 370.701 333.315 370.593 332.288C370.484 331.261 370.141 330.268 369.587 329.378Z" fill="#7FC37E"/>
<path d="M270.933 171C235.541 171 206.762 198.215 206.762 231.675C206.762 265.135 235.554 292.35 270.933 292.35C306.312 292.35 335.104 265.131 335.104 231.675C335.104 198.22 306.32 171 270.933 171ZM270.933 265.383C263.882 265.383 256.989 263.406 251.126 259.703C245.264 255.999 240.694 250.734 237.996 244.575C235.298 238.415 234.592 231.638 235.967 225.099C237.343 218.56 240.738 212.554 245.724 207.84C250.71 203.125 257.062 199.915 263.978 198.614C270.893 197.314 278.061 197.981 284.576 200.533C291.09 203.084 296.658 207.404 300.575 212.948C304.492 218.491 306.583 225.008 306.583 231.675C306.572 240.612 302.812 249.179 296.129 255.498C289.445 261.817 280.384 265.372 270.933 265.383Z" fill="#7FC37E"/>
<path fill-rule="evenodd" clip-rule="evenodd" d="M270.817 251.9C273.626 251.9 276.407 251.377 279.003 250.361C281.598 249.344 283.956 247.855 285.942 245.976C287.928 244.098 289.504 241.869 290.579 239.415C291.654 236.961 292.207 234.331 292.207 231.675C292.207 229.019 291.654 226.389 290.579 223.935C289.504 221.482 287.928 219.252 285.942 217.374C283.956 215.496 281.598 214.006 279.003 212.99C276.407 211.973 273.626 211.45 270.817 211.45C265.144 211.45 259.703 213.581 255.692 217.374C251.68 221.167 249.427 226.311 249.427 231.675C249.427 237.039 251.68 242.184 255.692 245.976C259.703 249.769 265.144 251.9 270.817 251.9ZM270.265 239.855L282.149 226.372L278.498 223.495L268.279 235.089L262.99 230.086L259.63 233.264L266.76 240.006L268.599 241.745L270.265 239.855Z" fill="#7FC37E"/>
<defs>
<filter id="filter0_dd_565_103" x="0" y="0" width="542" height="542" filterUnits="userSpaceOnUse" color-interpolation-filters="sRGB">
<feFlood flood-opacity="0" result="BackgroundImageFix"/>
<feColorMatrix in="SourceAlpha" type="matrix" values="0 0 0 0 0 0 0 0 0 0 0 0 0 0 0 0 0 0 127 0" result="hardAlpha"/>
<feMorphology radius="4" operator="dilate" in="SourceAlpha" result="effect1_dropShadow_565_103"/>
<feOffset dx="1" dy="-1"/>
<feGaussianBlur stdDeviation="8"/>
<feComposite in2="hardAlpha" operator="out"/>
<feColorMatrix type="matrix" values="0 0 0 0 0.466667 0 0 0 0 0.435294 0 0 0 0 0.435294 0 0 0 0.2 0"/>
<feBlend mode="normal" in2="BackgroundImageFix" result="effect1_dropShadow_565_103"/>
<feColorMatrix in="SourceAlpha" type="matrix" values="0 0 0 0 0 0 0 0 0 0 0 0 0 0 0 0 0 0 127 0" result="hardAlpha"/>
<feMorphology radius="4" operator="dilate" in="SourceAlpha" result="effect2_dropShadow_565_103"/>
<feOffset dx="-1" dy="1"/>
<feGaussianBlur stdDeviation="8"/>
<feComposite in2="hardAlpha" operator="out"/>
<feColorMatrix type="matrix" values="0 0 0 0 0.466667 0 0 0 0 0.435294 0 0 0 0 0.435294 0 0 0 0.2 0"/>
<feBlend mode="normal" in2="effect1_dropShadow_565_103" result="effect2_dropShadow_565_103"/>
<feBlend mode="normal" in="SourceGraphic" in2="effect2_dropShadow_565_103" result="shape"/>
</filter>
</defs>
</svg>
