<svg width="500" height="500" viewBox="0 0 500 500" fill="none" xmlns="http://www.w3.org/2000/svg">
<path d="M180.713 360.107L187.402 363.672C195.02 367.676 203.516 371.289 212.451 373.975L219.629 376.221V409.766C219.629 417.822 225 419.629 229.492 419.629H269.727C274.219 419.629 279.59 417.822 279.59 409.766V376.221L286.768 373.975C295.703 371.289 304.199 367.725 311.816 363.672L318.506 360.107L323.877 365.479C333.252 374.854 339.551 381.592 342.236 383.35C344.482 385.596 346.728 386.914 348.926 386.914C352.93 386.914 356.543 383.789 356.543 383.35L385.156 354.736C388.281 351.611 390.967 346.24 385.156 340.43L361.475 316.748L365.039 310.059C369.043 302.441 372.656 293.945 375.342 285.01L377.588 277.832H411.133C419.189 277.832 420.996 272.461 420.996 267.969V227.734C420.996 223.242 419.189 217.871 411.133 217.871H377.588L375.342 210.693C372.217 202.197 369.092 193.701 364.6 186.084L361.035 179.395L366.406 174.023L384.766 155.664C387.012 153.418 388.33 151.172 388.33 148.975C388.33 145.85 386.084 142.725 384.766 141.357L356.055 112.793C355.176 111.914 352.051 109.229 348.437 109.229C346.191 109.229 343.945 110.107 341.748 112.793L318.066 136.475L311.377 132.91C303.76 128.906 295.264 125.293 286.768 122.607L279.59 120.801V86.8164C279.59 78.3203 272.412 76.9531 269.287 76.9531H229.492C226.367 76.9531 219.629 78.2715 219.629 86.8164V120.801L212.451 123.047C203.955 125.732 195.459 128.857 187.842 133.35L181.152 136.914L157.031 112.793C154.785 110.547 152.539 109.668 150.781 109.668C147.217 109.668 143.604 112.354 142.725 113.232L114.111 141.406C112.305 143.652 107.861 149.463 114.111 155.713L137.793 179.443L134.229 186.133C130.225 193.75 126.611 202.246 123.926 210.742L121.68 217.92H88.1348C80.0781 218.359 78.2715 224.609 78.2715 228.662V268.457C78.2715 271.582 79.5898 278.32 88.1348 278.32H121.68L123.926 285.498C126.611 294.434 130.176 302.49 134.229 310.547L137.793 317.236L114.111 340.918C108.301 346.729 111.865 352.539 114.111 355.225L142.285 383.398C143.164 383.838 146.777 386.523 149.902 386.523C152.148 386.523 153.906 385.645 156.152 383.398L180.713 360.107Z" fill="white"/>
<path d="M242.383 341.357H241.992C240.283 341.211 238.574 341.016 236.865 340.82C234.18 340.479 232.324 337.988 232.666 335.303C233.008 332.617 235.498 330.762 238.184 331.104C239.697 331.299 241.26 331.494 242.774 331.592C245.459 331.787 247.461 334.18 247.266 336.865C247.022 339.453 244.873 341.357 242.383 341.357ZM261.816 340.82C259.424 340.82 257.324 339.063 256.982 336.621C256.592 333.936 258.496 331.494 261.133 331.104C262.647 330.908 264.16 330.664 265.674 330.371C268.311 329.834 270.898 331.592 271.387 334.229C271.875 336.865 270.166 339.453 267.529 339.941C265.869 340.283 264.16 340.576 262.451 340.772C262.305 340.82 262.061 340.82 261.816 340.82ZM218.604 336.084C218.018 336.084 217.481 335.986 216.895 335.791C215.283 335.205 213.672 334.521 212.109 333.838C209.619 332.764 208.496 329.883 209.619 327.393C210.693 324.902 213.574 323.779 216.065 324.902C217.481 325.537 218.897 326.123 220.361 326.66C222.9 327.588 224.17 330.42 223.242 332.959C222.461 334.863 220.606 336.084 218.604 336.084ZM285.254 334.229C283.399 334.229 281.592 333.154 280.762 331.299C279.688 328.809 280.811 325.928 283.252 324.854C284.668 324.219 286.035 323.584 287.402 322.9C289.795 321.68 292.725 322.656 293.945 325.049C295.166 327.441 294.189 330.371 291.797 331.592C290.283 332.373 288.721 333.105 287.158 333.789C286.572 334.082 285.938 334.229 285.254 334.229ZM197.217 324.512C196.191 324.512 195.215 324.219 194.336 323.584C192.969 322.559 191.602 321.484 190.283 320.41C188.184 318.701 187.891 315.625 189.6 313.525C191.309 311.426 194.385 311.133 196.484 312.842C197.656 313.818 198.877 314.795 200.147 315.674C202.344 317.285 202.783 320.313 201.172 322.51C200.195 323.828 198.682 324.512 197.217 324.512ZM305.957 321.436C304.541 321.436 303.174 320.85 302.197 319.678C300.488 317.578 300.781 314.502 302.832 312.793C304.004 311.816 305.176 310.791 306.299 309.766C308.301 307.959 311.377 308.057 313.184 310.059C314.99 312.061 314.893 315.137 312.891 316.943C311.621 318.115 310.352 319.238 309.033 320.313C308.154 321.094 307.031 321.436 305.957 321.436ZM179.736 307.568C178.272 307.568 176.856 306.934 175.879 305.713C174.805 304.346 173.779 302.979 172.803 301.562C171.24 299.365 171.826 296.289 174.023 294.775C176.221 293.213 179.297 293.799 180.811 295.996C181.69 297.266 182.617 298.486 183.545 299.707C185.205 301.855 184.815 304.883 182.715 306.543C181.836 307.227 180.811 307.568 179.736 307.568ZM322.412 303.564C321.436 303.564 320.459 303.272 319.629 302.686C317.432 301.172 316.846 298.096 318.408 295.898C319.287 294.629 320.117 293.359 320.947 292.041C322.363 289.746 325.391 289.014 327.686 290.43C329.981 291.846 330.713 294.873 329.297 297.168C328.418 298.633 327.441 300.049 326.465 301.465C325.488 302.832 323.975 303.564 322.412 303.564ZM167.529 286.523C165.625 286.523 163.77 285.4 162.988 283.496C162.354 281.934 161.719 280.273 161.182 278.662C160.303 276.123 161.67 273.34 164.209 272.461C166.748 271.582 169.531 272.949 170.41 275.488C170.898 276.953 171.436 278.369 172.022 279.785C173.047 282.275 171.826 285.156 169.336 286.133C168.799 286.377 168.164 286.523 167.529 286.523ZM333.447 281.836C332.91 281.836 332.373 281.738 331.885 281.592C329.346 280.713 327.979 277.93 328.857 275.391C329.346 273.926 329.834 272.461 330.225 270.996C330.957 268.408 333.643 266.895 336.231 267.627C338.818 268.359 340.332 271.045 339.6 273.633C339.111 275.293 338.623 276.953 338.086 278.564C337.354 280.566 335.449 281.836 333.447 281.836ZM161.572 262.939C159.131 262.939 156.982 261.084 156.738 258.594C156.543 256.885 156.397 255.176 156.299 253.467C156.152 250.781 158.203 248.486 160.889 248.34C163.574 248.193 165.869 250.244 166.016 252.93C166.113 254.443 166.211 256.006 166.406 257.52C166.699 260.205 164.795 262.598 162.109 262.891C161.914 262.939 161.719 262.939 161.572 262.939ZM338.086 257.959H337.793C335.107 257.812 333.057 255.518 333.203 252.832C333.301 251.318 333.35 249.756 333.35 248.242C333.35 245.557 335.547 243.359 338.232 243.359C340.918 243.359 343.115 245.557 343.115 248.242C343.115 249.951 343.066 251.66 342.969 253.369C342.822 255.957 340.674 257.959 338.086 257.959ZM162.207 238.623C161.963 238.623 161.67 238.623 161.426 238.574C158.74 238.135 156.982 235.645 157.422 232.959C157.715 231.25 158.008 229.59 158.398 227.881C158.984 225.244 161.572 223.584 164.209 224.17C166.846 224.756 168.506 227.344 167.92 229.98C167.578 231.494 167.285 233.008 167.041 234.521C166.602 236.914 164.551 238.623 162.207 238.623ZM336.963 238.232C334.619 238.232 332.568 236.523 332.178 234.18C331.934 232.666 331.641 231.152 331.299 229.639C330.713 227.002 332.373 224.414 334.961 223.779C337.598 223.193 340.186 224.854 340.82 227.441C341.211 229.102 341.553 230.811 341.797 232.52C342.236 235.156 340.43 237.695 337.793 238.135C337.5 238.232 337.256 238.232 336.963 238.232ZM169.385 215.381C168.701 215.381 167.969 215.234 167.285 214.893C164.844 213.721 163.818 210.84 164.941 208.398C165.674 206.836 166.455 205.322 167.285 203.809C168.555 201.416 171.533 200.537 173.926 201.855C176.318 203.125 177.197 206.104 175.879 208.496C175.147 209.863 174.463 211.23 173.779 212.598C172.998 214.355 171.24 215.381 169.385 215.381ZM329.639 215.039C327.832 215.039 326.074 214.014 325.244 212.256C324.609 210.889 323.877 209.473 323.145 208.154C321.875 205.811 322.705 202.832 325.098 201.514C327.441 200.244 330.42 201.074 331.738 203.467C332.568 204.98 333.35 206.494 334.082 208.057C335.254 210.498 334.229 213.428 331.787 214.551C331.055 214.893 330.371 215.039 329.639 215.039ZM182.715 194.971C181.592 194.971 180.42 194.58 179.492 193.75C177.441 191.992 177.246 188.916 179.004 186.865C180.127 185.596 181.299 184.277 182.471 183.057C184.326 181.104 187.451 181.055 189.356 182.959C191.309 184.814 191.357 187.939 189.453 189.844C188.379 190.918 187.354 192.09 186.328 193.262C185.449 194.434 184.082 194.971 182.715 194.971ZM316.309 194.727C314.941 194.727 313.623 194.141 312.647 193.066C311.621 191.895 310.596 190.771 309.522 189.697C307.617 187.744 307.666 184.668 309.619 182.813C311.523 180.908 314.649 180.957 316.504 182.91C317.676 184.131 318.897 185.4 320.02 186.67C321.777 188.721 321.582 191.797 319.58 193.555C318.555 194.336 317.432 194.727 316.309 194.727ZM201.025 178.955C199.414 178.955 197.9 178.174 196.924 176.758C195.459 174.512 196.094 171.484 198.34 170.02C199.756 169.092 201.221 168.164 202.734 167.334C205.078 165.967 208.057 166.797 209.424 169.092C210.791 171.436 210.01 174.414 207.666 175.781C206.348 176.563 205.029 177.344 203.76 178.223C202.881 178.711 201.953 178.955 201.025 178.955ZM297.9 178.809C296.973 178.809 296.045 178.564 295.264 178.027C293.994 177.197 292.676 176.367 291.309 175.635C288.965 174.268 288.184 171.289 289.502 168.945C290.82 166.602 293.848 165.82 296.191 167.139C297.656 167.969 299.17 168.896 300.586 169.824C302.832 171.289 303.467 174.316 302.002 176.563C301.074 178.027 299.512 178.809 297.9 178.809ZM222.998 168.555C220.899 168.555 218.994 167.236 218.359 165.137C217.529 162.549 218.994 159.814 221.533 159.033C223.145 158.496 224.854 158.057 226.465 157.617C229.102 156.934 231.738 158.545 232.422 161.133C233.106 163.77 231.494 166.406 228.906 167.09C227.441 167.48 225.928 167.871 224.463 168.359C223.975 168.457 223.486 168.555 222.998 168.555ZM275.879 168.457C275.391 168.457 274.902 168.408 274.414 168.213C272.949 167.773 271.484 167.334 269.971 166.992C267.334 166.357 265.772 163.672 266.406 161.084C267.041 158.447 269.727 156.885 272.315 157.52C273.975 157.959 275.635 158.398 277.295 158.887C279.883 159.668 281.299 162.402 280.518 164.99C279.883 167.09 277.979 168.457 275.879 168.457ZM246.973 164.502C244.336 164.502 242.188 162.402 242.09 159.766C241.992 157.08 244.141 154.834 246.826 154.736C248.535 154.688 250.293 154.688 251.953 154.736C254.639 154.785 256.787 157.031 256.69 159.766C256.641 162.402 254.443 164.502 251.807 164.502H251.66C250.147 164.453 248.584 164.453 247.022 164.502H246.973Z" fill="#7FC37E"/>
<path d="M269.727 429.248H229.492C217.773 429.248 209.863 421.387 209.863 409.619V383.252L209.619 383.154C200.439 380.371 191.455 376.709 182.861 372.168L182.324 371.875L162.939 390.234C160.352 392.773 156.201 396.143 149.854 396.143C144.531 396.143 140.039 393.359 137.891 391.992C137.793 391.943 137.744 391.895 137.646 391.846L136.475 391.26L106.885 361.67L106.592 361.328C99.1699 352.441 99.4141 341.65 107.178 333.838L125.781 315.234L125.488 314.697C122.07 307.91 117.773 298.779 114.6 288.135L114.502 287.891H88.1348C74.6582 287.891 68.5059 277.734 68.5059 268.262V228.516C68.5059 218.848 74.4141 208.74 87.5488 208.008H114.453L114.551 207.715C117.383 198.73 121.191 189.697 125.537 181.445L125.732 181.104L107.129 162.5C104.199 159.57 95.459 148.877 106.396 135.156L106.738 134.717L135.791 106.152C136.475 105.469 142.578 99.7559 150.684 99.7559C155.322 99.7559 160.01 101.904 163.867 105.762L182.91 124.805L183.057 124.707C192.041 119.434 201.904 116.016 209.473 113.623L209.814 113.525V86.7188C209.814 73.2422 219.971 67.0898 229.443 67.0898H269.238C271.68 67.0898 276.367 67.5293 280.811 70.3613C286.279 73.877 289.258 79.6387 289.258 86.6699V113.037L289.6 113.135C298.535 115.967 307.617 119.727 315.82 124.121L316.162 124.316L334.473 106.006C339.258 100.488 344.678 99.2676 348.34 99.2676C355.811 99.2676 361.328 104.199 362.842 105.713L391.455 134.326C394.58 137.451 397.9 142.871 397.9 148.828C397.9 153.613 395.752 158.154 391.455 162.451L372.852 181.055L372.949 181.201C377.832 189.502 381.104 198.486 384.326 207.178L384.57 207.959H410.937C422.656 207.959 430.566 215.82 430.566 227.588V267.822C430.566 279.541 422.705 287.451 410.937 287.451H384.57L384.473 287.695C381.689 296.875 378.027 305.908 373.486 314.453L373.291 314.795L391.895 333.398C396.631 338.135 398.828 343.945 397.998 349.805C397.412 354.053 395.312 358.105 391.895 361.523L363.916 389.648C360.449 394.043 353.906 396.582 348.877 396.582C344.336 396.582 339.99 394.629 335.889 390.771C333.35 388.867 330.176 385.645 323.926 379.346C321.826 377.246 319.482 374.854 316.943 372.266L316.699 372.021L316.357 372.217C307.764 376.758 298.779 380.469 289.6 383.203L289.355 383.301V409.668C289.355 421.387 281.445 429.248 269.727 429.248ZM229.395 409.717H269.727V368.896L283.838 364.502C291.846 362.109 299.658 358.887 307.129 354.932L320.215 347.949L330.713 358.447C333.35 361.084 335.693 363.477 337.793 365.625C341.943 369.873 346.289 374.219 347.559 375.146L348.389 375.684L349.023 376.367L349.268 376.611L378.125 347.754C378.223 347.656 378.272 347.559 378.369 347.51C378.32 347.412 378.223 347.363 378.125 347.266L349.316 318.457L356.299 305.371C360.254 297.949 363.428 290.088 365.869 282.129L365.918 282.031L370.313 268.018H411.133V227.734V227.686H370.313L366.016 213.916C362.988 205.664 360.107 197.9 356.104 191.113L355.908 190.771L348.926 177.686L377.734 148.877L377.979 148.633C377.881 148.535 377.832 148.437 377.734 148.34L349.121 119.727C349.023 119.678 348.975 119.58 348.828 119.482L319.824 148.389L306.738 141.406C299.658 137.646 291.797 134.375 284.082 131.885L269.824 128.32V86.7188V86.6699C269.629 86.6211 269.482 86.6211 269.287 86.6211H229.492H229.443V127.832L215.43 132.227C208.789 134.326 200.195 137.305 192.871 141.602L192.529 141.797L179.443 148.779L150.293 119.629C150 119.775 149.756 119.971 149.561 120.117L121.484 147.754C121.24 148.047 121.094 148.291 120.947 148.486L121.094 148.633L149.902 177.441L142.92 190.527C139.111 197.705 135.791 205.615 133.35 213.477L129.004 227.441H88.623C88.5254 227.441 88.4277 227.49 88.3301 227.49C88.2812 227.734 88.2324 228.027 88.2324 228.418V268.262H129.004L133.398 282.373C135.547 289.502 138.525 296.729 143.018 305.762L149.951 318.75L121.143 347.559L120.996 347.705C121.094 347.9 121.24 348.145 121.484 348.437L148.437 375.391C148.73 375.537 149.121 375.83 149.561 376.025L179.248 347.949L192.139 354.834C199.561 358.789 207.422 361.963 215.381 364.404L215.479 364.453L229.492 368.848V409.668C229.395 409.668 229.395 409.717 229.395 409.717ZM149.609 120.02L149.512 120.117C149.561 120.068 149.609 120.068 149.609 120.02Z" fill="#7FC37E"/>
<path d="M320.069 296.435L314.697 291.455L316.455 288.135C329.59 263.33 324.805 232.178 304.834 212.402C288.428 196.143 264.746 190.088 242.822 196.045L281.299 234.131C290.137 242.871 290.186 257.178 281.446 266.016L267.774 279.834C263.526 284.131 257.91 286.475 251.856 286.523H251.758C245.801 286.523 240.137 284.228 235.889 279.98L197.412 241.894C191.699 263.867 197.998 287.5 214.405 303.76C234.375 323.535 265.576 327.978 290.235 314.6L293.555 312.793L382.471 406.934C385.205 409.863 388.916 411.475 392.92 411.523C396.924 411.572 400.684 410.01 403.467 407.178L410.205 400.391C413.037 397.559 414.502 393.799 414.453 389.795C414.356 385.791 412.696 382.08 409.766 379.394L321.875 298.047L320.069 296.435Z" fill="white"/>
<path d="M326.758 289.307C332.764 276.318 334.961 261.572 332.861 247.363C334.961 261.621 332.764 276.367 326.758 289.307ZM423.291 383.545C423.486 384.326 423.682 385.107 423.828 385.938C423.682 385.107 423.535 384.326 423.291 383.545Z" fill="#7FC37E"/>
<path d="M423.828 385.938C423.682 385.156 423.487 384.326 423.291 383.545C423.145 383.008 422.998 382.471 422.803 381.934C421.485 378.271 419.336 374.951 416.406 372.217L328.516 290.869L326.807 289.307C332.813 276.318 335.01 261.572 332.91 247.363C330.567 231.348 323.242 216.895 311.719 205.469C290.674 184.668 259.375 178.369 231.934 189.453L225.049 192.236L274.414 241.064C276.856 243.457 278.174 246.68 278.223 250.098C278.223 253.516 276.905 256.738 274.512 259.131L260.84 272.949C258.447 275.391 255.225 276.709 251.807 276.758H251.758C248.389 276.758 245.166 275.439 242.774 273.047L193.36 224.219L190.674 231.152C179.883 258.691 186.524 289.941 207.569 310.742C219.092 322.168 233.643 329.297 249.658 331.494C263.916 333.398 278.613 331.104 291.553 324.951L375.391 413.721C379.981 418.555 386.182 421.289 392.822 421.338H393.115C399.658 421.338 405.811 418.799 410.449 414.111L417.188 407.324C421.875 402.588 424.365 396.289 424.219 389.648C424.17 388.379 424.072 387.109 423.828 385.938ZM392.92 411.572C388.916 411.523 385.205 409.912 382.471 406.982L293.555 312.842L290.235 314.648C265.576 328.027 234.375 323.584 214.404 303.809C197.998 287.549 191.699 263.965 197.412 241.943L235.889 280.029C240.137 284.229 245.752 286.572 251.758 286.572H251.856C257.862 286.523 263.526 284.18 267.774 279.883L281.446 266.064C290.186 257.227 290.137 242.92 281.299 234.18L242.822 196.094C264.746 190.137 288.428 196.191 304.834 212.451C324.805 232.227 329.59 263.33 316.455 288.184L314.697 291.504L320.069 296.484L321.826 298.145L409.717 379.492C412.647 382.227 414.307 385.889 414.404 389.893C414.502 393.896 412.988 397.656 410.156 400.488L403.467 407.227C400.684 410.059 396.924 411.572 392.92 411.572Z" fill="#7FC37E"/>
<path d="M409.424 377.344C408.252 377.344 407.031 376.904 406.103 376.026L326.221 302.1C324.219 300.244 324.121 297.168 325.976 295.215C327.832 293.213 330.908 293.115 332.861 294.971L412.744 368.897C414.746 370.752 414.844 373.828 412.988 375.781C412.012 376.807 410.693 377.344 409.424 377.344Z" fill="#7FC37E"/>
</svg>
