<svg width="469" height="469" viewBox="0 0 469 469" fill="none" xmlns="http://www.w3.org/2000/svg">
<path d="M234.165 434.685C344.909 434.685 434.684 344.909 434.684 234.165C434.684 123.422 344.909 33.646 234.165 33.646C123.421 33.646 33.6455 123.422 33.6455 234.165C33.6455 344.909 123.421 434.685 234.165 434.685Z" stroke="#7FC37E" stroke-width="10"/>
<path d="M234.165 291.456C265.806 291.456 291.456 265.806 291.456 234.165C291.456 202.524 265.806 176.874 234.165 176.874C202.524 176.874 176.874 202.524 176.874 234.165C176.874 265.806 202.524 291.456 234.165 291.456Z" fill="#7FC37E" stroke="#7FC37E" stroke-width="10"/>
<path d="M92.3692 92.3692L5 5M375.961 92.3692L463.33 5M463.33 463.33L375.961 375.961M5 463.33L92.3692 375.961" stroke="#7FC37E" stroke-width="10" stroke-linecap="round"/>
</svg>
