<svg width="800" height="800" viewBox="0 0 800 800" fill="none" xmlns="http://www.w3.org/2000/svg">
<path d="M598.955 309.677H392.503V206.452C392.503 135.303 450.387 77.4192 521.536 77.4192V51.6128C436.155 51.6128 366.697 121.071 366.697 206.452V309.677H108.632C80.1679 309.677 57.0195 332.826 57.0195 361.29V670.968C57.0195 699.432 80.1679 722.581 108.632 722.581H250.568V774.193H224.761V800H482.826V774.193H457.02V722.581H598.955C627.42 722.581 650.568 699.432 650.568 670.968V361.29C650.568 332.826 627.42 309.677 598.955 309.677ZM431.213 774.193H276.374V722.581H431.213V774.193ZM624.761 670.968C624.761 685.2 613.187 696.774 598.955 696.774H108.632C94.4002 696.774 82.826 685.2 82.826 670.968V645.161H624.761V670.968ZM624.761 619.355H82.826V361.29C82.826 347.058 94.4002 335.484 108.632 335.484H366.697V361.29C366.697 406.348 343.445 446.026 308.349 469.11C294.852 436.181 262.491 412.903 224.761 412.903C174.955 412.903 134.439 453.432 134.439 503.226C134.439 553.019 174.955 593.548 224.761 593.548C274.568 593.548 315.084 553.019 315.084 503.226C315.084 500.593 314.916 498 314.684 495.419C361.11 468.658 392.503 418.619 392.503 361.29V335.484H598.955C613.187 335.484 624.761 347.058 624.761 361.29V619.355ZM237.665 516.129C255.626 516.129 272.813 512.89 288.878 507.239C286.749 540.916 258.955 567.742 224.761 567.742C189.187 567.742 160.245 538.8 160.245 503.226C160.245 467.652 189.187 438.71 224.761 438.71C252.555 438.71 276.078 456.464 285.136 481.161C270.426 487.006 254.439 490.322 237.665 490.322H211.858V516.129H237.665Z" fill="#1B6C1B"/>
<path d="M495.729 361.291H469.923V387.097H495.729V361.291Z" fill="#1B6C1B"/>
<path d="M547.342 361.291H521.536V387.097H547.342V361.291Z" fill="#1B6C1B"/>
<path d="M598.955 361.291H573.148V387.097H598.955V361.291Z" fill="#1B6C1B"/>
<path d="M490.387 129.032H549.432L742.981 64.5161L549.432 0H490.387L554.903 64.5161L490.387 129.032ZM556.413 29.5226L661.381 64.5161L556.413 99.5097L591.394 64.5161L556.413 29.5226Z" fill="#1B6C1B"/>
<path d="M444.116 567.742H573.148V438.709H444.116V567.742ZM469.923 464.516H547.342V541.935H469.923V464.516Z" fill="#1B6C1B"/>
</svg>
